<?xml version="1.0" encoding="UTF-8" standalone="no"?>
<!DOCTYPE svg PUBLIC "-//W3C//DTD SVG 1.1//EN" "http://www.w3.org/Graphics/SVG/1.1/DTD/svg11.dtd">
<!-- Created with Vectornator (http://vectornator.io/) -->
<svg height="1024.0pt" stroke-miterlimit="10" style="fill-rule:nonzero;clip-rule:evenodd;stroke-linecap:round;stroke-linejoin:round;" version="1.1" viewBox="0 0 2048 1024" width="2048.0pt" xml:space="preserve" xmlns="http://www.w3.org/2000/svg" xmlns:xlink="http://www.w3.org/1999/xlink">
<defs>
<linearGradient gradientTransform="matrix(150.054 -209.075 186.589 168.137 564.312 634.257)" gradientUnits="userSpaceOnUse" id="LinearGradient" x1="0" x2="1" y1="0" y2="0">
<stop offset="0" stop-color="#0072bb"/>
<stop offset="1" stop-color="#00a651"/>
</linearGradient>
<linearGradient gradientTransform="matrix(1084.44 0 0 1084.44 934.894 634.028)" gradientUnits="userSpaceOnUse" id="LinearGradient_2" x1="0" x2="1" y1="0" y2="0">
<stop offset="0" stop-color="#00a165"/>
<stop offset="1" stop-color="#0072bb"/>
</linearGradient>
</defs>
<g id="图层-1">
<g opacity="1">
<path d="M488.055 204.418C442.634 205.368 397.927 236.487 384.007 297.148C380.611 311.949 379.856 704.227 383.195 719.043C395.778 774.878 432.092 809.331 488.02 818.495C537.492 826.601 586.468 790.111 627.072 714.894C636.625 697.199 634.775 697.597 647.8 710.421C683.376 745.448 722.613 768.807 759.938 777.178C764.969 778.306 769.376 779.431 769.732 779.675C771.918 781.177 798.08 782.358 808.249 781.414C948.292 768.408 976.981 549.93 844.911 502.213C786.342 481.051 716.919 509.501 652.484 581.068C644.447 589.994 637.656 597.059 637.395 596.768C634.604 593.667 618.268 555.58 614.215 542.729C600.44 499.04 599.709 491.359 599.166 384.604C598.742 301.113 598.741 301.114 596.391 292.71C579.611 232.691 533.476 203.469 488.055 204.418ZM486.275 260.855C511.14 261.005 536.151 279.846 539.371 315.307C539.928 321.44 540.253 353.423 540.189 395.322C540.059 479.16 541.056 495.886 548.056 527.389C554.965 558.479 573.846 605.658 590.713 633.973C597.274 644.987 598.937 640.015 575.765 678.626C542.84 733.488 530.054 746.833 506.394 751.024C472.171 757.085 442.108 733.579 435.032 695.226C432.365 680.769 433.136 317.992 435.86 305.535C442.508 275.141 464.334 260.722 486.275 260.855ZM809.332 556.808C813.701 557.036 817.926 557.732 822.009 558.898C898.297 580.678 885.291 708.26 805.807 717.837C797.425 718.847 789.191 718.992 784.563 718.212C757.126 713.585 724.428 696.346 697.591 672.356C687.585 663.412 671.211 647.216 671.49 646.539C671.777 645.844 689.525 627.184 695.038 621.782C741.084 576.661 778.75 555.217 809.332 556.808Z" fill="url(#LinearGradient)" fill-rule="nonzero" opacity="1" stroke="none"/>
<path d="M643.498 556.241C623.254 517.829 617.932 457.3 630.131 404.202C654.879 296.487 758.493 214.477 881.425 205.306C898.883 204.004 896.888 201.802 902.05 228.059C922.104 330.059 904.23 421.222 853.473 475.823C847.94 481.775 848.726 481.676 836.342 477.977C793.259 465.106 741.8 478.29 690.875 515.246C682.835 521.081 682.782 520.943 686.251 503.216C698.064 442.86 721.668 392.253 764.218 336.052C777.907 317.972 777.844 317.764 762.95 331.858C711.332 380.704 680.239 433.286 659.03 507.598C656.748 515.594 648.231 554.219 648.223 556.607C648.209 560.73 645.764 560.541 643.498 556.241L643.498 556.241Z" fill="#00a651" fill-rule="nonzero" opacity="1" stroke="none"/>
<path d="M87.0415 737.845C87.0415 747.572 79.3128 755.539 69.5896 755.836C59.8665 756.132 51.6673 748.649 51.0754 738.94C50.4834 729.23 57.713 720.807 67.4001 719.92C77.0872 719.033 85.7265 726.003 86.9082 735.658" fill="#0172bb" fill-rule="nonzero" opacity="1" stroke="none"/>
<path d="M153.041 737.845C153.041 747.572 145.313 755.539 135.59 755.836C125.867 756.132 117.667 748.649 117.075 738.94C116.483 729.23 123.713 720.807 133.4 719.92C143.087 719.033 151.726 726.003 152.908 735.658" fill="#0172bb" fill-rule="nonzero" opacity="1" stroke="none"/>
<path d="M153.041 685.845C153.041 695.572 145.313 703.539 135.59 703.836C125.867 704.132 117.667 696.649 117.075 686.94C116.483 677.23 123.713 668.807 133.4 667.92C143.087 667.033 151.726 674.003 152.908 683.658" fill="#0172bb" fill-rule="nonzero" opacity="1" stroke="none"/>
<path d="M351.041 633.845C351.041 643.572 343.313 651.539 333.59 651.836C323.867 652.132 315.667 644.649 315.075 634.94C314.483 625.23 321.713 616.807 331.4 615.92C341.087 615.033 349.726 622.003 350.908 631.658" fill="#0172bb" fill-rule="nonzero" opacity="1" stroke="none"/>
<path d="M87.0415 737.845C87.0415 747.572 79.3128 755.539 69.5896 755.836C59.8665 756.132 51.6673 748.649 51.0754 738.94C50.4834 729.23 57.713 720.807 67.4001 719.92C77.0872 719.033 85.7265 726.003 86.9082 735.658" fill="#0172bb" fill-rule="nonzero" opacity="1" stroke="none"/>
<path d="M219.041 633.845C219.041 643.572 211.313 651.539 201.59 651.836C191.867 652.132 183.667 644.649 183.075 634.94C182.483 625.23 189.713 616.807 199.4 615.92C209.087 615.033 217.726 622.003 218.908 631.658" fill="#0172bb" fill-rule="nonzero" opacity="1" stroke="none"/>
<path d="M351.041 685.845C351.041 695.572 343.313 703.539 333.59 703.836C323.867 704.132 315.667 696.649 315.075 686.94C314.483 677.23 321.713 668.807 331.4 667.92C341.087 667.033 349.726 674.003 350.908 683.658" fill="#0172bb" fill-rule="nonzero" opacity="1" stroke="none"/>
<path d="M219.041 685.845C219.041 695.572 211.313 703.539 201.59 703.836C191.867 704.132 183.667 696.649 183.075 686.94C182.483 677.23 189.713 668.807 199.4 667.92C209.087 667.033 217.726 674.003 218.908 683.658" fill="#0172bb" fill-rule="nonzero" opacity="1" stroke="none"/>
<path d="M285.041 685.845C285.041 695.572 277.313 703.539 267.59 703.836C257.867 704.132 249.667 696.649 249.075 686.94C248.483 677.23 255.713 668.807 265.4 667.92C275.087 667.033 283.726 674.003 284.908 683.658" fill="#0172bb" fill-rule="nonzero" opacity="1" stroke="none"/>
<path d="M153.041 737.845C153.041 747.572 145.313 755.539 135.59 755.836C125.867 756.132 117.667 748.649 117.075 738.94C116.483 729.23 123.713 720.807 133.4 719.92C143.087 719.033 151.726 726.003 152.908 735.658" fill="#0172bb" fill-rule="nonzero" opacity="1" stroke="none"/>
<path d="M219.041 737.845C219.041 747.572 211.313 755.539 201.59 755.836C191.867 756.132 183.667 748.649 183.075 738.94C182.483 729.23 189.713 720.807 199.4 719.92C209.087 719.033 217.726 726.003 218.908 735.658" fill="#0172bb" fill-rule="nonzero" opacity="1" stroke="none"/>
<path d="M285.041 737.845C285.041 747.572 277.313 755.539 267.59 755.836C257.867 756.132 249.667 748.649 249.075 738.94C248.483 729.23 255.713 720.807 265.4 719.92C275.087 719.033 283.726 726.003 284.908 735.658" fill="#0172bb" fill-rule="nonzero" opacity="1" stroke="none"/>
<path d="M351.041 737.845C351.041 747.572 343.313 755.539 333.59 755.836C323.867 756.132 315.667 748.649 315.075 738.94C314.483 729.23 321.713 720.807 331.4 719.92C341.087 719.033 349.726 726.003 350.908 735.658" fill="#0172bb" fill-rule="nonzero" opacity="1" stroke="none"/>
<path d="M285.041 633.845C285.041 643.572 277.313 651.539 267.59 651.836C257.867 652.132 249.667 644.649 249.075 634.94C248.483 625.23 255.713 616.807 265.4 615.92C275.087 615.033 283.726 622.003 284.908 631.658" fill="#0172bb" fill-rule="nonzero" opacity="1" stroke="none"/>
<path d="M351.041 581.845C351.041 591.572 343.313 599.539 333.59 599.836C323.867 600.132 315.667 592.649 315.075 582.94C314.483 573.23 321.713 564.807 331.4 563.92C341.087 563.033 349.726 570.003 350.908 579.658" fill="#00a651" fill-rule="nonzero" opacity="1" stroke="none"/>
<path d="M285.041 581.845C285.041 591.572 277.313 599.539 267.59 599.836C257.867 600.132 249.667 592.649 249.075 582.94C248.483 573.23 255.713 564.807 265.4 563.92C275.087 563.033 283.726 570.003 284.908 579.658" fill="#00a651" fill-rule="nonzero" opacity="1" stroke="none"/>
<path d="M351.041 529.845C351.041 539.572 343.313 547.539 333.59 547.836C323.867 548.132 315.667 540.649 315.075 530.94C314.483 521.23 321.713 512.807 331.4 511.92C341.087 511.033 349.726 518.003 350.908 527.658" fill="#00a651" fill-rule="nonzero" opacity="1" stroke="none"/>
</g>
<g opacity="1">
<path d="M1194.4 366.118L1174.83 340.659L1191.12 340.659L1202.89 357.518L1215 340.659L1230.61 340.659L1211.15 366.118L1233.33 394.972L1216.81 394.972L1202.66 375.17L1188.41 394.972L1172.34 394.972L1194.4 366.118Z" fill="#0072bb" fill-rule="nonzero" opacity="1" stroke="none"/>
<path d="M1241.59 340.659L1255.17 340.659L1255.17 394.972L1241.59 394.972L1241.59 340.659ZM1239.66 322.215C1239.66 320.027 1240.48 318.123 1242.1 316.501C1243.72 314.879 1245.77 314.068 1248.26 314.068C1250.75 314.068 1252.85 314.841 1254.54 316.388C1256.24 317.934 1257.09 319.876 1257.09 322.215C1257.09 324.553 1256.24 326.496 1254.54 328.042C1252.85 329.589 1250.75 330.362 1248.26 330.362C1245.77 330.362 1243.72 329.551 1242.1 327.929C1240.48 326.307 1239.66 324.403 1239.66 322.215Z" fill="#0072bb" fill-rule="nonzero" opacity="1" stroke="none"/>
<path d="M1336.52 339.075C1340.07 339.075 1343.1 339.697 1345.63 340.942C1348.16 342.186 1350.23 343.827 1351.85 345.864C1353.48 347.901 1354.66 350.239 1355.42 352.879C1356.17 355.519 1356.55 358.235 1356.55 361.026L1356.55 394.972L1342.97 394.972L1342.97 364.873C1342.97 363.289 1342.86 361.63 1342.63 359.895C1342.41 358.16 1341.92 356.594 1341.16 355.199C1340.41 353.803 1339.37 352.653 1338.05 351.748C1336.73 350.842 1334.98 350.39 1332.79 350.39C1330.68 350.39 1328.87 350.842 1327.36 351.748C1325.85 352.653 1324.6 353.822 1323.62 355.255C1322.64 356.689 1321.93 358.292 1321.47 360.064C1321.02 361.837 1320.79 363.591 1320.79 365.326L1320.79 394.972L1307.22 394.972L1307.22 362.158C1307.22 358.763 1306.41 355.953 1304.78 353.728C1303.16 351.503 1300.62 350.39 1297.15 350.39C1295.11 350.39 1293.34 350.824 1291.83 351.691C1290.32 352.559 1289.09 353.671 1288.15 355.029C1287.21 356.387 1286.49 357.952 1286 359.725C1285.51 361.498 1285.26 363.289 1285.26 365.1L1285.26 394.972L1271.69 394.972L1271.69 340.659L1284.59 340.659L1284.59 349.371L1284.81 349.371C1285.42 348.014 1286.23 346.731 1287.24 345.524C1288.26 344.317 1289.47 343.224 1290.87 342.243C1292.26 341.262 1293.86 340.489 1295.67 339.923C1297.49 339.358 1299.48 339.075 1301.67 339.075C1305.9 339.075 1309.4 340.018 1312.19 341.903C1314.99 343.789 1317.14 346.279 1318.64 349.371C1320.45 346.052 1322.87 343.506 1325.89 341.734C1328.9 339.961 1332.45 339.075 1336.52 339.075Z" fill="#0072bb" fill-rule="nonzero" opacity="1" stroke="none"/>
<path d="M1369.22 367.589C1369.22 363.289 1370 359.385 1371.54 355.878C1373.09 352.37 1375.18 349.371 1377.82 346.882C1380.46 344.393 1383.59 342.469 1387.21 341.111C1390.84 339.754 1394.68 339.075 1398.76 339.075C1402.83 339.075 1406.68 339.754 1410.3 341.111C1413.92 342.469 1417.05 344.393 1419.69 346.882C1422.33 349.371 1424.42 352.37 1425.97 355.878C1427.52 359.385 1428.29 363.289 1428.29 367.589C1428.29 371.889 1427.52 375.811 1425.97 379.357C1424.42 382.902 1422.33 385.939 1419.69 388.466C1417.05 390.993 1413.92 392.973 1410.3 394.406C1406.68 395.839 1402.83 396.556 1398.76 396.556C1394.68 396.556 1390.84 395.839 1387.21 394.406C1383.59 392.973 1380.46 390.993 1377.82 388.466C1375.18 385.939 1373.09 382.902 1371.54 379.357C1370 375.811 1369.22 371.889 1369.22 367.589ZM1383.03 367.589C1383.03 369.701 1383.35 371.813 1383.99 373.926C1384.63 376.038 1385.59 377.924 1386.88 379.583C1388.16 381.243 1389.78 382.601 1391.74 383.657C1393.7 384.713 1396.04 385.241 1398.76 385.241C1401.47 385.241 1403.81 384.713 1405.77 383.657C1407.73 382.601 1409.35 381.243 1410.64 379.583C1411.92 377.924 1412.88 376.038 1413.52 373.926C1414.16 371.813 1414.48 369.701 1414.48 367.589C1414.48 365.477 1414.16 363.384 1413.52 361.309C1412.88 359.235 1411.92 357.368 1410.64 355.708C1409.35 354.048 1407.73 352.709 1405.77 351.691C1403.81 350.673 1401.47 350.164 1398.76 350.164C1396.04 350.164 1393.7 350.673 1391.74 351.691C1389.78 352.709 1388.16 354.048 1386.88 355.708C1385.59 357.368 1384.63 359.235 1383.99 361.309C1383.35 363.384 1383.03 365.477 1383.03 367.589Z" fill="#0072bb" fill-rule="nonzero" opacity="1" stroke="none"/>
<path d="M1441.41 340.659L1454.43 340.659L1454.43 349.711L1454.65 349.711C1456.16 346.543 1458.27 343.978 1460.99 342.017C1463.71 340.055 1466.87 339.075 1470.49 339.075C1471.02 339.075 1471.59 339.093 1472.19 339.131C1472.8 339.169 1473.32 339.263 1473.78 339.414L1473.78 351.861C1472.87 351.635 1472.1 351.484 1471.46 351.408C1470.82 351.333 1470.19 351.295 1469.59 351.295C1466.5 351.295 1464.01 351.861 1462.12 352.992C1460.24 354.124 1458.76 355.482 1457.71 357.066C1456.65 358.65 1455.94 360.272 1455.56 361.931C1455.18 363.591 1454.99 364.911 1454.99 365.892L1454.99 394.972L1441.41 394.972L1441.41 340.659Z" fill="#0072bb" fill-rule="nonzero" opacity="1" stroke="none"/>
<path d="M1481.24 340.659L1496.29 340.659L1511.46 380.149L1511.68 380.149L1525.15 340.659L1539.29 340.659L1513.61 406.627C1512.63 409.116 1511.57 411.322 1510.44 413.246C1509.31 415.17 1507.95 416.791 1506.36 418.112C1504.78 419.432 1502.91 420.431 1500.76 421.11C1498.61 421.789 1496.03 422.128 1493.01 422.128C1491.88 422.128 1490.73 422.072 1489.56 421.959C1488.39 421.846 1487.2 421.638 1486 421.336L1487.13 409.569C1488.03 409.87 1488.92 410.078 1489.79 410.191C1490.65 410.304 1491.47 410.361 1492.22 410.361C1493.65 410.361 1494.86 410.191 1495.84 409.851C1496.82 409.512 1497.65 408.984 1498.33 408.267C1499.01 407.551 1499.61 406.664 1500.14 405.608C1500.67 404.552 1501.23 403.307 1501.84 401.874L1504.55 394.972L1481.24 340.659Z" fill="#0072bb" fill-rule="nonzero" opacity="1" stroke="none"/>
<path d="M1540.88 387.051C1540.88 384.637 1541.76 382.563 1543.53 380.828C1545.31 379.093 1547.44 378.225 1549.93 378.225C1552.34 378.225 1554.45 379.055 1556.26 380.715C1558.07 382.374 1558.98 384.411 1558.98 386.825C1558.98 389.239 1558.09 391.313 1556.32 393.048C1554.55 394.783 1552.42 395.651 1549.93 395.651C1548.72 395.651 1547.57 395.424 1546.48 394.972C1545.38 394.519 1544.42 393.916 1543.59 393.161C1542.76 392.407 1542.1 391.502 1541.61 390.446C1541.12 389.39 1540.88 388.258 1540.88 387.051Z" fill="#0072bb" fill-rule="nonzero" opacity="1" stroke="none"/>
<path d="M1609.9 355.708C1608.84 354.199 1607.26 352.936 1605.15 351.917C1603.03 350.899 1600.88 350.39 1598.7 350.39C1596.21 350.39 1594.02 350.899 1592.13 351.917C1590.25 352.936 1588.68 354.275 1587.44 355.934C1586.19 357.594 1585.27 359.461 1584.67 361.535C1584.06 363.61 1583.76 365.703 1583.76 367.815C1583.76 369.928 1584.08 372.021 1584.72 374.095C1585.36 376.17 1586.33 378.037 1587.61 379.696C1588.89 381.356 1590.49 382.695 1592.42 383.713C1594.34 384.732 1596.58 385.241 1599.15 385.241C1601.26 385.241 1603.37 384.826 1605.49 383.996C1607.6 383.166 1609.3 381.959 1610.58 380.375L1619.06 388.975C1616.8 391.389 1613.92 393.256 1610.41 394.576C1606.9 395.896 1603.11 396.556 1599.04 396.556C1595.04 396.556 1591.25 395.915 1587.66 394.632C1584.08 393.35 1580.95 391.464 1578.27 388.975C1575.59 386.485 1573.48 383.468 1571.94 379.923C1570.39 376.377 1569.62 372.341 1569.62 367.815C1569.62 363.44 1570.39 359.48 1571.94 355.934C1573.48 352.389 1575.58 349.371 1578.22 346.882C1580.86 344.393 1583.93 342.469 1587.44 341.111C1590.95 339.754 1594.7 339.075 1598.7 339.075C1602.69 339.075 1606.56 339.829 1610.29 341.338C1614.03 342.846 1616.99 344.921 1619.18 347.561L1609.9 355.708Z" fill="#0072bb" fill-rule="nonzero" opacity="1" stroke="none"/>
<path d="M1624.83 367.589C1624.83 363.289 1625.61 359.385 1627.15 355.878C1628.7 352.37 1630.79 349.371 1633.43 346.882C1636.07 344.393 1639.21 342.469 1642.83 341.111C1646.45 339.754 1650.29 339.075 1654.37 339.075C1658.44 339.075 1662.29 339.754 1665.91 341.111C1669.53 342.469 1672.66 344.393 1675.3 346.882C1677.94 349.371 1680.03 352.37 1681.58 355.878C1683.13 359.385 1683.9 363.289 1683.9 367.589C1683.9 371.889 1683.13 375.811 1681.58 379.357C1680.03 382.902 1677.94 385.939 1675.3 388.466C1672.66 390.993 1669.53 392.973 1665.91 394.406C1662.29 395.839 1658.44 396.556 1654.37 396.556C1650.29 396.556 1646.45 395.839 1642.83 394.406C1639.21 392.973 1636.07 390.993 1633.43 388.466C1630.79 385.939 1628.7 382.902 1627.15 379.357C1625.61 375.811 1624.83 371.889 1624.83 367.589ZM1638.64 367.589C1638.64 369.701 1638.96 371.813 1639.6 373.926C1640.24 376.038 1641.2 377.924 1642.49 379.583C1643.77 381.243 1645.39 382.601 1647.35 383.657C1649.31 384.713 1651.65 385.241 1654.37 385.241C1657.08 385.241 1659.42 384.713 1661.38 383.657C1663.34 382.601 1664.97 381.243 1666.25 379.583C1667.53 377.924 1668.49 376.038 1669.13 373.926C1669.78 371.813 1670.1 369.701 1670.1 367.589C1670.1 365.477 1669.78 363.384 1669.13 361.309C1668.49 359.235 1667.53 357.368 1666.25 355.708C1664.97 354.048 1663.34 352.709 1661.38 351.691C1659.42 350.673 1657.08 350.164 1654.37 350.164C1651.65 350.164 1649.31 350.673 1647.35 351.691C1645.39 352.709 1643.77 354.048 1642.49 355.708C1641.2 357.368 1640.24 359.235 1639.6 361.309C1638.96 363.384 1638.64 365.477 1638.64 367.589Z" fill="#0072bb" fill-rule="nonzero" opacity="1" stroke="none"/>
<path d="M1761.86 339.075C1765.41 339.075 1768.44 339.697 1770.97 340.942C1773.5 342.186 1775.57 343.827 1777.19 345.864C1778.82 347.901 1780 350.239 1780.76 352.879C1781.51 355.519 1781.89 358.235 1781.89 361.026L1781.89 394.972L1768.31 394.972L1768.31 364.873C1768.31 363.289 1768.2 361.63 1767.97 359.895C1767.75 358.16 1767.26 356.594 1766.5 355.199C1765.75 353.803 1764.71 352.653 1763.39 351.748C1762.07 350.842 1760.32 350.39 1758.13 350.39C1756.02 350.39 1754.21 350.842 1752.7 351.748C1751.19 352.653 1749.94 353.822 1748.96 355.255C1747.98 356.689 1747.27 358.292 1746.81 360.064C1746.36 361.837 1746.13 363.591 1746.13 365.326L1746.13 394.972L1732.56 394.972L1732.56 362.158C1732.56 358.763 1731.74 355.953 1730.12 353.728C1728.5 351.503 1725.96 350.39 1722.49 350.39C1720.45 350.39 1718.68 350.824 1717.17 351.691C1715.66 352.559 1714.43 353.671 1713.49 355.029C1712.55 356.387 1711.83 357.952 1711.34 359.725C1710.85 361.498 1710.6 363.289 1710.6 365.1L1710.6 394.972L1697.03 394.972L1697.03 340.659L1709.93 340.659L1709.93 349.371L1710.15 349.371C1710.76 348.014 1711.57 346.731 1712.58 345.524C1713.6 344.317 1714.81 343.224 1716.21 342.243C1717.6 341.262 1719.2 340.489 1721.01 339.923C1722.82 339.358 1724.82 339.075 1727.01 339.075C1731.24 339.075 1734.74 340.018 1737.53 341.903C1740.33 343.789 1742.48 346.279 1743.98 349.371C1745.79 346.052 1748.21 343.506 1751.23 341.734C1754.24 339.961 1757.79 339.075 1761.86 339.075Z" fill="#0072bb" fill-rule="nonzero" opacity="1" stroke="none"/>
</g>
<path d="M1976.69 552.469L1929.86 618.778L1884.33 552.686L1842.2 552.686L1911.18 652.818L1912.23 714.828L1949.23 714.213L1948.22 653.469L2019.33 552.794L1976.69 552.469ZM939.194 553.3L1002.58 630.703L934.894 713.599L981.401 713.599L1025.88 659.142L1070.51 713.599L1116.8 713.599L1049.05 630.848L1112.36 553.3L1065.81 553.3L1025.7 602.373L985.52 553.3L939.194 553.3ZM1147.81 553.3L1147.81 713.599L1185.1 713.599L1185.1 553.3L1147.81 553.3ZM1440.87 553.3L1392.12 553.625L1345.51 650.47L1294.12 554.312L1245.63 554.673L1228.97 715.117L1265.97 714.828L1278.37 595.507L1327.04 686.533L1364.91 686.822L1407.55 598.217L1416.91 713.744L1453.81 713.491L1440.87 553.3ZM1565.14 553.3C1517.61 553.3 1479.07 589.61 1479.07 634.425C1479.07 679.24 1517.61 715.587 1565.14 715.587C1612.68 715.587 1651.18 679.24 1651.18 634.425C1651.18 589.61 1612.67 553.3 1565.14 553.3ZM1683.78 553.3L1683.78 654.336L1683.78 713.599L1721.07 713.599L1721.07 654.336L1767.79 654.336L1808.3 713.599L1846.68 713.599L1805.08 652.782C1824.58 647.39 1839.12 627.547 1839.12 603.782C1839.12 575.884 1819.17 553.3 1794.57 553.3C1793.94 553.3 1793.35 553.451 1792.73 553.481L1792.73 553.3L1721.07 553.3L1683.78 553.3ZM1721.07 584.883L1778.16 584.883L1778.16 584.955C1778.49 584.944 1778.81 584.883 1779.14 584.883C1792.19 584.883 1802.77 593.579 1802.77 604.324C1802.77 613.443 1795.13 621.075 1784.85 623.187L1784.05 622.031L1781.78 623.584C1780.9 623.666 1780.04 623.801 1779.14 623.801C1778.81 623.801 1778.49 623.74 1778.16 623.729L1778.16 623.801L1721.07 623.801L1721.07 584.883ZM1564.92 587.593C1591.85 587.593 1613.71 608.796 1613.71 634.967C1613.71 661.138 1591.85 682.378 1564.92 682.378C1538 682.378 1516.18 661.138 1516.18 634.967C1516.18 608.796 1538 587.593 1564.92 587.593Z" fill="url(#LinearGradient_2)" fill-rule="nonzero" opacity="1" stroke="none"/>
</g>
</svg>
