<?xml version="1.0" encoding="UTF-8" standalone="no"?>
<!DOCTYPE svg PUBLIC "-//W3C//DTD SVG 1.1//EN" "http://www.w3.org/Graphics/SVG/1.1/DTD/svg11.dtd">
<!-- Created with Vectornator (http://vectornator.io/) -->
<svg height="1024.0pt" stroke-miterlimit="10" style="fill-rule:nonzero;clip-rule:evenodd;stroke-linecap:round;stroke-linejoin:round;" version="1.1" viewBox="0 0 1024 1024" width="1024.0pt" xml:space="preserve" xmlns="http://www.w3.org/2000/svg" xmlns:xlink="http://www.w3.org/1999/xlink">
<defs/>
<g id="layer1">
<g opacity="0">
<path d="M112.162 332.93C111.457 332.896 110.75 332.911 110.046 332.975C102.265 333.692 96.3112 340.218 96.3114 348.03L126.548 348.03L126.436 346.194C125.542 338.889 119.515 333.289 112.162 332.93L112.162 332.93Z" fill="#008ae2" fill-rule="nonzero" opacity="1" stroke="none"/>
<path d="M109.774 428.491C110.479 428.525 111.186 428.51 111.89 428.446C119.671 427.729 125.625 421.203 125.625 413.391L95.3885 413.391L95.4998 415.227C96.3939 422.532 102.42 428.132 109.774 428.491Z" fill="#008ae2" fill-rule="nonzero" opacity="1" stroke="none"/>
<path d="M95.4913 351.049L125.728 351.049L125.728 351.049L125.728 411.563L125.728 411.563L95.4913 411.563L95.4913 411.563L95.4913 351.049L95.4913 351.049Z" fill="#008ae2" fill-rule="nonzero" opacity="1" stroke="none"/>
</g>
<g opacity="1">
<path d="M519.87 234.02C473.873 234.878 428.599 263.003 414.504 317.826C411.064 331.202 410.299 685.727 413.681 699.117C426.423 749.578 463.197 780.715 519.835 788.997C569.933 796.323 619.53 763.345 660.649 695.368C670.322 679.375 668.449 679.735 681.639 691.325C717.665 722.981 757.401 744.092 795.198 751.657C800.293 752.677 804.756 753.693 805.117 753.914C807.33 755.271 833.824 756.339 844.121 755.485C985.94 743.731 1014.99 546.28 881.248 503.155C821.937 484.03 751.634 509.741 686.383 574.421C678.244 582.488 671.367 588.873 671.102 588.61C668.276 585.808 651.732 551.386 647.629 539.771C633.679 500.288 632.938 493.345 632.389 396.865C631.959 321.409 631.959 321.41 629.579 313.814C612.586 259.572 565.867 233.162 519.87 234.02ZM518.067 285.025C543.247 285.161 568.576 302.189 571.836 334.237C572.4 339.78 572.729 368.685 572.664 406.551C572.532 482.32 573.542 497.437 580.631 525.908C587.627 554.006 606.748 596.644 623.829 622.234C630.473 632.188 632.156 627.695 608.691 662.59C575.349 712.172 562.401 724.233 538.441 728.02C503.784 733.498 473.341 712.254 466.175 677.592C463.474 664.527 464.255 336.664 467.014 325.405C473.745 297.937 495.848 284.905 518.067 285.025ZM845.218 552.496C849.642 552.701 853.921 553.331 858.056 554.385C935.311 574.069 922.14 689.371 841.649 698.027C833.16 698.94 824.822 699.071 820.136 698.366C792.35 694.185 759.238 678.604 732.061 656.923C721.928 648.84 705.347 634.203 705.63 633.591C705.92 632.963 723.893 616.099 729.476 611.217C776.105 570.438 814.249 551.057 845.218 552.496Z" fill="#008ae2" fill-rule="nonzero" opacity="1" stroke="none"/>
<path d="M677.283 551.984C656.782 517.268 651.393 462.565 663.747 414.576C688.807 317.228 793.735 243.111 918.225 234.823C935.905 233.646 933.884 231.656 939.111 255.386C959.419 347.57 941.319 429.959 889.919 479.305C884.315 484.684 885.111 484.595 872.57 481.251C828.941 469.619 776.83 481.534 725.26 514.934C717.118 520.207 717.064 520.083 720.578 504.061C732.54 449.514 756.443 403.778 799.533 352.986C813.395 336.645 813.331 336.458 798.248 349.195C745.976 393.34 714.49 440.861 693.012 508.021C690.701 515.248 682.075 550.156 682.067 552.314C682.054 556.04 679.578 555.869 677.283 551.983L677.283 551.984Z" fill="#4caf50" fill-rule="nonzero" opacity="1" stroke="none"/>
<path d="M86.5 512C86.5 520.106 80.0593 526.746 71.9566 526.993C63.8539 527.24 57.0211 521.004 56.5278 512.913C56.0345 504.821 62.0592 497.802 70.1319 497.062C78.2046 496.323 85.4042 502.131 86.3889 510.178" fill="#4caf50" fill-rule="nonzero" opacity="1" stroke="none"/>
<path d="M296.425 406.015C295.538 405.986 294.65 405.999 293.766 406.053C283.99 406.663 276.51 412.209 276.51 418.848L276.5 418.848L276.5 418.944L276.5 605.151C276.499 605.412 276.511 605.673 276.534 605.933C277.159 612.864 285.814 618.206 296.078 617.994C306.342 617.783 314.5 612.095 314.5 605.151L314.5 418.848L314.358 417.288C313.234 411.079 305.662 406.32 296.424 406.015L296.425 406.015Z" fill="#008ae2" fill-rule="nonzero" opacity="1" stroke="none"/>
<path d="M252.5 465C252.5 474.728 244.771 482.695 235.048 482.992C225.325 483.288 217.125 475.805 216.533 466.095C215.941 456.385 223.171 447.962 232.858 447.075C242.546 446.188 251.185 453.158 252.367 462.813" fill="#4caf50" fill-rule="nonzero" opacity="1" stroke="none"/>
<path d="M235.373 488.529C234.534 488.495 233.692 488.51 232.855 488.575C224.415 489.232 217.66 494.78 216.633 501.898L216.5 501.898L216.5 561.72L216.5 562.876L216.584 562.876L216.633 563.57C217.697 570.932 224.874 576.574 233.629 576.935C234.469 576.97 235.31 576.955 236.148 576.89C244.894 576.208 251.783 570.286 252.449 562.875L252.5 562.875L252.5 561.72L252.5 501.898L252.368 501.898L252.368 501.894C251.303 494.534 244.128 488.891 235.373 488.529Z" fill="#008ae2" fill-rule="nonzero" opacity="1" stroke="none"/>
<path d="M179.325 471.517C178.532 471.485 177.737 471.499 176.946 471.558C168.975 472.16 162.595 477.241 161.625 483.76L161.5 483.76L161.5 538.549L161.5 539.607L161.579 539.607L161.625 540.243C162.631 546.985 169.408 552.153 177.677 552.483C178.471 552.515 179.265 552.501 180.056 552.442C188.317 551.817 194.823 546.394 195.452 539.607L195.5 539.607L195.5 538.549L195.5 483.761L195.375 483.761L195.375 483.757C194.369 477.016 187.593 471.848 179.325 471.517L179.325 471.517Z" fill="#008ae2" fill-rule="nonzero" opacity="1" stroke="none"/>
<path d="M362.42 340.518C361.485 340.483 360.549 340.499 359.618 340.564C349.829 341.256 342.149 347.292 341.5 354.801L341.5 354.801L341.5 355.809C341.5 355.81 341.5 355.811 341.5 355.811L341.5 668.187L341.5 668.396L341.5 668.396L341.651 670.046C342.833 677.445 350.804 683.118 360.53 683.482C361.464 683.517 362.4 683.501 363.331 683.436C373.52 682.717 381.356 676.228 381.495 668.396L381.499 668.396L381.499 668.188L381.499 354.8L381.398 354.8L381.348 353.952C380.165 346.553 372.194 340.882 362.469 340.518L362.42 340.518Z" fill="#008ae2" fill-rule="nonzero" opacity="1" stroke="none"/>
<path d="M123.274 487.016C122.528 486.985 121.78 486.999 121.036 487.056C112.985 487.678 106.752 493.243 106.506 500.027L106.5 500.027L106.5 500.424C106.5 500.428 106.5 500.432 106.5 500.435L106.5 523.564L106.5 524.227L106.548 524.227L106.618 525.195C107.563 531.687 113.941 536.665 121.724 536.984C122.47 537.015 123.218 537.001 123.962 536.944C131.898 536.33 138.087 530.909 138.479 524.227L138.5 524.227L138.5 523.566L138.5 500.028L138.471 500.028L138.382 498.804C137.436 492.312 131.057 487.335 123.274 487.017L123.274 487.016Z" fill="#008ae2" fill-rule="nonzero" opacity="1" stroke="none"/>
</g>
<path d="M0 512L1000 512L1000 512L1000 513.063L1000 513.063L0 513.063L0 513.063L0 512L0 512Z" fill="#008ae2" fill-rule="nonzero" opacity="0" stroke="none"/>
</g>
</svg>
