<?xml version="1.0" encoding="UTF-8" standalone="no"?>
<!DOCTYPE svg PUBLIC "-//W3C//DTD SVG 1.1//EN" "http://www.w3.org/Graphics/SVG/1.1/DTD/svg11.dtd">
<!-- Created with Vectornator (http://vectornator.io/) -->
<svg height="194.135pt" stroke-miterlimit="10" style="fill-rule:nonzero;clip-rule:evenodd;stroke-linecap:round;stroke-linejoin:round;" version="1.1" viewBox="0 0 887.306 194.135" width="887.306pt" xml:space="preserve" xmlns="http://www.w3.org/2000/svg" xmlns:xlink="http://www.w3.org/1999/xlink">
<defs/>
<clipPath id="ArtboardFrame">
<rect height="194.135" width="887.306" x="0" y="0"/>
</clipPath>
<g clip-path="url(#ArtboardFrame)" id="Layer">
<g opacity="1">
<path d="M798.497 2.66799C801.83 4.42309 803.519 5.46149 805.264 8.58229C805.264 9.94009 805.264 11.2978 805.264 12.6967C806.236 12.6932 806.236 12.6932 807.228 12.6897C814.057 12.6668 820.885 12.6514 827.714 12.6402C830.252 12.635 832.791 12.6281 835.329 12.6191C875.17 12.4818 875.17 12.4818 882.288 15.7824C885.214 19.4682 885.89 22.3188 885.567 26.7755C885.062 29.6903 884.751 30.9494 882.706 33.2684C875.11 36.2154 866.365 35.4596 858.292 35.426C856.302 35.4238 856.302 35.4238 854.271 35.4216C850.052 35.4159 845.832 35.403 841.613 35.3899C838.745 35.3847 835.876 35.38 833.008 35.3758C825.992 35.3645 818.977 35.3467 811.962 35.3256C811.962 38.7199 811.962 42.1142 811.962 45.6114C813.121 45.6061 814.28 45.6007 815.474 45.5951C819.822 45.5763 824.17 45.5646 828.518 45.5549C830.391 45.5498 832.264 45.5428 834.137 45.5338C863.734 45.3958 863.734 45.3958 870.009 50.7544C873.156 56.245 873.805 60.4874 873.567 66.6332C873.552 67.3856 873.536 68.1381 873.521 68.9134C873.482 70.7465 873.422 72.5793 873.357 74.4119C874.044 74.388 874.73 74.3641 875.437 74.3395C876.34 74.321 877.242 74.3024 878.171 74.2833C879.512 74.2475 879.512 74.2475 880.879 74.211C883.404 74.4119 883.404 74.4119 886.753 76.469C887.237 79.4503 887.237 79.4503 887.241 83.0267C887.263 84.2007 887.284 85.3757 887.307 86.5857C886.753 89.8407 886.753 89.8407 885.048 92.3237C881.015 94.7067 878.093 94.2457 873.357 93.9547C873.396 95.1457 873.435 96.3367 873.475 97.5627C873.507 99.1457 873.537 100.73 873.567 102.313C873.595 103.095 873.623 103.877 873.652 104.683C873.724 109.839 872.876 113.05 870.009 117.613C869.756 119.814 869.756 119.814 871.757 121.418C872.492 122.093 873.228 122.768 873.985 123.463C876.87 126.468 877.765 127.405 878.241 131.499C874.45 140.391 866.824 144.93 858.261 149.845C855.4 151.312 855.4 151.312 854.381 153.613C855.716 153.974 857.051 154.335 858.427 154.706C863.279 156.211 867.91 158.065 872.52 160.106C873.815 160.675 875.11 161.244 876.445 161.83C880.738 164.291 882.802 166.221 885.636 170.071C886.616 173.946 886.451 177.482 885.636 181.385C882.86 184.642 880.797 185.281 876.567 186.528C853.508 186.528 830.846 164.774 815.675 150.872C815.186 150.419 814.698 149.966 814.194 149.499C814.161 150.556 814.161 150.556 814.127 151.635C814.02 154.866 813.898 158.097 813.776 161.328C813.741 162.436 813.707 163.545 813.671 164.687C812.986 181.934 812.986 181.934 805.264 188.585C797.613 192.001 790.722 192.139 782.311 192.057C781.085 192.069 779.86 192.081 778.598 192.093C771.78 192.07 766.576 191.745 760.613 188.585C758.903 185.433 759.241 182.808 759.497 179.328C760.683 176.435 760.683 176.435 762.846 174.185C768.935 171.895 775.304 171.559 781.822 171.099C782.895 168.135 783.057 166.267 783.008 163.192C782.998 162.361 782.988 161.529 782.978 160.673C782.965 160.04 782.952 159.408 782.939 158.756C782.271 159.626 781.603 160.496 780.915 161.392C770.134 173.175 747.525 181.633 731.59 185.5C725.608 185.911 722.919 184.848 718.194 181.385C715.88 178.186 715.656 177.383 715.683 173.735C715.674 172.56 715.674 172.56 715.665 171.36C716.02 168.589 716.382 167.19 718.194 164.928C720.811 163.581 723.252 162.496 726.008 161.456C726.786 161.152 727.564 160.847 728.365 160.534C736.187 157.541 744.205 155.119 752.271 152.754C755.915 151.923 755.915 151.923 757.264 150.528C756.255 149.907 755.247 149.287 754.207 148.647C752.877 147.817 751.547 146.987 750.218 146.156C749.554 145.749 748.889 145.342 748.205 144.923C744.613 142.667 741.599 140.653 739.404 137.156C738.786 132.686 738.857 130.696 741.636 126.934C742.373 126.234 743.11 125.534 743.869 124.813C743.208 124.724 742.548 124.635 741.867 124.544C735.746 123.541 732.06 122.452 728.241 117.613C726.823 113.776 726.967 111.921 728.241 108.034C730.473 105.27 730.473 105.27 733.639 104.611C739.858 103.991 746.133 103.952 752.38 103.791C768.624 103.909 768.624 103.909 784.055 100.127C783.687 99.1087 783.318 98.0897 782.939 97.0407C772.119 94.5077 761.105 94.3107 750.014 93.8477C747.507 93.7407 745.001 93.6227 742.495 93.5047C741.74 93.4767 740.986 93.4487 740.208 93.4207C735.122 93.1787 730.792 92.3947 726.008 90.8697C723.847 88.4447 723.78 86.7977 723.427 83.6687C723.816 80.2227 724.49 78.8964 727.125 76.469C738.791 72.8858 752.566 74.2923 764.729 74.3476C766.717 74.3528 768.705 74.3574 770.692 74.3616C775.519 74.3729 780.345 74.3906 785.171 74.4119C785.171 71.357 785.171 68.3021 785.171 65.1546C783.78 65.1654 782.389 65.1761 780.956 65.1872C775.786 65.2245 770.617 65.2481 765.447 65.2676C763.211 65.2779 760.975 65.292 758.739 65.3098C755.522 65.3348 752.305 65.3464 749.088 65.3555C748.092 65.3661 747.095 65.3767 746.068 65.3877C741.175 65.3885 737.08 65.3885 732.706 63.0974C730.756 59.5033 730.972 55.7047 731.59 51.783C733.683 48.6972 733.683 48.6972 737.171 46.64C746.924 44.6824 757.51 45.495 767.45 45.5472C769.174 45.5523 770.898 45.557 772.622 45.5612C776.805 45.5724 780.988 45.5901 785.171 45.6114C784.796 43.0782 784.796 43.0782 784.055 40.4685C776.854 36.5652 767.497 37.2397 759.396 37.2823C758.342 37.2838 757.288 37.2852 756.201 37.2867C752.858 37.2924 749.515 37.3053 746.171 37.3185C743.894 37.3236 741.617 37.3283 739.34 37.3325C733.78 37.3438 728.22 37.3616 722.659 37.3828C721.781 45.7974 721.357 54.1402 721.268 62.5912C721.232 65.0541 721.195 67.5171 721.157 69.9801C721.105 73.7792 721.055 77.5783 721.011 81.3777C720.644 111.446 719.218 141.395 710.45 170.521C710.195 171.378 709.94 172.236 709.677 173.12C707.467 180.024 704.792 187.561 698.101 191.671C692.704 192.264 687.551 192.302 682.473 190.45C678.591 187.208 677.023 184.879 676.578 180.003C676.687 173.645 678.807 167.62 680.59 161.521C688.398 133.527 689.807 105.851 690.841 77.0677C690.888 75.7681 690.935 74.4685 690.984 73.1295C691.219 66.5927 691.441 60.0559 691.644 53.5182C691.726 51.0688 691.809 48.6194 691.892 46.1699C691.922 45.0674 691.952 43.9649 691.983 42.829C692.712 22.1713 692.712 22.1713 696.872 17.534C708.278 9.01609 733.078 12.4072 747.285 12.2062C750.065 12.1653 752.845 12.1124 755.625 12.0578C756.46 12.0492 757.295 12.0405 758.155 12.0316C763.433 11.9179 767.918 11.2967 772.892 9.61089C774.063 7.92779 775.179 6.21159 776.241 4.46799C782.799 0.193891 791.097 0.0389908 798.497 2.66799ZM811.962 65.1546C811.962 68.2095 811.962 71.2644 811.962 74.4119C823.75 74.4119 835.538 74.4119 847.683 74.4119C847.683 71.357 847.683 68.3021 847.683 65.1546C835.895 65.1546 824.107 65.1546 811.962 65.1546ZM811.962 93.9547C811.962 97.3497 811.962 100.744 811.962 104.241C823.75 104.241 835.538 104.241 847.683 104.241C847.683 100.847 847.683 97.4527 847.683 93.9547C835.895 93.9547 824.107 93.9547 811.962 93.9547ZM817.543 122.756C823.956 131.189 823.956 131.189 832.822 136.256C841.073 135.969 848.49 129.812 854.381 124.813C854.381 124.473 854.381 124.134 854.381 123.784C842.224 123.445 830.068 123.105 817.543 122.756ZM755.032 123.784C757.627 126.176 759.886 127.916 762.846 129.827C766.429 132.292 768.959 134.267 770.66 138.185C770.969 141.751 770.773 144.041 769.543 147.442C770.31 147.48 771.077 147.519 771.867 147.558C772.873 147.626 773.879 147.694 774.915 147.763C775.913 147.823 776.91 147.883 777.937 147.944C781.048 148.535 782.092 149.315 784.055 151.556C785.488 150.466 785.488 150.466 785.298 147.956C785.289 146.283 785.289 146.283 785.28 144.577C785.277 143.494 785.275 142.41 785.272 141.294C785.262 139.907 785.251 138.521 785.241 137.092C785.218 132.7 785.195 128.309 785.171 123.784C775.225 123.784 765.279 123.784 755.032 123.784Z" fill="#008ae2" fill-opacity="0.933333" fill-rule="nonzero" opacity="1" stroke="none"/>
<path d="M370.117 1.38219C375.78 3.84879 377.799 6.42439 380.164 11.6681C380.703 15.17 381.056 18.5986 381.276 22.1247C381.651 25.9922 382.289 27.9993 384.917 31.0786C389.914 34.6534 394.161 35.573 400.423 35.868C401.729 35.9403 403.036 36.0125 404.382 36.087C407.112 36.2218 409.841 36.3531 412.571 36.4807C427.876 37.3408 427.876 37.3408 433.606 42.2685C436.174 47.0008 436.365 50.5946 434.722 55.6402C432.108 59.8161 429.433 61.3721 424.475 62.8202C412.413 64.7965 400.185 64.3118 387.978 64.126C400.256 88.7847 412.924 112.644 428.744 135.585C443.407 156.892 443.407 156.892 442.676 163.899C441.01 167.303 439.582 169.398 435.952 171.18C430.473 173.075 426.09 173.653 420.35 172.128C415.788 169.214 412.617 165.739 409.466 161.585C408.987 160.958 408.509 160.33 408.015 159.684C395.617 143.132 387.375 125.194 380.164 106.298C380.166 107.05 380.169 107.802 380.172 108.577C380.194 115.731 380.211 122.886 380.222 130.041C380.228 133.718 380.235 137.395 380.248 141.071C380.261 144.633 380.267 148.194 380.27 151.755C380.273 153.746 380.282 155.737 380.29 157.728C380.291 164.292 380.147 170.834 379.739 177.387C379.662 178.622 379.585 179.857 379.506 181.129C378.89 185.617 377.796 188.569 374.583 191.992C368.92 194.928 362.948 194.461 356.792 192.892C352.954 190.856 351.437 189.403 350.024 185.5C348.173 169.461 348.782 153.192 348.838 137.092C348.845 134.297 348.849 131.503 348.854 128.708C348.866 121.924 348.884 115.14 348.908 108.356C348.599 109.049 348.29 109.742 347.972 110.456C346.544 113.655 345.11 116.851 343.676 120.048C343.19 121.138 342.704 122.228 342.204 123.351C322.418 167.361 322.418 167.361 307.606 174.185C302.012 174.751 297.674 174.763 292.606 172.385C289.363 169.761 286.846 167.639 285.795 163.702C285.473 155.535 289.092 150.784 294.21 144.356C313.88 119.453 325.641 91.9637 336.629 63.0974C335.853 63.1136 335.076 63.1297 334.276 63.1464C330.735 63.2108 327.194 63.2508 323.652 63.2903C322.431 63.3161 321.209 63.342 319.95 63.3686C308.574 63.4639 308.574 63.4639 303.141 60.0117C299.862 56.6786 298.788 53.9068 298.327 49.4044C298.744 44.8651 299.935 42.8727 303.141 39.4399C307.154 37.6049 310.649 37.0679 315.097 36.8403C316.303 36.7681 317.509 36.6958 318.751 36.6214C321.265 36.4866 323.78 36.3553 326.295 36.2276C337.327 35.762 337.327 35.762 346.266 30.3695C347.95 27.8926 348.343 26.293 348.655 23.4044C348.77 22.5127 348.885 21.6211 349.004 20.7024C349.219 18.8415 349.425 16.9799 349.623 15.1175C350.236 10.4835 350.645 8.11899 353.905 4.39969C359.125 0.714191 363.684 0.735691 370.117 1.38219Z" fill="#008ae2" fill-opacity="0.933333" fill-rule="nonzero" opacity="1" stroke="none"/>
<path d="M81.0764 48.7615C85.0297 51.3282 86.4367 53.7236 87.4947 57.9545C88.8117 67.7083 88.8127 77.5639 88.9017 87.3777C88.9257 89.9907 88.9557 92.6037 88.9877 95.2167C89.0647 101.694 89.1317 108.172 89.1987 114.65C89.2557 120.154 89.3167 125.657 89.3837 131.161C89.4127 133.724 89.4367 136.288 89.4597 138.851C89.4777 140.429 89.4967 142.008 89.5157 143.586C89.5227 144.641 89.5227 144.641 89.5307 145.717C89.5917 150.14 89.9407 154.409 90.8437 158.756C97.8627 164.026 111.393 162.201 119.758 161.452C123.909 160.992 128.033 160.481 132.147 159.785C133.365 159.587 134.584 159.39 135.84 159.186C139.249 157.916 139.249 157.916 140.357 154.172C140.696 152.684 141.004 151.19 141.286 149.692C141.459 148.912 141.633 148.132 141.811 147.329C142.334 144.97 142.822 142.607 143.309 140.242C143.875 137.71 144.454 135.181 145.054 132.656C145.285 131.608 145.517 130.561 145.756 129.482C146.732 126.658 147.392 125.483 150.007 123.784C155.166 122.471 160.507 122.164 165.565 123.913C169.341 126.043 170.668 127.235 172.333 130.984C175.363 143.932 174.694 162.36 167.366 174.032C162.031 180.842 155.949 186.519 146.732 188.129C140.782 188.855 134.794 188.752 128.802 188.758C126.881 188.763 126.881 188.763 124.92 188.768C122.219 188.774 119.518 188.776 116.817 188.776C112.699 188.778 108.582 188.797 104.464 188.816C101.833 188.819 99.2007 188.821 96.5687 188.822C95.3457 188.83 94.1217 188.837 92.8617 188.845C81.7174 188.814 73.556 187.482 65.1694 180.357C50.5732 165.09 56.0615 134.043 56.0936 114.88C56.1 111.048 56.0963 107.216 56.0896 103.385C56.0856 100.38 56.0869 97.3757 56.0898 94.3717C56.0909 92.2877 56.0875 90.2037 56.0841 88.1187C56.161 59.6421 56.161 59.6421 61.8206 51.783C67.3025 46.8847 74.0087 46.6324 81.0764 48.7615Z" fill="#008ae2" fill-opacity="0.933333" fill-rule="nonzero" opacity="1" stroke="none"/>
<path d="M587.861 11.5187C588.842 11.5121 589.823 11.5055 590.834 11.4988C591.9 11.4976 592.966 11.4965 594.065 11.4953C595.167 11.4919 596.269 11.4885 597.405 11.4849C599.748 11.4797 602.091 11.4773 604.434 11.4775C607.974 11.4753 611.514 11.4567 615.054 11.4371C647.836 11.3513 647.836 11.3513 655.683 17.8396C662.161 23.9705 661.44 31.08 661.451 39.1426C661.457 40.5728 661.457 40.5728 661.463 42.0319C661.468 44.0427 661.471 46.0535 661.471 48.0644C661.473 51.1228 661.494 54.1809 661.515 57.2393C661.518 59.2 661.52 61.1608 661.521 63.1215C661.529 64.0272 661.537 64.9328 661.546 65.8659C661.518 72.7602 661.185 80.1597 656.031 85.5977C655.521 86.1677 655.01 86.7377 654.483 87.3257C647.704 92.0137 638.643 91.2007 630.601 91.2147C628.601 91.2247 628.601 91.2247 626.561 91.2357C623.75 91.2457 620.939 91.2507 618.128 91.2507C613.836 91.2547 609.546 91.2927 605.254 91.3317C602.517 91.3377 599.78 91.3417 597.043 91.3437C595.126 91.3657 595.126 91.3657 593.17 91.3877C585.948 91.3497 580.99 91.0717 575.31 86.7547C571.16 77.9839 572.735 65.5378 572.787 56.0266C572.799 53.3978 572.787 50.7696 572.772 48.1407C572.744 21.1104 572.744 21.1104 578.101 14.9467C581.66 12.077 583.266 11.5395 587.861 11.5187ZM603.217 35.3256C600.635 38.8947 600.71 40.2834 600.727 44.4904C600.73 45.6778 600.732 46.8652 600.734 48.0885C600.748 49.3289 600.761 50.5693 600.775 51.8473C600.776 53.0916 600.777 54.336 600.778 55.6181C600.477 61.5972 600.477 61.5972 602.101 67.2118C611.679 67.2118 621.256 67.2118 631.124 67.2118C633.536 62.7681 632.447 56.7924 632.45 51.9115C632.47 50.0639 632.47 50.0639 632.491 48.1789C632.494 46.9949 632.496 45.8108 632.498 44.5909C632.502 43.5051 632.507 42.4194 632.512 41.3007C632.24 38.4027 631.726 36.7153 630.008 34.297C622.446 31.324 610.667 32.4273 603.217 35.3256Z" fill="#008ae2" fill-opacity="0.933333" fill-rule="nonzero" opacity="1" stroke="none"/>
<path d="M39.4949 64.126C43.1122 66.7647 44.7365 68.3296 46.1926 72.3547C48.4625 97.1847 42.8608 132.556 27.2158 153.613C22.7375 157.222 18.7356 158.092 12.7739 158.021C8.07297 157.422 5.08277 154.699 1.68087 151.878C-2.03273 144.844 1.25557 136.197 3.42507 129.12C4.04507 127.011 4.66427 124.902 5.28267 122.792C5.59377 121.745 5.90497 120.697 6.22557 119.618C7.52277 115.231 8.77017 110.834 9.98317 106.427C10.2087 105.616 10.4342 104.804 10.6665 103.968C11.9919 99.0687 13.1063 94.1607 14.0952 89.1937C14.3296 88.0317 14.5641 86.8687 14.8057 85.6717C15.2555 83.3997 15.6861 81.1247 16.0947 78.8461C17.3233 72.626 18.2882 69.01 23.867 65.1546C28.8176 62.3669 34.0499 62.699 39.4949 64.126Z" fill="#008ae2" fill-opacity="0.933333" fill-rule="nonzero" opacity="1" stroke="none"/>
<path d="M181.891 58.4688C200.961 69.2825 209.134 104.407 214.59 122.908C216.206 129.403 216.36 134.938 213.286 141.142C211.17 143.597 210.192 144.493 206.937 145.385C200.459 145.874 195.904 145.476 190.193 142.299C184.249 135.16 181.633 126.845 178.561 118.415C173.901 105.64 169.163 92.9897 162.889 80.7937C160.523 76.071 159.448 72.5338 160.054 67.2118C164.75 58.5576 171.952 56.6819 181.891 58.4688Z" fill="#008ae2" fill-opacity="0.933333" fill-rule="nonzero" opacity="1" stroke="none"/>
<path d="M88.6117 6.52519C97.8237 8.52969 105.66 14.8143 113.17 19.8968C113.781 20.3085 114.392 20.7202 115.021 21.1443C140.701 38.5659 140.701 38.5659 143.309 45.6114C144.098 51.8587 144.187 57.9049 139.961 63.0974C135.109 66.1454 131.234 67.1444 125.449 66.1832C118.373 62.4693 112.488 57.4337 106.612 52.2973C100.122 46.6298 93.0097 42.5244 85.2627 38.4113C69.4341 29.8134 69.4341 29.8134 65.1694 21.954C64.5577 16.0916 65.6052 13.1438 69.6345 8.58229C75.3465 5.07349 81.9477 6.00619 88.6117 6.52519Z" fill="#008ae2" fill-opacity="0.933333" fill-rule="nonzero" opacity="1" stroke="none"/>
<path d="M278.379 114.527C282.913 117.776 285.148 120.638 286.193 125.842C286.082 133.837 284.143 140.738 281.031 148.149C280.631 149.126 280.231 150.103 279.819 151.109C278.618 154.01 277.39 156.899 276.147 159.785C275.797 160.6 275.448 161.416 275.088 162.256C265.379 184.604 265.379 184.604 256.054 189.614C252.884 190.024 252.884 190.024 249.426 190C248.288 190.008 247.149 190.016 245.977 190.024C241.083 189.419 238.131 187.734 235.054 184.214C232.914 179.649 232.993 176.264 234.67 171.521C237.481 165.003 241.016 158.929 244.709 152.812C248.566 146.222 251.341 139.298 254.056 132.252C256.968 124.81 259.939 119.17 267.217 114.527C271.509 113.209 273.989 113.551 278.379 114.527Z" fill="#008ae2" fill-opacity="0.933333" fill-rule="nonzero" opacity="1" stroke="none"/>
<path d="M268.612 9.79979C277.01 15.3406 290.22 26.9936 292.259 36.5711C292.27 42.5054 291.241 45.9882 287.31 50.7544C282.832 53.5349 279.281 54.5613 273.914 53.8401C269.04 51.1242 264.765 47.9395 260.589 44.39C260.007 43.8965 259.426 43.403 258.827 42.8946C251.671 36.6985 243.48 29.1615 242.24 19.8325C242.747 16.17 243.415 14.5047 246.007 11.6681C252.989 6.79279 260.786 6.00619 268.612 9.79979Z" fill="#008ae2" fill-opacity="0.933333" fill-rule="nonzero" opacity="1" stroke="none"/>
<path d="M259.403 60.0117C263.548 62.7217 267.013 65.9321 270.565 69.2689C271.389 69.9796 272.212 70.6903 273.06 71.4225C279.547 77.0853 285.246 82.4387 285.775 90.9977C285.565 94.4937 284.997 96.8007 282.705 99.6127C278.014 103.371 274.832 104.146 268.682 104.434C257.282 102.693 247.228 90.4897 240.426 82.6407C236.764 77.6623 235.2 73.2837 235.961 67.2118C236.996 63.777 238.002 63.2007 241.403 61.3617C247.586 58.9685 252.902 58.0337 259.403 60.0117Z" fill="#4caf50" fill-opacity="0.933333" fill-rule="nonzero" opacity="1" stroke="none"/>
<path d="M486.937 0.0313408C479.513 0.375156 474.267 4.48124 470.906 12.3126C468.349 18.4793 465.753 23.6597 461.031 28.7188C457.236 32.7446 455.637 35.0892 455.875 40.4688C458.108 43.5546 458.099 43.5626 460.75 45.8126C465.616 48.7351 465.611 48.7145 478.187 47.6563C480.636 46.5277 480.632 46.5295 483.625 43.0938C487.067 39.117 489.743 37.7003 495.187 36.7188C496.522 36.5467 497.83 36.3859 499.125 36.2188C501.45 35.9121 503.767 35.6038 506.094 35.3126C506.094 39.5092 506.094 43.5831 506.094 47.6563C493.283 47.4832 480.116 46.7314 467.469 48.9688C463.406 50.1474 461.408 51.5135 459.219 54.8751C458.649 58.6173 458.649 60.947 460.406 64.3751C466.128 69.1373 472.377 69.657 479.781 69.9063C480.921 69.9302 482.05 69.9456 483.156 69.9688C486.376 70.0684 489.591 70.1729 492.812 70.2501C493.536 70.2655 494.234 70.2976 494.937 70.3126C490.584 76.3297 484.67 80.2983 477.781 83.6563C471.641 86.6353 465.448 89.5728 460.344 93.9688C458.879 97.6978 458.87 97.6853 459.219 101.156C461.235 105.856 464.418 108.138 469.25 110.406C475.811 111.111 480.976 109.871 487.219 108C487.942 107.77 488.641 107.536 489.344 107.313C482.272 116.035 482.283 116.046 482.406 141.844C482.427 144.042 482.435 146.24 482.437 148.438C482.435 161.463 481.326 175.256 490.344 186.031C496.098 189.732 503.9 189.843 510.719 189.875C511.702 189.869 512.64 189.881 513.594 189.875C516.868 189.881 520.163 189.885 523.437 189.875C525.777 189.867 528.096 189.845 530.437 189.844C535.349 189.845 540.276 189.856 545.187 189.844C551.536 189.826 557.87 189.813 564.219 189.813C569.188 189.814 574.156 189.787 579.125 189.781C581.508 189.777 583.898 189.784 586.281 189.781C601.819 189.776 627.436 193.212 640.625 184.281C645.885 178.828 645.861 178.832 645.906 165.563C645.897 164.442 645.914 163.338 645.906 162.25C645.905 159.915 645.878 157.584 645.875 155.25C645.854 151.593 645.846 147.938 645.844 144.281C645.844 141.885 645.849 139.49 645.844 137.094C645.84 135.923 645.816 134.793 645.812 133.656C645.803 124.029 646.897 113.446 639.156 106.031C633.453 101.989 633.439 101.987 596.094 102.063C593.455 102.069 590.826 102.093 588.187 102.094C581.246 102.097 574.285 102.083 567.344 102.094C560.16 102.106 552.995 102.119 545.812 102.125C530.958 102.135 516.105 102.165 501.25 102.188C500.624 102.189 500.014 102.187 499.406 102.188C501.103 100.958 502.81 99.7323 504.531 98.5313C505.258 98.0253 505.951 97.5223 506.656 97.0313C509.343 95.0654 511.93 93.2773 515.031 91.9063C519.193 91.2803 522.788 91.3571 526.625 93.1251C531.112 95.9791 535.567 98.4311 540.719 100.125C546.858 100.751 554.011 101.403 559.25 97.8751C561.494 95.1481 561.833 93.2578 561.906 89.8438C559.052 84.9248 555.419 81.8393 550.719 78.3751C549.88 77.7713 549.065 77.1799 548.25 76.5938C545.894 74.8655 543.525 73.1518 541.156 71.4376C540.623 71.0535 540.112 70.6854 539.594 70.3126C542.3 70.1095 545.015 69.874 547.719 69.6563C548.85 69.5648 549.933 69.4951 551.031 69.4063C552.145 69.323 553.231 69.2372 554.312 69.1563C555.387 69.0675 556.426 68.9924 557.469 68.9063C561.332 68.6024 564.167 68.0583 567.5 66.1876C569.109 63.9783 569.694 62.391 570.031 59.7501C570.023 58.5509 570.009 58.5505 570 57.3751C570.027 53.7273 569.815 52.9176 567.5 49.7188C561.434 47.4326 554.675 47.4584 548.219 47.5001C546.637 47.5265 546.645 47.5055 545.094 47.5313C542.06 47.5576 539.034 47.5818 536 47.6251C534.994 47.6416 534.986 47.6402 534 47.6563C534.301 44.1696 534.31 44.1822 535.125 40.4688C536.998 37.7317 538.186 37.4607 541.625 36.7188C543.488 36.5098 543.486 36.4861 545.312 36.2813C546.642 36.1132 547.928 35.9444 549.219 35.7813C553.194 35.2847 557.102 34.7844 561 33.9063C564.305 32.8891 565.721 31.9359 567.5 29.1563C568.238 24.2852 568.252 20.9622 565.25 16.8126C558.372 12.4767 558.38 12.4811 526.031 12.6251C524.065 12.6341 522.091 12.6199 520.125 12.6251C515.557 12.6347 511.006 12.6688 506.437 12.6876C504.578 12.6959 504.572 12.6795 502.75 12.6876C502.89 9.79469 502.89 9.80994 502.75 6.53134C500.453 3.35704 498.877 2.33909 495.094 0.937591C492.121 0.214066 489.412-0.0832642 486.937 0.0313408ZM595.812 121.781C604.024 121.766 611.938 122.561 615.5 125.844C615.5 128.202 615.5 130.481 615.5 132.781L615.5 137.156L615.5 155.656C615.5 156.568 615.5 157.446 615.5 158.344C615.5 160.547 615.5 162.767 615.5 164.938C611.937 168.221 606.937 168.269 602.187 168.313C601.31 168.31 600.476 168.284 599.625 168.281C596.736 168.298 593.825 168.314 590.937 168.313C588.873 168.312 586.814 168.34 584.75 168.344C580.445 168.354 576.15 168.348 571.844 168.344C566.245 168.337 560.63 168.321 555.031 168.344C550.66 168.363 546.308 168.375 541.937 168.375C539.854 168.373 537.771 168.375 535.687 168.375C532.687 168.39 529.686 168.414 526.687 168.406C525.754 168.402 524.843 168.409 523.937 168.406C522.627 168.418 522.628 168.395 521.344 168.406C516.39 168.361 515.364 168.325 511.687 164.938C511.687 162.701 511.687 160.519 511.687 158.344L511.5 158.344L511.5 134.094C511.017 128.223 511.119 126.582 512.812 123.781C526.243 122.584 526.228 122.599 539.75 122.625C541.09 122.627 542.387 122.623 543.687 122.625C546.552 122.623 549.417 122.626 552.281 122.625C556.711 122.632 561.132 122.63 565.562 122.625C568.474 122.62 571.4 122.626 574.312 122.625C579.088 122.631 587.601 121.796 595.812 121.781Z" fill="#008ae2" fill-opacity="0.933333" fill-rule="nonzero" opacity="1" stroke="none"/>
<path d="M511.498 137.223L615.998 137.223L615.998 153.894L511.498 153.894L511.498 137.223Z" fill="#58b45c" fill-rule="nonzero" opacity="1" stroke="none"/>
</g>
</g>
</svg>
