<?xml version="1.0" encoding="UTF-8" standalone="no"?>
<!DOCTYPE svg PUBLIC "-//W3C//DTD SVG 1.1//EN" "http://www.w3.org/Graphics/SVG/1.1/DTD/svg11.dtd">
<!-- Created with Vectornator (http://vectornator.io/) -->
<svg height="1024.0pt" stroke-miterlimit="10" style="fill-rule:nonzero;clip-rule:evenodd;stroke-linecap:round;stroke-linejoin:round;" version="1.1" viewBox="0 0 1024 1024" width="1024.0pt" xml:space="preserve" xmlns="http://www.w3.org/2000/svg" xmlns:xlink="http://www.w3.org/1999/xlink">
<defs/>
<g id="图层-1">
<path d="M414.5 403C414.243 412.75 414.128 417.622 414 422.5C414.128 427.378 414.243 432.25 414.5 442C385 442 385 442 355.5 442C355.5 456 355.5 456 355.5 470C378 470 378 470 400.5 470C391.419 500.271 374.587 528.298 356.5 554C350.558 562.444 336.54 571.56 343.5 582C342.341 582.579 341.475 582.814 340.812 582.687C347.337 586.189 359.49 600.453 364.5 596C385.751 577.11 405.738 538.046 412.5 511C413.5 511 413.5 511 414.5 511C414.5 567 414.5 567 414.5 623C430 623 430 623 445.5 623C445.833 588 445.528 552.988 446.5 518C446.533 516.799 447.833 516 448.5 515C460.65 541.73 473.583 574.544 495.5 595C501.796 600.876 521.195 579.215 519.5 573C516.751 562.92 498.458 544.536 493.5 537C479.435 515.622 468.682 493.419 458.5 470C483 470 483 470 507.5 470C507.5 455.5 507.5 455.5 507.5 441C476.5 441 476.5 441 445.5 441C445.5 422 445.5 422 445.5 403C430 403 430 403 414.5 403ZM311.844 404.781C311.739 404.878 311.6 404.888 311.5 405C306.777 410.314 298.434 419.69 299.469 425.625C299.505 424.494 299.761 423.307 300.5 422C303.881 416.018 307.138 409.773 311.844 404.781ZM339.5 580C339.5 581 339.5 581 339.5 582C339.728 582.076 340.033 582.291 340.281 582.406C339.808 582.026 339.5 581.329 339.5 580Z" fill="#040404" fill-rule="nonzero" opacity="1" stroke="none"/>
<path d="M109.5 426C125.5 426 125.5 426 141.5 426C141.833 477.667 141.209 529.348 142.5 581C142.563 583.538 145.5 585.461 145.5 588C161.026 591.881 177.528 589.998 193.5 589C202.951 588.409 202.673 560.205 203.5 554C214.158 554 224.224 555.064 234.5 558C232.917 576.993 233.009 620.253 203.5 621C179.508 621.607 155.439 622.71 131.5 621C121.631 620.295 116.814 612.19 112.5 605C110.564 601.773 109.521 596.575 109.5 593C109.18 537.334 109.5 481.667 109.5 426Z" fill="#030303" fill-rule="nonzero" opacity="1" stroke="none"/>
<path d="M66.5 465C68.4469 465 98.2754 463.732 98.5 468C100.271 501.642 90.8091 555.382 75.5 586C64.6259 584.641 54.6727 581.069 44.5 577C52.8379 539.479 62.2328 503.404 66.5 465Z" fill="#050405" fill-rule="nonzero" opacity="1" stroke="none"/>
<path d="M281.5 568C270.762 571.304 260.582 576.417 249.5 578C242.103 548.41 233.105 519.256 224.5 490C223.46 486.465 214.871 469.976 219.5 467C221.388 465.786 243.967 454.908 247.5 458C253.483 463.235 254.874 478.386 257.5 486C264.92 507.517 281.5 546.483 281.5 568Z" fill="#050505" fill-rule="nonzero" opacity="1" stroke="none"/>
<path d="M207.5 496C197.906 498.878 187.309 505 177.5 505C171.19 482.563 164.632 460.189 157.5 438C154.852 429.761 150.5 421.654 150.5 413C152.922 412.128 177.486 400.178 180.5 405C189.915 420.064 207.5 479.274 207.5 496Z" fill="#050405" fill-rule="nonzero" opacity="1" stroke="none"/>
<path d="M320.5 522C331.108 523.515 335.415 523.67 347.5 530C354.393 533.611 345.664 545.525 343.5 553C336.806 576.123 328.432 598.669 319.5 621C278.732 614.205 291.522 607.717 301.5 580C307.148 564.311 315.01 539.255 320.5 522Z" fill="#060405" fill-rule="nonzero" opacity="1" stroke="none"/>
<path d="M302.5 459C309.854 460.05 348.166 483.334 346.5 488C343.515 496.359 336.423 502.615 331.5 510C323.002 506.601 316.009 500.234 308.5 495C290.8 482.664 285.505 483.85 302.5 459Z" fill="#080707" fill-rule="nonzero" opacity="1" stroke="none"/>
<path d="M312.5 404C323.916 400.441 336.201 416.69 345.5 423C351.084 426.789 358.724 427.758 354.5 435C350.633 441.628 346.617 448.281 341.5 454C336.62 459.454 328.511 447.174 322.5 443C315.59 438.201 308.406 433.804 301.5 429C294.026 423.801 303.808 406.71 312.5 404Z" fill="#090808" fill-rule="nonzero" opacity="1" stroke="none"/>
<path d="M555.5 400C550.362 411.132 531.084 433.668 532.5 445C533.177 450.417 550.524 455.986 555.5 453C560.109 450.235 558.37 440.603 563.5 439C567.954 437.608 572.833 439 577.5 439C577.5 447 577.5 447 577.5 455C554.5 455 554.5 455 531.5 455C531.5 466.5 531.5 466.5 531.5 478C549.5 478 549.5 478 567.5 478C560.732 486.121 560.418 487.201 549.5 495C542.569 499.951 531.882 500.696 527.5 508C525.293 511.678 534.477 534.809 541.5 532C554.379 526.848 568.327 518.288 578.5 509C583.229 504.682 588.114 493.537 593.5 497C603.66 503.531 613.955 510.568 621.5 520C596.464 520 554.935 512.438 553.5 533C551.714 558.604 552.293 584.362 553.5 610C553.637 612.915 558.028 620.914 562.5 621C613.158 621.968 663.834 621.327 714.5 621C718.138 620.976 724.36 613.873 724.5 611C725.734 585.697 725.11 560.326 724.5 535C724.442 532.574 723.846 530.019 722.5 528C721.376 526.315 713.165 520.088 710.5 520C682.182 519.066 653.833 520 625.5 520C643.687 489.081 636.991 496.995 605.5 479C622.5 478.5 622.5 478.5 639.5 478C639.5 466.5 639.5 466.5 639.5 455C622 455 622 455 604.5 455C604.5 447 604.5 447 604.5 439C621 439 621 439 637.5 439C637.5 427.5 637.5 427.5 637.5 416C608.5 416 608.5 416 579.5 416C581.967 407.366 581.024 411.38 582.5 404C573.54 402.419 564.553 400.905 555.5 400ZM688 412.969C677.489 412.914 666.97 413.206 656.5 414C650.002 414.493 645.682 419.891 645.5 427C644.893 450.659 644.877 474.341 645.5 498C645.567 500.543 649.918 507.83 652.5 508C676.116 509.554 699.842 508.631 723.5 508C728.744 507.86 735.28 499.233 735.5 495C736.693 472.031 735.824 448.998 735.5 426C735.49 425.255 734.947 424.596 734.5 424C730.394 418.525 727.515 414.439 719.5 414C709.016 413.425 698.511 413.023 688 412.969ZM675.5 440C691.5 440 691.5 440 707.5 440C707.5 460.5 707.5 460.5 707.5 481C691.5 481 691.5 481 675.5 481C675.5 460.5 675.5 460.5 675.5 440ZM584.5 544C639.5 544 639.5 544 694.5 544C694.5 552 694.5 552 694.5 560C639.5 560 639.5 560 584.5 560C584.5 552 584.5 552 584.5 544ZM583.5 581C639 581 639 581 694.5 581C694.5 588.5 694.5 588.5 694.5 596C639 596 639 596 583.5 596C583.5 588.5 583.5 588.5 583.5 581Z" fill="#020202" fill-rule="nonzero" opacity="1" stroke="none"/>
<path d="M893.5 400C882.452 400 872.223 401.319 861.5 404C861.5 413.374 860.853 409.413 862.5 416C838.167 416 813.816 415.088 789.5 416C785.977 416.132 778.43 421.368 776.5 424C774.296 427.005 771.725 430.28 771.5 434C769.705 463.614 771.695 493.355 770.5 523C769.563 546.25 765.011 567.301 757.5 589C757.11 590.128 746.463 609.412 750.5 613C753.903 616.024 771.997 625.456 776.5 623C778.859 621.713 779.423 618.462 780.5 616C792.083 589.525 798.89 560.976 800.5 532C801.018 522.681 800.5 513.333 800.5 504C835 504 835 504 869.5 504C869.5 509.5 869.5 509.5 869.5 515C841.5 515 841.5 515 813.5 515C813.5 525 813.5 525 813.5 535C841 535 841 535 868.5 535C868 549 868 549 867.5 563C866.659 562.159 865.829 561.573 865 561.156C864.814 561.064 864.624 561.043 864.438 560.969C863.801 560.714 863.167 560.522 862.531 560.469C862.035 560.416 861.53 560.489 861.031 560.531C860.846 560.555 860.654 560.526 860.469 560.562C855.698 561.274 850.87 565.706 846.5 568C829.719 576.81 812.312 584.523 794.5 591C794.5 642.702 849.769 593.66 869.5 580C868.965 587.489 865.5 593.603 865.5 599C855 599 855 599 844.5 599C844.5 607.393 845.953 615.751 847.5 624C893.8 624 897.462 624.423 901.5 580C916.988 592.584 931.604 603.052 949.5 612C952.422 613.461 965.951 621.966 969.5 618C976.738 609.91 977.729 602.853 979.5 594C969.442 590.408 936.5 579.81 936.5 572C942.206 572 938.986 572.343 948.5 566C966.855 553.763 974.478 553.606 955.5 537C948.766 531.108 921.624 560.749 914.5 556C906.058 550.372 903.659 543.318 899.5 535C916.167 535 932.836 535.32 949.5 535C962.721 534.746 960.5 510.485 960.5 505C969.5 505 969.5 505 978.5 505C978.5 494.5 978.5 494.5 978.5 484C969.5 484 969.5 484 960.5 484C960.5 476.429 964.027 453.832 948.5 453C931.857 452.108 915.167 453 898.5 453C898.5 447.5 898.5 447.5 898.5 442C936.5 442 936.5 442 974.5 442C974.5 429 974.5 429 974.5 416C936 415.5 936 415.5 897.5 415C895.5 407.5 895.5 407.5 893.5 400ZM801.5 442C835 442 835 442 868.5 442C868.5 447 868.5 447 868.5 452C841 452.5 841 452.5 813.5 453C813 463 813 463 812.5 473C841 473 841 473 869.5 473C869.5 478.5 869.5 478.5 869.5 484C835.5 484 835.5 484 801.5 484C801.5 463 801.5 463 801.5 442ZM898.5 473C915.5 473 915.5 473 932.5 473C932.5 478.5 932.5 478.5 932.5 484C915.5 484 915.5 484 898.5 484C898.5 478.5 898.5 478.5 898.5 473ZM899.5 504C916 504 916 504 932.5 504C932.5 509.5 932.5 509.5 932.5 515C916 515 916 515 899.5 515C899.5 509.5 899.5 509.5 899.5 504ZM823.5 536C823.5 537 823.5 537 823.5 538C822.833 538 822.012 537.573 821.5 538C806.937 550.136 807.719 550.814 821.5 561C825.521 563.972 828.649 568.787 833.5 570C838.293 571.198 853.222 559.833 854.5 556C844.571 548.553 834.589 541.545 823.5 536Z" fill="#2a2a2a" fill-rule="nonzero" opacity="1" stroke="none"/>
</g>
</svg>
