<?xml version="1.0" encoding="UTF-8" standalone="no"?>
<!DOCTYPE svg PUBLIC "-//W3C//DTD SVG 1.1//EN" "http://www.w3.org/Graphics/SVG/1.1/DTD/svg11.dtd">
<!-- Created with Vectornator (http://vectornator.io/) -->
<svg height="1920.0px" stroke-miterlimit="10" style="fill-rule:nonzero;clip-rule:evenodd;stroke-linecap:round;stroke-linejoin:round;" version="1.1" viewBox="0 0 1920 1920" width="1920.0px" xml:space="preserve" xmlns="http://www.w3.org/2000/svg" xmlns:xlink="http://www.w3.org/1999/xlink">
<defs/>
<g id="图层-1">
<g opacity="1">
<g opacity="1">
<path d="M974.693 31.6474C885.103 33.3185 796.92 88.0985 769.466 194.879C762.767 220.933 761.276 911.458 767.863 937.539C792.681 1035.82 864.309 1096.47 974.624 1112.6C1072.2 1126.87 1168.81 1062.64 1248.89 930.235C1267.74 899.086 1264.09 899.787 1289.78 922.361C1359.95 984.019 1437.34 1025.14 1510.96 1039.87C1520.89 1041.86 1529.58 1043.84 1530.28 1044.27C1534.59 1046.91 1586.2 1048.99 1606.25 1047.33C1882.48 1024.44 1939.07 639.85 1678.57 555.854C1563.04 518.603 1426.11 568.682 1299.02 694.661C1283.16 710.375 1269.77 722.81 1269.25 722.299C1263.75 716.84 1231.53 649.796 1223.53 627.173C1196.36 550.269 1194.92 536.747 1193.85 348.827C1193.01 201.858 1193.01 201.86 1188.38 187.066C1155.28 81.4149 1064.28 29.9763 974.693 31.6474ZM971.18 130.992C1020.23 131.257 1069.56 164.422 1075.91 226.845C1077.01 237.64 1077.65 293.94 1077.52 367.694C1077.27 515.273 1079.23 544.716 1093.04 600.171C1106.67 654.899 1143.91 737.947 1177.18 787.79C1190.12 807.179 1193.4 798.427 1147.69 866.392C1082.75 962.966 1057.53 986.457 1010.86 993.834C943.362 1004.5 884.065 963.126 870.108 895.613C864.847 870.166 866.368 231.571 871.742 209.643C884.853 156.141 927.905 130.759 971.18 130.992ZM1608.39 651.958C1617.01 652.358 1625.34 653.584 1633.39 655.637C1783.87 693.976 1758.21 918.557 1601.44 935.416C1584.9 937.194 1568.66 937.448 1559.53 936.075C1505.42 927.932 1440.92 897.585 1387.99 855.356C1368.25 839.611 1335.96 811.103 1336.51 809.911C1337.07 808.687 1372.08 775.84 1382.95 766.331C1473.77 686.904 1548.07 649.156 1608.39 651.958Z" fill="#008ae2" fill-rule="nonzero" opacity="1" stroke="none"/>
<path d="M1281.29 650.96C1241.36 583.343 1230.87 476.794 1254.93 383.325C1303.74 193.715 1508.11 49.3543 1750.59 33.2107C1785.02 30.9181 1781.09 27.0426 1791.27 73.2617C1830.82 252.813 1795.57 413.287 1695.45 509.4C1684.54 519.877 1686.09 519.703 1661.66 513.191C1576.69 490.535 1475.19 513.742 1374.74 578.796C1358.88 589.067 1358.78 588.825 1365.62 557.619C1388.92 451.374 1435.48 362.292 1519.4 263.362C1546.41 231.535 1546.28 231.169 1516.9 255.98C1415.09 341.963 1353.76 434.521 1311.93 565.333C1307.43 579.407 1290.63 647.4 1290.61 651.603C1290.59 658.861 1285.76 658.528 1281.29 650.96L1281.29 650.96Z" fill="#4caf50" fill-rule="nonzero" opacity="1" stroke="none"/>
</g>
<path d="M130.597 573.082C130.597 588.871 118.052 601.804 102.27 602.284C86.4883 602.765 73.1797 590.62 72.219 574.86C71.2582 559.099 82.9927 545.427 98.7163 543.987C114.44 542.547 128.463 553.86 130.381 569.533" fill="#4caf50" fill-rule="nonzero" opacity="1" stroke="none"/>
<path d="M539.477 366.65C537.751 366.593 536.021 366.618 534.3 366.725C515.257 367.912 500.688 378.714 500.689 391.645L500.669 391.645L500.669 391.833L500.669 754.517C500.668 755.025 500.69 755.533 500.735 756.04C501.952 769.54 518.81 779.943 538.802 779.531C558.793 779.12 574.684 768.042 574.684 754.517L574.684 391.646L574.406 388.606C572.218 376.514 557.47 367.244 539.476 366.65L539.477 366.65Z" fill="#008ae2" fill-rule="nonzero" opacity="1" stroke="none"/>
<path d="M453.923 481.538C453.923 500.485 438.87 516.004 419.931 516.581C400.993 517.157 385.022 502.583 383.869 483.671C382.716 464.759 396.798 448.352 415.666 446.624C434.535 444.896 451.362 458.472 453.664 477.279" fill="#4caf50" fill-rule="nonzero" opacity="1" stroke="none"/>
<path d="M420.565 527.367C418.929 527.3 417.29 527.329 415.659 527.455C399.221 528.736 386.063 539.542 384.063 553.406L383.805 553.406L383.805 669.925L383.805 672.175L383.968 672.175L384.063 673.528C386.137 687.866 400.114 698.857 417.168 699.559C418.803 699.627 420.442 699.597 422.073 699.471C439.11 698.142 452.527 686.607 453.824 672.174L453.923 672.174L453.923 669.924L453.923 553.406L453.665 553.406L453.665 553.399C451.592 539.062 437.617 528.072 420.565 527.367Z" fill="#008ae2" fill-rule="nonzero" opacity="1" stroke="none"/>
<path d="M311.396 494.23C309.852 494.168 308.304 494.195 306.764 494.311C291.238 495.483 278.811 505.381 276.922 518.078L276.678 518.078L276.678 624.792L276.678 626.853L276.832 626.853L276.922 628.092C278.881 641.224 292.082 651.29 308.188 651.933C309.733 651.995 311.281 651.968 312.821 651.853C328.911 650.636 341.583 640.072 342.808 626.853L342.902 626.853L342.902 624.792L342.902 518.078L342.658 518.078L342.658 518.072C340.699 504.941 327.501 494.876 311.396 494.231L311.396 494.23Z" fill="#008ae2" fill-rule="nonzero" opacity="1" stroke="none"/>
<path d="M668.019 239.079C666.2 239.011 664.376 239.04 662.563 239.167C643.496 240.516 628.536 252.271 627.273 266.897L627.273 266.897L627.273 268.862C627.273 268.863 627.273 268.864 627.273 268.866L627.273 877.294L627.273 877.702L627.273 877.702L627.567 880.916C629.869 895.328 645.394 906.377 664.339 907.085C666.158 907.153 667.981 907.123 669.795 906.996C689.639 905.595 704.903 892.956 705.173 877.702L705.18 877.702L705.18 877.297L705.18 266.896L704.984 266.896L704.886 265.243C702.582 250.833 687.057 239.786 668.114 239.078L668.019 239.079Z" fill="#008ae2" fill-rule="nonzero" opacity="1" stroke="none"/>
<path d="M202.224 524.419C200.77 524.36 199.313 524.385 197.864 524.497C182.183 525.709 170.042 536.548 169.565 549.761L169.552 549.761L169.552 550.535C169.552 550.542 169.552 550.55 169.552 550.557L169.552 595.605L169.552 596.896L169.645 596.896L169.782 598.782C171.623 611.428 184.046 621.123 199.204 621.744C200.658 621.804 202.115 621.778 203.564 621.667C219.022 620.471 231.076 609.911 231.839 596.897L231.88 596.897L231.88 595.609L231.88 549.763L231.824 549.763L231.651 547.38C229.807 534.734 217.383 525.041 202.224 524.421L202.224 524.419Z" fill="#008ae2" fill-rule="nonzero" opacity="1" stroke="none"/>
</g>
<path d="M1563.41 1252.9C1569.09 1255.89 1571.96 1257.66 1574.93 1262.97C1574.93 1265.28 1574.93 1267.6 1574.93 1269.98C1576.59 1269.97 1576.59 1269.97 1578.28 1269.96C1589.9 1269.93 1601.52 1269.9 1613.15 1269.88C1617.47 1269.87 1621.79 1269.86 1626.11 1269.84C1693.93 1269.61 1693.93 1269.61 1706.05 1275.23C1711.03 1281.5 1712.18 1286.36 1711.63 1293.94C1710.77 1298.9 1710.24 1301.05 1706.76 1305C1693.83 1310.01 1678.94 1308.73 1665.2 1308.67C1661.81 1308.66 1661.81 1308.66 1658.36 1308.66C1651.17 1308.65 1643.99 1308.63 1636.81 1308.61C1631.93 1308.6 1627.04 1308.59 1622.16 1308.58C1610.22 1308.56 1598.28 1308.53 1586.33 1308.5C1586.33 1314.28 1586.33 1320.05 1586.33 1326.01C1588.31 1326 1590.28 1325.99 1592.31 1325.98C1599.71 1325.95 1607.12 1325.93 1614.52 1325.91C1617.71 1325.9 1620.89 1325.89 1624.08 1325.88C1674.47 1325.64 1674.47 1325.64 1685.15 1334.76C1690.5 1344.11 1691.61 1351.33 1691.2 1361.79C1691.18 1363.07 1691.15 1364.35 1691.13 1365.67C1691.06 1368.79 1690.96 1371.91 1690.85 1375.03C1692.02 1374.99 1693.18 1374.95 1694.39 1374.91C1695.92 1374.88 1697.46 1374.85 1699.04 1374.82C1701.32 1374.75 1701.32 1374.75 1703.65 1374.69C1707.95 1375.03 1707.95 1375.03 1713.65 1378.54C1714.47 1383.61 1714.47 1383.61 1714.48 1389.7C1714.52 1391.7 1714.55 1393.7 1714.59 1395.76C1713.65 1401.3 1713.65 1401.3 1710.75 1405.53C1703.88 1409.58 1698.91 1408.8 1690.85 1408.3C1690.91 1410.33 1690.98 1412.36 1691.05 1414.44C1691.1 1417.14 1691.15 1419.84 1691.2 1422.53C1691.25 1423.86 1691.3 1425.19 1691.35 1426.56C1691.47 1435.34 1690.03 1440.81 1685.15 1448.58C1684.72 1452.32 1684.72 1452.32 1688.12 1455.05C1689.37 1456.2 1690.63 1457.35 1691.92 1458.53C1696.83 1463.65 1698.35 1465.24 1699.16 1472.21C1692.71 1487.35 1679.73 1495.08 1665.15 1503.44C1660.28 1505.94 1660.28 1505.94 1658.54 1509.86C1660.82 1510.47 1663.09 1511.09 1665.43 1511.72C1673.69 1514.28 1681.57 1517.44 1689.42 1520.91C1691.63 1521.88 1693.83 1522.85 1696.1 1523.85C1703.41 1528.03 1706.92 1531.32 1711.75 1537.87C1713.42 1544.47 1713.14 1550.49 1711.75 1557.13C1707.02 1562.68 1703.51 1563.77 1696.31 1565.89C1657.06 1565.89 1618.48 1528.86 1592.65 1505.19C1591.82 1504.42 1590.99 1503.65 1590.13 1502.85C1590.08 1504.65 1590.08 1504.65 1590.02 1506.49C1589.84 1511.99 1589.63 1517.49 1589.42 1522.99C1589.36 1524.88 1589.3 1526.76 1589.24 1528.71C1588.08 1558.07 1588.08 1558.07 1574.93 1569.39C1561.91 1575.21 1550.18 1575.44 1535.86 1575.3C1533.77 1575.32 1531.69 1575.34 1529.54 1575.36C1517.93 1575.32 1509.07 1574.77 1498.92 1569.39C1496.01 1564.02 1496.59 1559.56 1497.02 1553.63C1499.04 1548.71 1499.04 1548.71 1502.72 1544.88C1513.09 1540.98 1523.93 1540.41 1535.03 1539.62C1536.85 1534.58 1537.13 1531.4 1537.05 1526.16C1537.03 1524.75 1537.01 1523.33 1536.99 1521.88C1536.97 1520.8 1536.95 1519.72 1536.93 1518.61C1535.79 1520.09 1534.65 1521.57 1533.48 1523.1C1515.13 1543.16 1476.64 1557.56 1449.52 1564.14C1439.33 1564.84 1434.76 1563.03 1426.71 1557.13C1422.77 1551.69 1422.39 1550.32 1422.44 1544.11C1422.42 1542.11 1422.42 1542.11 1422.41 1540.07C1423.01 1535.35 1423.63 1532.97 1426.71 1529.12C1431.17 1526.83 1435.32 1524.98 1440.01 1523.21C1441.34 1522.69 1442.66 1522.17 1444.03 1521.64C1457.34 1516.54 1470.99 1512.42 1484.72 1508.4C1490.93 1506.98 1490.93 1506.98 1493.22 1504.61C1491.5 1503.55 1489.79 1502.49 1488.02 1501.4C1485.75 1499.99 1483.49 1498.58 1481.23 1497.16C1480.1 1496.47 1478.97 1495.78 1477.8 1495.06C1471.69 1491.22 1466.56 1487.8 1462.82 1481.84C1461.77 1474.23 1461.89 1470.85 1466.62 1464.44C1467.87 1463.25 1469.13 1462.06 1470.42 1460.83C1469.29 1460.68 1468.17 1460.53 1467.01 1460.37C1456.59 1458.67 1450.32 1456.81 1443.82 1448.58C1441.4 1442.04 1441.65 1438.89 1443.82 1432.27C1447.62 1427.56 1447.62 1427.56 1453.01 1426.44C1463.59 1425.39 1474.27 1425.32 1484.91 1425.05C1512.56 1425.25 1512.56 1425.25 1538.83 1418.81C1538.2 1417.08 1537.57 1415.34 1536.93 1413.56C1518.51 1409.24 1499.76 1408.91 1480.88 1408.12C1476.61 1407.94 1472.35 1407.74 1468.08 1407.54C1466.8 1407.49 1465.51 1407.44 1464.19 1407.39C1455.53 1406.98 1448.16 1405.65 1440.01 1403.05C1436.34 1398.92 1436.22 1396.12 1435.62 1390.79C1436.28 1384.93 1437.43 1382.67 1441.92 1378.54C1461.78 1372.44 1485.22 1374.83 1505.93 1374.92C1509.31 1374.93 1512.7 1374.94 1516.08 1374.95C1524.3 1374.97 1532.51 1375 1540.73 1375.03C1540.73 1369.83 1540.73 1364.63 1540.73 1359.28C1538.36 1359.29 1535.99 1359.31 1533.55 1359.33C1524.75 1359.39 1515.95 1359.43 1507.15 1359.47C1503.35 1359.49 1499.54 1359.51 1495.73 1359.54C1490.26 1359.58 1484.78 1359.6 1479.3 1359.62C1477.61 1359.64 1475.91 1359.65 1474.16 1359.67C1465.83 1359.67 1458.86 1359.67 1451.42 1355.77C1448.1 1349.66 1448.46 1343.19 1449.52 1336.51C1453.08 1331.26 1453.08 1331.26 1459.02 1327.76C1475.62 1324.43 1493.64 1325.81 1510.56 1325.9C1513.5 1325.91 1516.43 1325.91 1519.37 1325.92C1526.49 1325.94 1533.61 1325.97 1540.73 1326.01C1540.09 1321.7 1540.09 1321.7 1538.83 1317.25C1526.57 1310.61 1510.64 1311.76 1496.85 1311.83C1495.06 1311.83 1493.26 1311.83 1491.41 1311.84C1485.72 1311.85 1480.03 1311.87 1474.34 1311.89C1470.46 1311.9 1466.59 1311.91 1462.71 1311.91C1453.25 1311.93 1443.78 1311.96 1434.31 1312C1432.82 1326.32 1432.1 1340.53 1431.95 1354.91C1431.88 1359.1 1431.82 1363.3 1431.76 1367.49C1431.67 1373.96 1431.58 1380.42 1431.51 1386.89C1430.88 1438.08 1428.46 1489.06 1413.53 1538.64C1413.1 1540.1 1412.66 1541.56 1412.21 1543.06C1408.45 1554.82 1403.9 1567.65 1392.51 1574.64C1383.32 1575.65 1374.55 1575.72 1365.91 1572.57C1359.3 1567.05 1356.63 1563.08 1355.87 1554.78C1356.06 1543.96 1359.66 1533.7 1362.7 1523.32C1375.99 1475.67 1378.39 1428.55 1380.15 1379.56C1380.23 1377.34 1380.31 1375.13 1380.39 1372.85C1380.79 1361.72 1381.17 1350.6 1381.52 1339.47C1381.66 1335.3 1381.8 1331.13 1381.94 1326.96C1381.99 1325.08 1382.04 1323.2 1382.09 1321.27C1383.34 1286.11 1383.34 1286.11 1390.42 1278.21C1409.83 1263.71 1452.05 1269.48 1476.23 1269.14C1480.97 1269.07 1485.7 1268.98 1490.43 1268.89C1491.85 1268.87 1493.27 1268.86 1494.74 1268.84C1503.72 1268.65 1511.36 1267.59 1519.83 1264.72C1521.82 1261.86 1523.72 1258.94 1525.53 1255.97C1536.69 1248.69 1550.82 1248.43 1563.41 1252.9ZM1586.33 1359.28C1586.33 1364.48 1586.33 1369.68 1586.33 1375.03C1606.4 1375.03 1626.47 1375.03 1647.14 1375.03C1647.14 1369.83 1647.14 1364.63 1647.14 1359.28C1627.08 1359.28 1607.01 1359.28 1586.33 1359.28ZM1586.33 1408.3C1586.33 1414.08 1586.33 1419.86 1586.33 1425.81C1606.4 1425.81 1626.47 1425.81 1647.14 1425.81C1647.14 1420.03 1647.14 1414.26 1647.14 1408.3C1627.08 1408.3 1607.01 1408.3 1586.33 1408.3ZM1595.83 1457.33C1606.75 1471.69 1606.75 1471.69 1621.84 1480.31C1635.89 1479.82 1648.52 1469.34 1658.54 1460.83C1658.54 1460.25 1658.54 1459.68 1658.54 1459.08C1637.85 1458.5 1617.16 1457.92 1595.83 1457.33ZM1489.42 1459.08C1493.84 1463.15 1497.69 1466.11 1502.72 1469.37C1508.82 1473.56 1513.13 1476.93 1516.03 1483.59C1516.55 1489.67 1516.22 1493.56 1514.12 1499.35C1515.43 1499.42 1516.74 1499.48 1518.08 1499.55C1519.79 1499.67 1521.51 1499.78 1523.27 1499.9C1524.97 1500 1526.67 1500.1 1528.41 1500.21C1533.71 1501.21 1535.49 1502.54 1538.83 1506.36C1541.27 1504.5 1541.27 1504.5 1540.94 1500.23C1540.93 1497.38 1540.93 1497.38 1540.91 1494.48C1540.91 1492.63 1540.9 1490.79 1540.9 1488.89C1540.88 1486.53 1540.86 1484.17 1540.85 1481.73C1540.81 1474.26 1540.77 1466.78 1540.73 1459.08C1523.8 1459.08 1506.87 1459.08 1489.42 1459.08Z" fill="#008ae2" fill-opacity="0.933333" fill-rule="nonzero" opacity="1" stroke="none"/>
<path d="M834.182 1250.72C843.822 1254.91 847.259 1259.3 851.285 1268.23C852.203 1274.19 852.804 1280.02 853.178 1286.03C853.816 1292.61 854.903 1296.03 859.376 1301.27C867.883 1307.35 875.112 1308.92 885.772 1309.42C887.995 1309.54 890.22 1309.67 892.511 1309.79C897.159 1310.02 901.804 1310.25 906.452 1310.46C932.505 1311.93 932.505 1311.93 942.259 1320.32C946.631 1328.37 946.956 1334.49 944.159 1343.08C939.709 1350.19 935.156 1352.84 926.716 1355.3C906.183 1358.67 885.367 1357.84 864.587 1357.52C885.488 1399.5 907.052 1440.12 933.983 1479.17C958.944 1515.44 958.944 1515.44 957.699 1527.37C954.863 1533.16 952.432 1536.73 946.253 1539.76C936.926 1542.99 929.465 1543.97 919.694 1541.38C911.928 1536.42 906.53 1530.5 901.166 1523.43C900.35 1522.36 899.537 1521.29 898.696 1520.19C877.591 1492.02 863.56 1461.48 851.285 1429.31C851.289 1430.59 851.294 1431.87 851.299 1433.19C851.336 1445.37 851.365 1457.55 851.384 1469.73C851.394 1475.99 851.406 1482.25 851.428 1488.51C851.45 1494.57 851.46 1500.63 851.466 1506.69C851.471 1510.08 851.486 1513.47 851.5 1516.86C851.501 1528.04 851.256 1539.17 850.562 1550.33C850.431 1552.43 850.3 1554.53 850.165 1556.7C849.116 1564.34 847.254 1569.36 841.785 1575.19C832.144 1580.19 821.978 1579.39 811.499 1576.72C804.966 1573.26 802.383 1570.78 799.978 1564.14C796.827 1536.84 797.864 1509.14 797.959 1481.73C797.971 1476.98 797.978 1472.22 797.986 1467.46C798.007 1455.91 798.037 1444.37 798.078 1432.82C797.552 1434 797.026 1435.18 796.485 1436.39C794.054 1441.84 791.613 1447.28 789.172 1452.72C788.344 1454.58 787.517 1456.43 786.666 1458.34C752.984 1533.26 752.984 1533.26 727.77 1544.88C718.247 1545.84 710.863 1545.86 702.235 1541.81C696.715 1537.35 692.43 1533.73 690.641 1527.03C690.093 1513.13 696.253 1505.04 704.966 1494.1C738.45 1451.71 758.471 1404.91 777.176 1355.77C775.855 1355.8 774.532 1355.83 773.17 1355.86C767.142 1355.97 761.114 1356.03 755.085 1356.1C753.006 1356.15 750.926 1356.19 748.783 1356.24C729.418 1356.4 729.418 1356.4 720.169 1350.52C714.587 1344.85 712.759 1340.13 711.974 1332.46C712.684 1324.74 714.711 1321.35 720.169 1315.5C727 1312.38 732.95 1311.46 740.522 1311.08C742.575 1310.95 744.628 1310.83 746.742 1310.7C751.021 1310.47 755.303 1310.25 759.584 1310.03C778.364 1309.24 778.364 1309.24 793.581 1300.06C796.447 1295.84 797.116 1293.12 797.647 1288.2C797.843 1286.69 798.039 1285.17 798.242 1283.6C798.608 1280.44 798.958 1277.27 799.295 1274.1C800.339 1266.21 801.035 1262.18 806.584 1255.85C815.47 1249.58 823.231 1249.62 834.182 1250.72Z" fill="#008ae2" fill-opacity="0.933333" fill-rule="nonzero" opacity="1" stroke="none"/>
<path d="M342.149 1331.37C348.879 1335.74 351.274 1339.82 353.075 1347.02C355.317 1363.62 355.319 1380.4 355.47 1397.11C355.511 1401.55 355.562 1406 355.617 1410.45C355.748 1421.48 355.862 1432.5 355.976 1443.53C356.073 1452.9 356.177 1462.27 356.291 1471.64C356.34 1476 356.381 1480.37 356.42 1484.73C356.451 1487.41 356.483 1490.1 356.516 1492.79C356.527 1494.58 356.527 1494.58 356.541 1496.42C356.645 1503.95 357.239 1511.21 358.776 1518.61C370.725 1527.58 393.757 1524.48 407.996 1523.2C415.063 1522.42 422.083 1521.55 429.086 1520.36C431.16 1520.03 433.235 1519.69 435.373 1519.34C441.176 1517.18 441.176 1517.18 443.062 1510.81C443.639 1508.28 444.163 1505.73 444.644 1503.18C444.938 1501.86 445.234 1500.53 445.537 1499.16C446.428 1495.14 447.258 1491.12 448.087 1487.1C449.051 1482.79 450.036 1478.48 451.058 1474.18C451.451 1472.4 451.846 1470.62 452.253 1468.78C453.914 1463.97 455.038 1461.97 459.489 1459.08C468.271 1456.84 477.363 1456.32 485.974 1459.3C492.402 1462.93 494.66 1464.95 497.495 1471.34C502.653 1493.38 501.514 1524.75 489.039 1544.62C479.958 1556.21 469.604 1565.87 453.914 1568.61C443.786 1569.85 433.592 1569.67 423.392 1569.69C420.122 1569.69 420.122 1569.69 416.784 1569.7C412.186 1569.71 407.588 1569.72 402.99 1569.72C395.98 1569.72 388.972 1569.75 381.962 1569.78C377.483 1569.79 373.002 1569.79 368.522 1569.79C366.44 1569.81 364.356 1569.82 362.211 1569.83C343.241 1569.78 329.347 1567.51 315.071 1555.38C290.224 1529.4 299.567 1476.54 299.621 1443.92C299.632 1437.4 299.626 1430.88 299.614 1424.35C299.608 1419.24 299.61 1414.13 299.615 1409.01C299.617 1405.46 299.611 1401.92 299.605 1398.37C299.736 1349.89 299.736 1349.89 309.37 1336.51C318.702 1328.17 330.118 1327.75 342.149 1331.37Z" fill="#008ae2" fill-opacity="0.933333" fill-rule="nonzero" opacity="1" stroke="none"/>
<path d="M1204.85 1267.97C1206.52 1267.96 1208.19 1267.95 1209.91 1267.94C1211.72 1267.94 1213.54 1267.93 1215.41 1267.93C1217.28 1267.93 1219.16 1267.92 1221.09 1267.91C1225.08 1267.9 1229.07 1267.9 1233.06 1267.9C1239.09 1267.9 1245.11 1267.87 1251.14 1267.83C1306.94 1267.69 1306.94 1267.69 1320.3 1278.73C1331.33 1289.17 1330.1 1301.27 1330.12 1315C1330.13 1317.43 1330.13 1317.43 1330.14 1319.91C1330.15 1323.34 1330.15 1326.76 1330.15 1330.18C1330.16 1335.39 1330.19 1340.6 1330.23 1345.8C1330.23 1349.14 1330.24 1352.48 1330.24 1355.81C1330.25 1357.36 1330.27 1358.9 1330.28 1360.49C1330.23 1372.22 1329.67 1384.82 1320.89 1394.08C1320.02 1395.05 1319.15 1396.02 1318.26 1397.02C1306.72 1405 1291.29 1403.61 1277.6 1403.64C1274.2 1403.65 1274.2 1403.65 1270.73 1403.67C1265.94 1403.69 1261.16 1403.7 1256.37 1403.7C1249.06 1403.71 1241.76 1403.77 1234.46 1403.84C1229.8 1403.85 1225.14 1403.85 1220.48 1403.86C1217.21 1403.89 1217.21 1403.89 1213.88 1403.93C1201.59 1403.87 1193.15 1403.39 1183.48 1396.05C1176.42 1381.11 1179.1 1359.93 1179.19 1343.74C1179.21 1339.26 1179.19 1334.79 1179.16 1330.31C1179.11 1284.3 1179.11 1284.3 1188.23 1273.81C1194.29 1268.92 1197.03 1268.01 1204.85 1267.97ZM1230.99 1308.5C1226.59 1314.57 1226.72 1316.94 1226.75 1324.1C1226.75 1326.12 1226.76 1328.14 1226.76 1330.22C1226.78 1332.34 1226.81 1334.45 1226.83 1336.62C1226.83 1338.74 1226.83 1340.86 1226.84 1343.04C1226.32 1353.22 1226.32 1353.22 1229.09 1362.78C1245.39 1362.78 1261.7 1362.78 1278.49 1362.78C1282.6 1355.21 1280.75 1345.04 1280.75 1336.73C1280.79 1333.59 1280.79 1333.59 1280.82 1330.38C1280.83 1328.36 1280.83 1326.35 1280.83 1324.27C1280.84 1322.42 1280.85 1320.57 1280.86 1318.67C1280.39 1313.74 1279.52 1310.86 1276.59 1306.75C1263.72 1301.69 1243.67 1303.56 1230.99 1308.5Z" fill="#008ae2" fill-opacity="0.933333" fill-rule="nonzero" opacity="1" stroke="none"/>
<path d="M271.365 1357.52C277.523 1362.02 280.288 1364.68 282.767 1371.53C286.631 1413.8 277.095 1474.01 250.463 1509.86C242.839 1516 236.027 1517.48 225.878 1517.36C217.876 1516.34 212.786 1511.71 206.995 1506.9C200.673 1494.93 206.271 1480.21 209.964 1468.16C211.019 1464.57 212.073 1460.98 213.126 1457.39C213.655 1455.61 214.185 1453.82 214.731 1451.99C216.939 1444.52 219.063 1437.04 221.128 1429.53C221.511 1428.15 221.895 1426.77 222.291 1425.35C224.547 1417.01 226.444 1408.65 228.127 1400.2C228.526 1398.22 228.926 1396.24 229.337 1394.2C230.103 1390.33 230.836 1386.46 231.531 1382.58C233.623 1371.99 235.265 1365.84 244.762 1359.28C253.189 1354.53 262.096 1355.1 271.365 1357.52Z" fill="#008ae2" fill-opacity="0.933333" fill-rule="nonzero" opacity="1" stroke="none"/>
<path d="M513.765 1347.89C546.228 1366.3 560.141 1426.09 569.429 1457.59C572.18 1468.65 572.442 1478.07 567.209 1488.63C563.607 1492.81 561.942 1494.33 556.401 1495.85C545.374 1496.68 537.62 1496.01 527.898 1490.6C517.779 1478.45 513.326 1464.29 508.097 1449.94C500.164 1428.19 492.099 1406.66 481.418 1385.9C477.391 1377.86 475.561 1371.84 476.592 1362.78C484.586 1348.05 496.846 1344.85 513.765 1347.89Z" fill="#008ae2" fill-opacity="0.933333" fill-rule="nonzero" opacity="1" stroke="none"/>
<path d="M354.977 1259.47C370.658 1262.88 383.997 1273.58 396.782 1282.23C397.822 1282.93 398.862 1283.64 399.933 1284.36C443.648 1314.01 443.648 1314.01 448.087 1326.01C449.43 1336.64 449.582 1346.93 442.388 1355.77C434.128 1360.96 427.532 1362.66 417.684 1361.03C405.639 1354.7 395.621 1346.13 385.618 1337.39C374.57 1327.74 362.463 1320.75 349.276 1313.75C322.331 1299.11 322.331 1299.11 315.071 1285.74C314.03 1275.76 315.813 1270.74 322.672 1262.97C332.395 1257 343.633 1258.59 354.977 1259.47Z" fill="#008ae2" fill-opacity="0.933333" fill-rule="nonzero" opacity="1" stroke="none"/>
<path d="M678.017 1443.32C685.735 1448.85 689.54 1453.72 691.318 1462.58C691.13 1476.19 687.829 1487.94 682.531 1500.56C681.85 1502.22 681.169 1503.88 680.468 1505.6C678.424 1510.53 676.333 1515.45 674.217 1520.36C673.621 1521.75 673.027 1523.14 672.414 1524.57C655.887 1562.61 655.887 1562.61 640.013 1571.14C634.617 1571.84 634.617 1571.84 628.73 1571.8C626.793 1571.81 624.854 1571.83 622.859 1571.84C614.528 1570.81 609.503 1567.94 604.265 1561.95C600.622 1554.18 600.756 1548.42 603.611 1540.34C608.396 1529.25 614.414 1518.91 620.7 1508.49C627.266 1497.28 631.99 1485.49 636.612 1473.49C641.569 1460.83 646.626 1451.23 659.016 1443.32C666.322 1441.08 670.544 1441.66 678.017 1443.32Z" fill="#008ae2" fill-opacity="0.933333" fill-rule="nonzero" opacity="1" stroke="none"/>
<path d="M661.39 1265.05C675.686 1274.48 698.174 1294.31 701.645 1310.62C701.663 1320.72 699.912 1326.65 693.22 1334.76C685.597 1339.5 679.552 1341.24 670.416 1340.02C662.119 1335.39 654.842 1329.97 647.733 1323.93C646.742 1323.09 645.753 1322.25 644.733 1321.38C632.552 1310.83 618.608 1298 616.497 1282.12C617.36 1275.89 618.498 1273.05 622.91 1268.23C634.795 1259.93 648.068 1258.59 661.39 1265.05Z" fill="#008ae2" fill-opacity="0.933333" fill-rule="nonzero" opacity="1" stroke="none"/>
<path d="M645.714 1350.52C652.77 1355.13 658.668 1360.6 664.715 1366.28C666.118 1367.49 667.519 1368.7 668.962 1369.95C680.005 1379.59 689.706 1388.7 690.607 1403.27C690.249 1409.22 689.283 1413.15 685.381 1417.93C677.395 1424.33 671.979 1425.65 661.51 1426.14C642.103 1423.18 624.988 1402.4 613.409 1389.04C607.176 1380.57 604.513 1373.11 605.809 1362.78C607.57 1356.93 609.283 1355.95 615.073 1352.82C625.598 1348.75 634.647 1347.15 645.714 1350.52Z" fill="#4caf50" fill-opacity="0.933333" fill-rule="nonzero" opacity="1" stroke="none"/>
<path d="M1033.05 1248.42C1020.41 1249 1011.48 1255.99 1005.76 1269.32C1001.4 1279.82 996.984 1288.64 988.946 1297.25C982.486 1304.1 979.763 1308.1 980.168 1317.25C983.97 1322.51 983.954 1322.52 988.467 1326.35C996.75 1331.32 996.743 1331.29 1018.15 1329.49C1022.32 1327.57 1022.31 1327.57 1027.41 1321.72C1033.27 1314.95 1037.82 1312.54 1047.09 1310.87C1049.36 1310.58 1051.59 1310.3 1053.79 1310.02C1057.75 1309.5 1061.69 1308.97 1065.66 1308.48C1065.66 1315.62 1065.66 1322.55 1065.66 1329.49C1043.85 1329.19 1021.43 1327.91 999.904 1331.72C992.988 1333.73 989.587 1336.05 985.86 1341.78C984.89 1348.15 984.891 1352.11 987.882 1357.95C997.623 1366.06 1008.26 1366.94 1020.86 1367.36C1022.8 1367.41 1024.73 1367.43 1026.61 1367.47C1032.09 1367.64 1037.56 1367.82 1043.05 1367.95C1044.28 1367.98 1045.47 1368.03 1046.66 1368.06C1039.25 1378.3 1029.19 1385.05 1017.46 1390.77C1007.01 1395.84 996.464 1400.84 987.775 1408.33C985.282 1414.67 985.266 1414.65 985.86 1420.56C989.292 1428.56 994.711 1432.45 1002.94 1436.31C1014.11 1437.51 1022.9 1435.4 1033.52 1432.21C1034.76 1431.82 1035.95 1431.42 1037.14 1431.04C1025.1 1445.89 1025.12 1445.91 1025.33 1489.82C1025.37 1493.57 1025.38 1497.31 1025.39 1501.05C1025.38 1523.22 1023.49 1546.7 1038.84 1565.04C1048.64 1571.34 1061.92 1571.53 1073.53 1571.59C1075.2 1571.58 1076.8 1571.6 1078.42 1571.59C1084 1571.6 1089.61 1571.6 1095.18 1571.59C1099.16 1571.57 1103.11 1571.54 1107.1 1571.53C1115.46 1571.54 1123.84 1571.55 1132.2 1571.53C1143.01 1571.5 1153.79 1571.48 1164.6 1571.48C1173.06 1571.48 1181.52 1571.44 1189.98 1571.43C1194.03 1571.42 1198.1 1571.43 1202.16 1571.43C1228.61 1571.42 1272.22 1577.27 1294.67 1562.06C1303.62 1552.78 1303.58 1552.79 1303.66 1530.2C1303.64 1528.29 1303.67 1526.41 1303.66 1524.56C1303.66 1520.59 1303.61 1516.62 1303.61 1512.65C1303.57 1506.42 1303.56 1500.2 1303.55 1493.97C1303.55 1489.89 1303.56 1485.82 1303.55 1481.74C1303.55 1479.74 1303.51 1477.82 1303.5 1475.89C1303.48 1459.5 1305.35 1441.48 1292.17 1428.86C1282.46 1421.98 1282.43 1421.97 1218.86 1422.1C1214.37 1422.11 1209.9 1422.16 1205.4 1422.16C1193.59 1422.16 1181.74 1422.14 1169.92 1422.16C1157.69 1422.18 1145.5 1422.2 1133.27 1422.21C1107.98 1422.23 1082.7 1422.28 1057.41 1422.32C1056.34 1422.32 1055.31 1422.32 1054.27 1422.32C1057.16 1420.22 1060.07 1418.14 1063 1416.09C1064.23 1415.23 1065.41 1414.38 1066.61 1413.54C1071.19 1410.19 1075.59 1407.15 1080.87 1404.82C1087.95 1403.75 1094.07 1403.88 1100.61 1406.89C1108.24 1411.75 1115.83 1415.92 1124.6 1418.81C1135.05 1419.87 1147.23 1420.98 1156.14 1414.98C1159.96 1410.33 1160.54 1407.12 1160.67 1401.3C1155.81 1392.93 1149.62 1387.68 1141.62 1381.78C1140.19 1380.75 1138.81 1379.75 1137.42 1378.75C1133.41 1375.81 1129.38 1372.89 1125.34 1369.97C1124.44 1369.32 1123.56 1368.69 1122.68 1368.06C1127.29 1367.71 1131.91 1367.31 1136.51 1366.94C1138.44 1366.78 1140.28 1366.66 1142.15 1366.51C1144.05 1366.37 1145.9 1366.23 1147.74 1366.09C1149.57 1365.94 1151.34 1365.81 1153.11 1365.66C1159.69 1365.14 1164.51 1364.22 1170.19 1361.03C1172.93 1357.27 1173.92 1354.57 1174.5 1350.08C1174.48 1348.03 1174.46 1348.03 1174.44 1346.03C1174.49 1339.82 1174.13 1338.44 1170.19 1333C1159.86 1329.11 1148.35 1329.15 1137.36 1329.22C1134.67 1329.27 1134.69 1329.23 1132.05 1329.28C1126.88 1329.32 1121.73 1329.36 1116.56 1329.44C1114.85 1329.46 1114.84 1329.46 1113.16 1329.49C1113.67 1323.55 1113.69 1323.57 1115.08 1317.25C1118.26 1312.59 1120.29 1312.13 1126.14 1310.87C1129.31 1310.51 1129.31 1310.47 1132.42 1310.12C1134.68 1309.84 1136.87 1309.55 1139.07 1309.27C1145.83 1308.43 1152.49 1307.58 1159.12 1306.08C1164.75 1304.35 1167.16 1302.73 1170.19 1298C1171.44 1289.7 1171.47 1284.05 1166.36 1276.98C1154.65 1269.6 1154.66 1269.61 1099.6 1269.85C1096.25 1269.87 1092.89 1269.85 1089.54 1269.85C1081.76 1269.87 1074.02 1269.93 1066.24 1269.96C1063.08 1269.98 1063.07 1269.95 1059.96 1269.96C1060.2 1265.04 1060.2 1265.06 1059.96 1259.48C1056.05 1254.08 1053.37 1252.34 1046.93 1249.96C1041.87 1248.73 1037.26 1248.22 1033.05 1248.42ZM1218.38 1455.67C1232.36 1455.65 1245.83 1457 1251.9 1462.59C1251.9 1466.6 1251.9 1470.48 1251.9 1474.4L1251.9 1481.84L1251.9 1513.34C1251.9 1514.89 1251.9 1516.38 1251.9 1517.91C1251.9 1521.66 1251.9 1525.44 1251.9 1529.14C1245.83 1534.72 1237.32 1534.81 1229.24 1534.88C1227.74 1534.88 1226.32 1534.83 1224.87 1534.83C1219.96 1534.86 1215 1534.88 1210.09 1534.88C1206.57 1534.88 1203.07 1534.93 1199.55 1534.93C1192.22 1534.95 1184.91 1534.94 1177.58 1534.93C1168.05 1534.92 1158.49 1534.9 1148.96 1534.93C1141.52 1534.97 1134.11 1534.99 1126.67 1534.99C1123.12 1534.98 1119.58 1534.99 1116.03 1534.99C1110.93 1535.01 1105.82 1535.05 1100.71 1535.04C1099.12 1535.03 1097.57 1535.05 1096.03 1535.04C1093.8 1535.06 1093.8 1535.02 1091.62 1535.04C1083.18 1534.96 1081.44 1534.9 1075.18 1529.14C1075.18 1525.33 1075.18 1521.62 1075.18 1517.91L1074.86 1517.91L1074.86 1476.63C1074.04 1466.64 1074.21 1463.84 1077.09 1459.08C1099.96 1457.04 1099.93 1457.06 1122.95 1457.11C1125.23 1457.11 1127.44 1457.1 1129.65 1457.11C1134.53 1457.1 1139.41 1457.11 1144.28 1457.11C1151.82 1457.12 1159.35 1457.12 1166.89 1457.11C1171.85 1457.1 1176.83 1457.11 1181.78 1457.11C1189.91 1457.12 1204.4 1455.7 1218.38 1455.67Z" fill="#008ae2" fill-opacity="0.933333" fill-rule="nonzero" opacity="1" stroke="none"/>
<path d="M1074.86 1481.96L1252.75 1481.96L1252.75 1510.34L1074.86 1510.34L1074.86 1481.96Z" fill="#58b45c" fill-rule="nonzero" opacity="1" stroke="none"/>
<g opacity="1">
<path d="M197.677 1720.24L137.87 1643.86L183.665 1643.86L220.745 1692.39L258.509 1643.86L305.671 1643.86L244.155 1720.24L315.411 1810.3L269.616 1810.3L220.745 1748.1L170.678 1810.3L123.687 1810.3L197.677 1720.24Z" fill="#008ae2" fill-rule="nonzero" opacity="1" stroke="none"/>
<path d="M363.323 1643.86L363.323 1810.3L324.875 1810.3L324.875 1643.86L363.323 1643.86Z" fill="#008ae2" fill-rule="nonzero" opacity="1" stroke="none"/>
<path d="M319.066 1603.62C319.066 1596.89 321.515 1591.09 326.413 1586.19C331.312 1581.29 337.178 1578.84 344.014 1578.84C350.963 1578.84 356.886 1581.29 361.785 1586.19C366.683 1590.97 369.133 1596.84 369.133 1603.79C369.133 1610.74 366.683 1616.66 361.785 1621.56C357 1626.46 351.133 1628.91 344.184 1628.91C337.235 1628.91 331.312 1626.46 326.413 1621.56C321.515 1616.66 319.066 1610.68 319.066 1603.62Z" fill="#008ae2" fill-rule="nonzero" opacity="1" stroke="none"/>
<path d="M395.513 1643.86L433.961 1643.86L433.961 1659.24C441.365 1651.49 447.688 1646.25 452.928 1643.52C458.51 1640.67 465.516 1639.25 473.946 1639.25C492.743 1639.25 507.609 1647.45 518.545 1663.85C530.62 1647.45 546.968 1639.25 567.587 1639.25C605.066 1639.25 623.805 1661.97 623.805 1707.43L623.805 1810.3L585.187 1810.3L585.187 1717.85C585.187 1701.9 583.251 1690.62 579.377 1684.02C575.39 1677.3 568.84 1673.94 559.726 1673.94C549.132 1673.94 541.414 1677.92 536.573 1685.9C531.731 1693.87 529.31 1706.69 529.31 1724.34L529.31 1810.3L490.692 1810.3L490.692 1718.36C490.692 1688.74 482.148 1673.94 465.06 1673.94C454.238 1673.94 446.349 1677.98 441.394 1686.07C436.439 1694.16 433.961 1706.91 433.961 1724.34L433.961 1810.3L395.513 1810.3L395.513 1643.86Z" fill="#008ae2" fill-rule="nonzero" opacity="1" stroke="none"/>
<path d="M647.965 1725.88C647.965 1701.85 656.566 1681.4 673.767 1664.54C690.969 1647.68 711.93 1639.25 736.65 1639.25C761.484 1639.25 782.559 1647.73 799.875 1664.71C816.962 1681.68 825.506 1702.53 825.506 1727.25C825.506 1752.2 816.906 1773.1 799.704 1789.96C782.388 1806.71 761.143 1815.08 735.967 1815.08C711.019 1815.08 690.115 1806.54 673.255 1789.45C656.395 1772.59 647.965 1751.4 647.965 1725.88ZM687.267 1726.57C687.267 1743.2 691.709 1756.36 700.595 1766.04C709.709 1775.84 721.727 1780.73 736.65 1780.73C751.687 1780.73 763.706 1775.89 772.705 1766.21C781.705 1756.53 786.205 1743.6 786.205 1727.42C786.205 1711.24 781.705 1698.31 772.705 1688.63C763.592 1678.83 751.573 1673.94 736.65 1673.94C721.955 1673.94 710.05 1678.83 700.937 1688.63C691.823 1698.43 687.267 1711.07 687.267 1726.57Z" fill="#008ae2" fill-rule="nonzero" opacity="1" stroke="none"/>
<path d="M849.666 1643.86L888.113 1643.86L888.113 1658.73C895.176 1651.32 901.442 1646.25 906.91 1643.52C912.492 1640.67 919.099 1639.25 926.731 1639.25C936.87 1639.25 947.465 1642.55 958.515 1649.16L940.914 1684.36C933.624 1679.12 926.504 1676.5 919.555 1676.5C898.594 1676.5 888.113 1692.33 888.113 1724L888.113 1810.3L849.666 1810.3L849.666 1643.86Z" fill="#008ae2" fill-rule="nonzero" opacity="1" stroke="none"/>
<path d="M1138.41 1791.16C1138.41 1784.78 1140.74 1779.25 1145.42 1774.58C1150.09 1769.91 1155.67 1767.58 1162.16 1767.58C1168.65 1767.58 1174.24 1769.91 1178.91 1774.58C1183.58 1779.25 1185.91 1784.83 1185.91 1791.33C1185.91 1797.94 1183.58 1803.57 1178.91 1808.24C1174.35 1812.8 1168.77 1815.08 1162.16 1815.08C1155.44 1815.08 1149.8 1812.8 1145.24 1808.24C1140.69 1803.69 1138.41 1797.99 1138.41 1791.16Z" fill="#008ae2" fill-rule="nonzero" opacity="1" stroke="none"/>
<path d="M1353.44 1651.04L1353.44 1702.13C1344.67 1691.42 1336.81 1684.07 1329.86 1680.09C1323.02 1675.99 1314.99 1673.94 1305.76 1673.94C1291.3 1673.94 1279.28 1679 1269.71 1689.14C1260.14 1699.28 1255.35 1711.98 1255.35 1727.25C1255.35 1742.86 1259.97 1755.67 1269.2 1765.7C1278.54 1775.72 1290.44 1780.73 1304.91 1780.73C1314.14 1780.73 1322.28 1778.74 1329.34 1774.75C1336.18 1770.88 1344.21 1763.36 1353.44 1752.2L1353.44 1802.95C1337.83 1811.04 1322.22 1815.08 1306.62 1815.08C1280.87 1815.08 1259.34 1806.76 1242.03 1790.13C1224.71 1773.39 1216.05 1752.6 1216.05 1727.76C1216.05 1702.93 1224.82 1681.97 1242.37 1664.88C1259.91 1647.79 1281.44 1639.25 1306.96 1639.25C1323.36 1639.25 1338.86 1643.18 1353.44 1651.04Z" fill="#008ae2" fill-rule="nonzero" opacity="1" stroke="none"/>
<path d="M1366.32 1725.88C1366.32 1701.85 1374.92 1681.4 1392.12 1664.54C1409.32 1647.68 1430.29 1639.25 1455.01 1639.25C1479.84 1639.25 1500.91 1647.73 1518.23 1664.71C1535.32 1681.68 1543.86 1702.53 1543.86 1727.25C1543.86 1752.2 1535.26 1773.1 1518.06 1789.96C1500.74 1806.71 1479.5 1815.08 1454.32 1815.08C1429.37 1815.08 1408.47 1806.54 1391.61 1789.45C1374.75 1772.59 1366.32 1751.4 1366.32 1725.88ZM1405.62 1726.57C1405.62 1743.2 1410.06 1756.36 1418.95 1766.04C1428.06 1775.84 1440.08 1780.73 1455.01 1780.73C1470.04 1780.73 1482.06 1775.89 1491.06 1766.21C1500.06 1756.53 1504.56 1743.6 1504.56 1727.42C1504.56 1711.24 1500.06 1698.31 1491.06 1688.63C1481.95 1678.83 1469.93 1673.94 1455.01 1673.94C1440.31 1673.94 1428.41 1678.83 1419.29 1688.63C1410.18 1698.43 1405.62 1711.07 1405.62 1726.57Z" fill="#008ae2" fill-rule="nonzero" opacity="1" stroke="none"/>
<path d="M1568.02 1643.86L1606.47 1643.86L1606.47 1659.24C1613.87 1651.49 1620.2 1646.25 1625.44 1643.52C1631.02 1640.67 1638.02 1639.25 1646.45 1639.25C1665.25 1639.25 1680.12 1647.45 1691.05 1663.85C1703.13 1647.45 1719.48 1639.25 1740.09 1639.25C1777.57 1639.25 1796.31 1661.97 1796.31 1707.43L1796.31 1810.3L1757.69 1810.3L1757.69 1717.85C1757.69 1701.9 1755.76 1690.62 1751.88 1684.02C1747.9 1677.3 1741.35 1673.94 1732.23 1673.94C1721.64 1673.94 1713.92 1677.92 1709.08 1685.9C1704.24 1693.87 1701.82 1706.69 1701.82 1724.34L1701.82 1810.3L1663.2 1810.3L1663.2 1718.36C1663.2 1688.74 1654.66 1673.94 1637.57 1673.94C1626.75 1673.94 1618.86 1677.98 1613.9 1686.07C1608.95 1694.16 1606.47 1706.91 1606.47 1724.34L1606.47 1810.3L1568.02 1810.3L1568.02 1643.86Z" fill="#008ae2" fill-rule="nonzero" opacity="1" stroke="none"/>
<path d="M972.477 1643.87L1047.35 1811.72L1024.06 1865.72L1066.48 1865.72L1158.91 1643.87L1115.53 1643.87L1067.99 1762.43L1017.06 1643.87L972.477 1643.87Z" fill="#008ae2" fill-rule="nonzero" opacity="1" stroke="none"/>
</g>
</g>
</svg>
