<?xml version="1.0" encoding="UTF-8" standalone="no"?>
<!DOCTYPE svg PUBLIC "-//W3C//DTD SVG 1.1//EN" "http://www.w3.org/Graphics/SVG/1.1/DTD/svg11.dtd">
<!-- Created with Vectornator (http://vectornator.io/) -->
<svg height="100%" stroke-miterlimit="10" style="fill-rule:nonzero;clip-rule:evenodd;stroke-linecap:round;stroke-linejoin:round;" version="1.1" viewBox="114.641 204.396 1841.05 615.208" width="100%" xml:space="preserve" xmlns="http://www.w3.org/2000/svg" xmlns:vectornator="http://vectornator.io" xmlns:xlink="http://www.w3.org/1999/xlink">
<defs>
<linearGradient gradientTransform="matrix(150.054 -209.075 186.589 168.137 627.912 634.257)" gradientUnits="userSpaceOnUse" id="LinearGradient" x1="0" x2="1" y1="0" y2="0">
<stop offset="0" stop-color="#0072bb"/>
<stop offset="1" stop-color="#00a651"/>
</linearGradient>
<linearGradient gradientTransform="matrix(826.308 -3.17797 3.17797 826.308 1129.38 627.178)" gradientUnits="userSpaceOnUse" id="LinearGradient_2" x1="0" x2="1" y1="0" y2="0">
<stop offset="0" stop-color="#00a165"/>
<stop offset="1" stop-color="#0072bb"/>
</linearGradient>
</defs>
<g id="Layer">
<g opacity="1">
<g opacity="1">
<path d="M551.655 204.418C506.234 205.368 461.527 236.487 447.607 297.148C444.211 311.949 443.456 704.227 446.795 719.043C459.378 774.878 495.692 809.331 551.62 818.495C601.092 826.601 650.068 790.111 690.672 714.894C700.225 697.199 698.375 697.597 711.4 710.421C746.976 745.448 786.213 768.807 823.538 777.178C828.569 778.306 832.976 779.431 833.332 779.675C835.518 781.177 861.68 782.358 871.849 781.414C1011.89 768.408 1040.58 549.93 908.511 502.213C849.942 481.051 780.519 509.501 716.084 581.068C708.047 589.994 701.256 597.059 700.995 596.768C698.204 593.667 681.868 555.58 677.815 542.729C664.04 499.04 663.309 491.359 662.766 384.604C662.342 301.113 662.341 301.114 659.991 292.71C643.211 232.691 597.076 203.469 551.655 204.418ZM549.875 260.855C574.74 261.005 599.751 279.846 602.971 315.307C603.528 321.44 603.853 353.423 603.789 395.322C603.659 479.16 604.656 495.886 611.656 527.389C618.565 558.479 637.446 605.658 654.313 633.973C660.874 644.987 662.537 640.015 639.365 678.626C606.44 733.488 593.654 746.833 569.994 751.024C535.771 757.085 505.708 733.579 498.632 695.226C495.965 680.769 496.736 317.992 499.46 305.535C506.108 275.141 527.934 260.722 549.875 260.855ZM872.932 556.808C877.301 557.036 881.526 557.732 885.609 558.898C961.897 580.678 948.891 708.26 869.407 717.837C861.025 718.847 852.791 718.992 848.163 718.212C820.726 713.585 788.028 696.346 761.191 672.356C751.185 663.412 734.811 647.216 735.09 646.539C735.377 645.844 753.125 627.184 758.638 621.782C804.684 576.661 842.35 555.217 872.932 556.808Z" fill="url(#LinearGradient)" fill-rule="nonzero" opacity="1" stroke="none"/>
<path d="M707.098 556.241C686.854 517.829 681.532 457.3 693.731 404.202C718.479 296.487 822.093 214.477 945.025 205.306C962.483 204.004 960.488 201.802 965.65 228.059C985.704 330.059 967.83 421.222 917.073 475.823C911.54 481.775 912.326 481.676 899.942 477.977C856.859 465.106 805.4 478.29 754.475 515.246C746.435 521.081 746.382 520.943 749.851 503.216C761.664 442.86 785.268 392.253 827.818 336.052C841.507 317.972 841.444 317.764 826.55 331.858C774.932 380.704 743.839 433.286 722.63 507.598C720.348 515.594 711.831 554.219 711.823 556.607C711.809 560.73 709.364 560.541 707.098 556.241L707.098 556.241Z" fill="#00a651" fill-rule="nonzero" opacity="1" stroke="none"/>
<path d="M150.641 737.845C150.641 747.572 142.913 755.539 133.19 755.836C123.467 756.132 115.267 748.649 114.675 738.94C114.083 729.23 121.313 720.807 131 719.92C140.687 719.033 149.326 726.003 150.508 735.658" fill="#0172bb" fill-rule="nonzero" opacity="1" stroke="none"/>
<path d="M216.641 737.845C216.641 747.572 208.913 755.539 199.19 755.836C189.467 756.132 181.267 748.649 180.675 738.94C180.083 729.23 187.313 720.807 197 719.92C206.687 719.033 215.326 726.003 216.508 735.658" fill="#0172bb" fill-rule="nonzero" opacity="1" stroke="none"/>
<path d="M216.641 685.845C216.641 695.572 208.913 703.539 199.19 703.836C189.467 704.132 181.267 696.649 180.675 686.94C180.083 677.23 187.313 668.807 197 667.92C206.687 667.033 215.326 674.003 216.508 683.658" fill="#0172bb" fill-rule="nonzero" opacity="1" stroke="none"/>
<path d="M414.641 633.845C414.641 643.572 406.913 651.539 397.19 651.836C387.467 652.132 379.267 644.649 378.675 634.94C378.083 625.23 385.313 616.807 395 615.92C404.687 615.033 413.326 622.003 414.508 631.658" fill="#0172bb" fill-rule="nonzero" opacity="1" stroke="none"/>
<path d="M150.641 737.845C150.641 747.572 142.913 755.539 133.19 755.836C123.467 756.132 115.267 748.649 114.675 738.94C114.083 729.23 121.313 720.807 131 719.92C140.687 719.033 149.326 726.003 150.508 735.658" fill="#0172bb" fill-rule="nonzero" opacity="1" stroke="none"/>
<path d="M282.641 633.845C282.641 643.572 274.913 651.539 265.19 651.836C255.467 652.132 247.267 644.649 246.675 634.94C246.083 625.23 253.313 616.807 263 615.92C272.687 615.033 281.326 622.003 282.508 631.658" fill="#0172bb" fill-rule="nonzero" opacity="1" stroke="none"/>
<path d="M414.641 685.845C414.641 695.572 406.913 703.539 397.19 703.836C387.467 704.132 379.267 696.649 378.675 686.94C378.083 677.23 385.313 668.807 395 667.92C404.687 667.033 413.326 674.003 414.508 683.658" fill="#0172bb" fill-rule="nonzero" opacity="1" stroke="none"/>
<path d="M282.641 685.845C282.641 695.572 274.913 703.539 265.19 703.836C255.467 704.132 247.267 696.649 246.675 686.94C246.083 677.23 253.313 668.807 263 667.92C272.687 667.033 281.326 674.003 282.508 683.658" fill="#0172bb" fill-rule="nonzero" opacity="1" stroke="none"/>
<path d="M348.641 685.845C348.641 695.572 340.913 703.539 331.19 703.836C321.467 704.132 313.267 696.649 312.675 686.94C312.083 677.23 319.313 668.807 329 667.92C338.687 667.033 347.326 674.003 348.508 683.658" fill="#0172bb" fill-rule="nonzero" opacity="1" stroke="none"/>
<path d="M216.641 737.845C216.641 747.572 208.913 755.539 199.19 755.836C189.467 756.132 181.267 748.649 180.675 738.94C180.083 729.23 187.313 720.807 197 719.92C206.687 719.033 215.326 726.003 216.508 735.658" fill="#0172bb" fill-rule="nonzero" opacity="1" stroke="none"/>
<path d="M282.641 737.845C282.641 747.572 274.913 755.539 265.19 755.836C255.467 756.132 247.267 748.649 246.675 738.94C246.083 729.23 253.313 720.807 263 719.92C272.687 719.033 281.326 726.003 282.508 735.658" fill="#0172bb" fill-rule="nonzero" opacity="1" stroke="none"/>
<path d="M348.641 737.845C348.641 747.572 340.913 755.539 331.19 755.836C321.467 756.132 313.267 748.649 312.675 738.94C312.083 729.23 319.313 720.807 329 719.92C338.687 719.033 347.326 726.003 348.508 735.658" fill="#0172bb" fill-rule="nonzero" opacity="1" stroke="none"/>
<path d="M414.641 737.845C414.641 747.572 406.913 755.539 397.19 755.836C387.467 756.132 379.267 748.649 378.675 738.94C378.083 729.23 385.313 720.807 395 719.92C404.687 719.033 413.326 726.003 414.508 735.658" fill="#0172bb" fill-rule="nonzero" opacity="1" stroke="none"/>
<path d="M348.641 633.845C348.641 643.572 340.913 651.539 331.19 651.836C321.467 652.132 313.267 644.649 312.675 634.94C312.083 625.23 319.313 616.807 329 615.92C338.687 615.033 347.326 622.003 348.508 631.658" fill="#0172bb" fill-rule="nonzero" opacity="1" stroke="none"/>
<path d="M414.641 581.845C414.641 591.572 406.913 599.539 397.19 599.836C387.467 600.132 379.267 592.649 378.675 582.94C378.083 573.23 385.313 564.807 395 563.92C404.687 563.033 413.326 570.003 414.508 579.658" fill="#00a651" fill-rule="nonzero" opacity="1" stroke="none"/>
<path d="M348.641 581.845C348.641 591.572 340.913 599.539 331.19 599.836C321.467 600.132 313.267 592.649 312.675 582.94C312.083 573.23 319.313 564.807 329 563.92C338.687 563.033 347.326 570.003 348.508 579.658" fill="#00a651" fill-rule="nonzero" opacity="1" stroke="none"/>
<path d="M414.641 529.845C414.641 539.572 406.913 547.539 397.19 547.836C387.467 548.132 379.267 540.649 378.675 530.94C378.083 521.23 385.313 512.807 395 511.92C404.687 511.033 413.326 518.003 414.508 527.658" fill="#00a651" fill-rule="nonzero" opacity="1" stroke="none"/>
</g>
<path d="M1531.69 512C1526.55 523.132 1507.27 545.668 1508.69 557C1509.36 562.417 1526.71 567.986 1531.69 565C1536.3 562.235 1534.56 552.603 1539.69 551C1544.14 549.608 1549.02 551 1553.69 551C1553.69 559 1553.69 559 1553.69 567C1530.69 567 1530.69 567 1507.69 567C1507.69 578.5 1507.69 578.5 1507.69 590C1525.69 590 1525.69 590 1543.69 590C1536.92 598.121 1536.61 599.201 1525.69 607C1518.76 611.951 1508.07 612.696 1503.69 620C1501.48 623.678 1510.66 646.809 1517.69 644C1530.57 638.849 1544.51 630.289 1554.69 621C1559.42 616.683 1564.3 605.537 1569.69 609C1579.85 615.532 1590.14 622.568 1597.69 632C1572.65 632 1531.12 624.438 1529.69 645C1527.9 670.604 1528.48 696.362 1529.69 722C1529.82 724.915 1534.22 732.915 1538.69 733C1589.35 733.968 1640.02 733.327 1690.69 733C1694.33 732.977 1700.55 725.873 1700.69 723C1701.92 697.697 1701.3 672.326 1700.69 647C1700.63 644.574 1700.03 642.019 1698.69 640C1697.56 638.315 1689.35 632.088 1686.69 632C1658.37 631.066 1630.02 632 1601.69 632C1619.87 601.081 1613.18 608.995 1581.69 591C1598.69 590.5 1598.69 590.5 1615.69 590C1615.69 578.5 1615.69 578.5 1615.69 567C1598.19 567 1598.19 567 1580.69 567C1580.69 559 1580.69 559 1580.69 551C1597.19 551 1597.19 551 1613.69 551C1613.69 539.5 1613.69 539.5 1613.69 528C1584.69 528 1584.69 528 1555.69 528C1558.15 519.366 1557.21 523.38 1558.69 516C1549.73 514.419 1540.74 512.905 1531.69 512ZM1869.69 512C1858.64 512 1848.41 513.319 1837.69 516C1837.69 525.374 1837.04 521.413 1838.69 528C1814.35 528 1790 527.088 1765.69 528C1762.16 528.132 1754.62 533.368 1752.69 536C1750.48 539.005 1747.91 542.28 1747.69 546C1745.89 575.614 1747.88 605.356 1746.69 635C1745.75 658.25 1741.2 679.302 1733.69 701C1733.3 702.128 1722.65 721.412 1726.69 725C1730.09 728.025 1748.18 737.456 1752.69 735C1755.05 733.713 1755.61 730.462 1756.69 728C1768.27 701.525 1775.08 672.976 1776.69 644C1777.21 634.681 1776.69 625.333 1776.69 616C1811.19 616 1811.19 616 1845.69 616C1845.69 621.5 1845.69 621.5 1845.69 627C1817.69 627 1817.69 627 1789.69 627C1789.69 637 1789.69 637 1789.69 647C1817.19 647 1817.19 647 1844.69 647C1844.19 661 1844.19 661 1843.69 675C1842.85 674.159 1842.02 673.573 1841.19 673.156C1841 673.064 1840.81 673.043 1840.62 672.969C1839.99 672.714 1839.35 672.522 1838.72 672.469C1838.22 672.416 1837.72 672.489 1837.22 672.531C1837.03 672.555 1836.84 672.526 1836.66 672.562C1831.89 673.274 1827.06 677.706 1822.69 680C1805.91 688.81 1788.5 696.523 1770.69 703C1770.69 754.702 1825.96 705.66 1845.69 692C1845.15 699.489 1841.69 705.603 1841.69 711C1831.19 711 1831.19 711 1820.69 711C1820.69 719.393 1822.14 727.751 1823.69 736C1869.99 736 1873.65 736.423 1877.69 692C1893.18 704.584 1907.79 715.052 1925.69 724C1928.61 725.461 1942.14 733.966 1945.69 730C1952.93 721.91 1953.92 714.853 1955.69 706C1945.63 702.408 1912.69 691.81 1912.69 684C1918.39 684 1915.17 684.343 1924.69 678C1943.04 665.763 1950.67 665.606 1931.69 649C1924.95 643.108 1897.81 672.749 1890.69 668C1882.25 662.372 1879.85 655.318 1875.69 647C1892.35 647 1909.02 647.32 1925.69 647C1938.91 646.746 1936.69 622.485 1936.69 617C1945.69 617 1945.69 617 1954.69 617C1954.69 606.5 1954.69 606.5 1954.69 596C1945.69 596 1945.69 596 1936.69 596C1936.69 588.429 1940.21 565.832 1924.69 565C1908.04 564.108 1891.35 565 1874.69 565C1874.69 559.5 1874.69 559.5 1874.69 554C1912.69 554 1912.69 554 1950.69 554C1950.69 541 1950.69 541 1950.69 528C1912.19 527.5 1912.19 527.5 1873.69 527C1871.69 519.5 1871.69 519.5 1869.69 512ZM1390.69 515C1390.43 524.75 1390.32 529.622 1390.19 534.5C1390.32 539.378 1390.43 544.25 1390.69 554C1361.19 554 1361.19 554 1331.69 554C1331.69 568 1331.69 568 1331.69 582C1354.19 582 1354.19 582 1376.69 582C1367.61 612.271 1350.77 640.298 1332.69 666C1326.75 674.444 1312.73 683.56 1319.69 694C1318.53 694.579 1317.66 694.814 1317 694.688C1323.52 698.189 1335.68 712.453 1340.69 708C1361.94 689.11 1381.93 650.046 1388.69 623C1389.69 623 1389.69 623 1390.69 623C1390.69 679 1390.69 679 1390.69 735C1406.19 735 1406.19 735 1421.69 735C1422.02 700 1421.72 664.988 1422.69 630C1422.72 628.799 1424.02 628 1424.69 627C1436.84 653.73 1449.77 686.544 1471.69 707C1477.98 712.876 1497.38 691.216 1495.69 685C1492.94 674.92 1474.65 656.536 1469.69 649C1455.62 627.622 1444.87 605.42 1434.69 582C1459.19 582 1459.19 582 1483.69 582C1483.69 567.5 1483.69 567.5 1483.69 553C1452.69 553 1452.69 553 1421.69 553C1421.69 534 1421.69 534 1421.69 515C1406.19 515 1406.19 515 1390.69 515ZM1293 515.531C1291.55 515.415 1290.11 515.555 1288.69 516C1280 518.71 1270.21 535.801 1277.69 541C1284.59 545.804 1291.78 550.201 1298.69 555C1304.7 559.174 1312.81 571.454 1317.69 566C1322.8 560.281 1326.82 553.629 1330.69 547C1334.91 539.759 1327.27 538.789 1321.69 535C1313.55 529.479 1303.13 516.343 1293 515.531ZM1154.62 515.938C1147.87 515.006 1128.81 524.237 1126.69 525C1126.69 533.654 1131.04 541.761 1133.69 550C1140.82 572.189 1147.38 594.563 1153.69 617C1163.5 617 1174.09 610.878 1183.69 608C1183.69 591.274 1166.1 532.064 1156.69 517C1156.31 516.397 1155.59 516.071 1154.62 515.938ZM1664.19 524.969C1653.68 524.914 1643.16 525.206 1632.69 526C1626.19 526.493 1621.87 531.891 1621.69 539C1621.08 562.659 1621.06 586.341 1621.69 610C1621.75 612.543 1626.11 619.83 1628.69 620C1652.3 621.554 1676.03 620.631 1699.69 620C1704.93 619.86 1711.47 611.233 1711.69 607C1712.88 584.031 1712.01 560.998 1711.69 538C1711.68 537.255 1711.13 536.596 1710.69 536C1706.58 530.525 1703.7 526.439 1695.69 526C1685.2 525.426 1674.7 525.024 1664.19 524.969ZM1085.69 538C1085.69 593.667 1085.37 649.334 1085.69 705C1085.71 708.575 1086.75 713.773 1088.69 717C1093 724.19 1097.82 732.295 1107.69 733C1131.63 734.71 1155.7 733.607 1179.69 733C1209.2 732.253 1209.1 688.993 1210.69 670C1200.41 667.064 1190.35 666 1179.69 666C1178.86 672.205 1179.14 700.409 1169.69 701C1153.72 701.998 1137.21 703.881 1121.69 700C1121.69 697.461 1118.75 695.538 1118.69 693C1117.4 641.348 1118.02 589.667 1117.69 538C1101.69 538 1101.69 538 1085.69 538ZM1651.69 552C1667.69 552 1667.69 552 1683.69 552C1683.69 572.5 1683.69 572.5 1683.69 593C1667.69 593 1667.69 593 1651.69 593C1651.69 572.5 1651.69 572.5 1651.69 552ZM1777.69 554C1811.19 554 1811.19 554 1844.69 554C1844.69 559 1844.69 559 1844.69 564C1817.19 564.5 1817.19 564.5 1789.69 565C1789.19 575 1789.19 575 1788.69 585C1817.19 585 1817.19 585 1845.69 585C1845.69 590.5 1845.69 590.5 1845.69 596C1811.69 596 1811.69 596 1777.69 596C1777.69 575 1777.69 575 1777.69 554ZM1221.53 569.438C1214.82 569.465 1197.34 577.938 1195.69 579C1191.06 581.976 1199.65 598.465 1200.69 602C1209.29 631.256 1218.29 660.41 1225.69 690C1236.77 688.417 1246.95 683.304 1257.69 680C1257.69 658.483 1241.11 619.517 1233.69 598C1231.06 590.386 1229.67 575.235 1223.69 570C1223.25 569.614 1222.49 569.434 1221.53 569.438ZM1278.69 571C1261.69 595.85 1266.99 594.664 1284.69 607C1292.2 612.234 1299.19 618.601 1307.69 622C1312.61 614.615 1319.7 608.359 1322.69 600C1324.35 595.334 1286.04 572.051 1278.69 571ZM1059.34 576.906C1051.62 576.69 1043.66 577 1042.69 577C1038.42 615.404 1029.03 651.48 1020.69 689C1030.86 693.069 1040.81 696.641 1051.69 698C1067 667.382 1076.46 613.642 1074.69 580C1074.58 577.866 1067.07 577.123 1059.34 576.906ZM1874.69 585C1891.69 585 1891.69 585 1908.69 585C1908.69 590.5 1908.69 590.5 1908.69 596C1891.69 596 1891.69 596 1874.69 596C1874.69 590.5 1874.69 590.5 1874.69 585ZM1875.69 616C1892.19 616 1892.19 616 1908.69 616C1908.69 621.5 1908.69 621.5 1908.69 627C1892.19 627 1892.19 627 1875.69 627C1875.69 621.5 1875.69 621.5 1875.69 616ZM1296.69 634C1291.2 651.255 1283.34 676.311 1277.69 692C1267.71 719.717 1254.92 726.205 1295.69 733C1304.62 710.669 1312.99 688.124 1319.69 665C1321.85 657.525 1330.58 645.611 1323.69 642C1311.6 635.67 1307.3 635.515 1296.69 634ZM1799.69 648C1799.69 649 1799.69 649 1799.69 650C1799.02 650 1798.2 649.573 1797.69 650C1783.12 662.136 1783.91 662.814 1797.69 673C1801.71 675.972 1804.84 680.787 1809.69 682C1814.48 683.198 1829.41 671.834 1830.69 668C1820.76 660.553 1810.78 653.545 1799.69 648ZM1560.69 656C1615.69 656 1615.69 656 1670.69 656C1670.69 664 1670.69 664 1670.69 672C1615.69 672 1615.69 672 1560.69 672C1560.69 664 1560.69 664 1560.69 656ZM1315.69 692C1315.69 693 1315.69 693 1315.69 694C1315.92 694.076 1316.22 694.291 1316.47 694.406C1316 694.026 1315.69 693.329 1315.69 692ZM1559.69 693C1615.19 693 1615.19 693 1670.69 693C1670.69 700.5 1670.69 700.5 1670.69 708C1615.19 708 1615.19 708 1559.69 708C1559.69 700.5 1559.69 700.5 1559.69 693Z" fill="url(#LinearGradient_2)" fill-rule="nonzero" opacity="1" stroke="none"/>
<g opacity="1">
<path d="M1205.47 366.118L1185.9 340.659L1202.19 340.659L1213.96 357.518L1226.07 340.659L1241.68 340.659L1222.22 366.118L1244.4 394.972L1227.88 394.972L1213.73 375.17L1199.48 394.972L1183.41 394.972L1205.47 366.118Z" fill="#0072bb" fill-rule="nonzero" opacity="1" stroke="none"/>
<path d="M1252.66 340.659L1266.24 340.659L1266.24 394.972L1252.66 394.972L1252.66 340.659ZM1250.73 322.215C1250.73 320.027 1251.54 318.123 1253.17 316.501C1254.79 314.879 1256.84 314.068 1259.33 314.068C1261.82 314.068 1263.92 314.841 1265.61 316.388C1267.31 317.934 1268.16 319.876 1268.16 322.215C1268.16 324.553 1267.31 326.496 1265.61 328.042C1263.92 329.589 1261.82 330.362 1259.33 330.362C1256.84 330.362 1254.79 329.551 1253.17 327.929C1251.54 326.307 1250.73 324.403 1250.73 322.215Z" fill="#0072bb" fill-rule="nonzero" opacity="1" stroke="none"/>
<path d="M1347.59 339.075C1351.14 339.075 1354.17 339.697 1356.7 340.942C1359.23 342.186 1361.3 343.827 1362.92 345.864C1364.55 347.901 1365.73 350.239 1366.49 352.879C1367.24 355.519 1367.62 358.235 1367.62 361.026L1367.62 394.972L1354.04 394.972L1354.04 364.873C1354.04 363.289 1353.93 361.63 1353.7 359.895C1353.48 358.16 1352.99 356.594 1352.23 355.199C1351.48 353.803 1350.44 352.653 1349.12 351.748C1347.8 350.842 1346.05 350.39 1343.86 350.39C1341.75 350.39 1339.94 350.842 1338.43 351.748C1336.92 352.653 1335.67 353.822 1334.69 355.255C1333.71 356.689 1333 358.292 1332.54 360.064C1332.09 361.837 1331.86 363.591 1331.86 365.326L1331.86 394.972L1318.29 394.972L1318.29 362.158C1318.29 358.763 1317.47 355.953 1315.85 353.728C1314.23 351.503 1311.68 350.39 1308.21 350.39C1306.18 350.39 1304.41 350.824 1302.9 351.691C1301.39 352.559 1300.16 353.671 1299.22 355.029C1298.28 356.387 1297.56 357.952 1297.07 359.725C1296.58 361.498 1296.33 363.289 1296.33 365.1L1296.33 394.972L1282.76 394.972L1282.76 340.659L1295.65 340.659L1295.65 349.371L1295.88 349.371C1296.48 348.014 1297.3 346.731 1298.31 345.524C1299.33 344.317 1300.54 343.224 1301.93 342.243C1303.33 341.262 1304.93 340.489 1306.74 339.923C1308.55 339.358 1310.55 339.075 1312.74 339.075C1316.97 339.075 1320.47 340.018 1323.26 341.903C1326.06 343.789 1328.21 346.279 1329.71 349.371C1331.52 346.052 1333.94 343.506 1336.96 341.734C1339.97 339.961 1343.52 339.075 1347.59 339.075Z" fill="#0072bb" fill-rule="nonzero" opacity="1" stroke="none"/>
<path d="M1380.29 367.589C1380.29 363.289 1381.07 359.385 1382.61 355.878C1384.16 352.37 1386.25 349.371 1388.89 346.882C1391.53 344.393 1394.66 342.469 1398.28 341.111C1401.9 339.754 1405.75 339.075 1409.83 339.075C1413.9 339.075 1417.75 339.754 1421.37 341.111C1424.99 342.469 1428.12 344.393 1430.76 346.882C1433.4 349.371 1435.49 352.37 1437.04 355.878C1438.59 359.385 1439.36 363.289 1439.36 367.589C1439.36 371.889 1438.59 375.811 1437.04 379.357C1435.49 382.902 1433.4 385.939 1430.76 388.466C1428.12 390.993 1424.99 392.973 1421.37 394.406C1417.75 395.839 1413.9 396.556 1409.83 396.556C1405.75 396.556 1401.9 395.839 1398.28 394.406C1394.66 392.973 1391.53 390.993 1388.89 388.466C1386.25 385.939 1384.16 382.902 1382.61 379.357C1381.07 375.811 1380.29 371.889 1380.29 367.589ZM1394.1 367.589C1394.1 369.701 1394.42 371.813 1395.06 373.926C1395.7 376.038 1396.66 377.924 1397.94 379.583C1399.23 381.243 1400.85 382.601 1402.81 383.657C1404.77 384.713 1407.11 385.241 1409.83 385.241C1412.54 385.241 1414.88 384.713 1416.84 383.657C1418.8 382.601 1420.42 381.243 1421.71 379.583C1422.99 377.924 1423.95 376.038 1424.59 373.926C1425.23 371.813 1425.55 369.701 1425.55 367.589C1425.55 365.477 1425.23 363.384 1424.59 361.309C1423.95 359.235 1422.99 357.368 1421.71 355.708C1420.42 354.048 1418.8 352.709 1416.84 351.691C1414.88 350.673 1412.54 350.164 1409.83 350.164C1407.11 350.164 1404.77 350.673 1402.81 351.691C1400.85 352.709 1399.23 354.048 1397.94 355.708C1396.66 357.368 1395.7 359.235 1395.06 361.309C1394.42 363.384 1394.1 365.477 1394.1 367.589Z" fill="#0072bb" fill-rule="nonzero" opacity="1" stroke="none"/>
<path d="M1452.48 340.659L1465.5 340.659L1465.5 349.711L1465.72 349.711C1467.23 346.543 1469.34 343.978 1472.06 342.017C1474.77 340.055 1477.94 339.075 1481.56 339.075C1482.09 339.075 1482.66 339.093 1483.26 339.131C1483.86 339.169 1484.39 339.263 1484.85 339.414L1484.85 351.861C1483.94 351.635 1483.17 351.484 1482.53 351.408C1481.88 351.333 1481.26 351.295 1480.66 351.295C1477.57 351.295 1475.08 351.861 1473.19 352.992C1471.3 354.124 1469.83 355.482 1468.78 357.066C1467.72 358.65 1467.01 360.272 1466.63 361.931C1466.25 363.591 1466.06 364.911 1466.06 365.892L1466.06 394.972L1452.48 394.972L1452.48 340.659Z" fill="#0072bb" fill-rule="nonzero" opacity="1" stroke="none"/>
<path d="M1492.31 340.659L1507.36 340.659L1522.53 380.149L1522.75 380.149L1536.22 340.659L1550.36 340.659L1524.68 406.627C1523.69 409.116 1522.64 411.322 1521.51 413.246C1520.38 415.17 1519.02 416.791 1517.43 418.112C1515.85 419.432 1513.98 420.431 1511.83 421.11C1509.68 421.789 1507.1 422.128 1504.08 422.128C1502.95 422.128 1501.8 422.072 1500.63 421.959C1499.46 421.846 1498.27 421.638 1497.07 421.336L1498.2 409.569C1499.1 409.87 1499.99 410.078 1500.86 410.191C1501.72 410.304 1502.54 410.361 1503.29 410.361C1504.72 410.361 1505.93 410.191 1506.91 409.851C1507.89 409.512 1508.72 408.984 1509.4 408.267C1510.08 407.551 1510.68 406.664 1511.21 405.608C1511.74 404.552 1512.3 403.307 1512.91 401.874L1515.62 394.972L1492.31 340.659Z" fill="#0072bb" fill-rule="nonzero" opacity="1" stroke="none"/>
<path d="M1551.94 387.051C1551.94 384.637 1552.83 382.563 1554.6 380.828C1556.38 379.093 1558.51 378.225 1561 378.225C1563.41 378.225 1565.52 379.055 1567.33 380.715C1569.14 382.374 1570.05 384.411 1570.05 386.825C1570.05 389.239 1569.16 391.313 1567.39 393.048C1565.62 394.783 1563.49 395.651 1561 395.651C1559.79 395.651 1558.64 395.424 1557.55 394.972C1556.45 394.519 1555.49 393.916 1554.66 393.161C1553.83 392.407 1553.17 391.502 1552.68 390.446C1552.19 389.39 1551.94 388.258 1551.94 387.051Z" fill="#0072bb" fill-rule="nonzero" opacity="1" stroke="none"/>
<path d="M1620.97 355.708C1619.91 354.199 1618.33 352.936 1616.22 351.917C1614.1 350.899 1611.95 350.39 1609.77 350.39C1607.28 350.39 1605.09 350.899 1603.2 351.917C1601.32 352.936 1599.75 354.275 1598.51 355.934C1597.26 357.594 1596.34 359.461 1595.73 361.535C1595.13 363.61 1594.83 365.703 1594.83 367.815C1594.83 369.928 1595.15 372.021 1595.79 374.095C1596.43 376.17 1597.39 378.037 1598.68 379.696C1599.96 381.356 1601.56 382.695 1603.49 383.713C1605.41 384.732 1607.65 385.241 1610.22 385.241C1612.33 385.241 1614.44 384.826 1616.55 383.996C1618.67 383.166 1620.36 381.959 1621.65 380.375L1630.13 388.975C1627.87 391.389 1624.98 393.256 1621.48 394.576C1617.97 395.896 1614.18 396.556 1610.11 396.556C1606.11 396.556 1602.32 395.915 1598.73 394.632C1595.15 393.35 1592.02 391.464 1589.34 388.975C1586.66 386.485 1584.55 383.468 1583.01 379.923C1581.46 376.377 1580.69 372.341 1580.69 367.815C1580.69 363.44 1581.46 359.48 1583.01 355.934C1584.55 352.389 1586.64 349.371 1589.29 346.882C1591.93 344.393 1595 342.469 1598.51 341.111C1602.01 339.754 1605.77 339.075 1609.77 339.075C1613.76 339.075 1617.63 339.829 1621.36 341.338C1625.1 342.846 1628.06 344.921 1630.25 347.561L1620.97 355.708Z" fill="#0072bb" fill-rule="nonzero" opacity="1" stroke="none"/>
<path d="M1635.9 367.589C1635.9 363.289 1636.68 359.385 1638.22 355.878C1639.77 352.37 1641.86 349.371 1644.5 346.882C1647.14 344.393 1650.27 342.469 1653.9 341.111C1657.52 339.754 1661.36 339.075 1665.44 339.075C1669.51 339.075 1673.36 339.754 1676.98 341.111C1680.6 342.469 1683.73 344.393 1686.37 346.882C1689.01 349.371 1691.1 352.37 1692.65 355.878C1694.2 359.385 1694.97 363.289 1694.97 367.589C1694.97 371.889 1694.2 375.811 1692.65 379.357C1691.1 382.902 1689.01 385.939 1686.37 388.466C1683.73 390.993 1680.6 392.973 1676.98 394.406C1673.36 395.839 1669.51 396.556 1665.44 396.556C1661.36 396.556 1657.52 395.839 1653.9 394.406C1650.27 392.973 1647.14 390.993 1644.5 388.466C1641.86 385.939 1639.77 382.902 1638.22 379.357C1636.68 375.811 1635.9 371.889 1635.9 367.589ZM1649.71 367.589C1649.71 369.701 1650.03 371.813 1650.67 373.926C1651.31 376.038 1652.27 377.924 1653.56 379.583C1654.84 381.243 1656.46 382.601 1658.42 383.657C1660.38 384.713 1662.72 385.241 1665.44 385.241C1668.15 385.241 1670.49 384.713 1672.45 383.657C1674.41 382.601 1676.04 381.243 1677.32 379.583C1678.6 377.924 1679.56 376.038 1680.2 373.926C1680.84 371.813 1681.16 369.701 1681.16 367.589C1681.16 365.477 1680.84 363.384 1680.2 361.309C1679.56 359.235 1678.6 357.368 1677.32 355.708C1676.04 354.048 1674.41 352.709 1672.45 351.691C1670.49 350.673 1668.15 350.164 1665.44 350.164C1662.72 350.164 1660.38 350.673 1658.42 351.691C1656.46 352.709 1654.84 354.048 1653.56 355.708C1652.27 357.368 1651.31 359.235 1650.67 361.309C1650.03 363.384 1649.71 365.477 1649.71 367.589Z" fill="#0072bb" fill-rule="nonzero" opacity="1" stroke="none"/>
<path d="M1772.93 339.075C1776.48 339.075 1779.51 339.697 1782.04 340.942C1784.57 342.186 1786.64 343.827 1788.26 345.864C1789.89 347.901 1791.07 350.239 1791.83 352.879C1792.58 355.519 1792.96 358.235 1792.96 361.026L1792.96 394.972L1779.38 394.972L1779.38 364.873C1779.38 363.289 1779.27 361.63 1779.04 359.895C1778.82 358.16 1778.32 356.594 1777.57 355.199C1776.82 353.803 1775.78 352.653 1774.46 351.748C1773.14 350.842 1771.38 350.39 1769.2 350.39C1767.09 350.39 1765.27 350.842 1763.77 351.748C1762.26 352.653 1761.01 353.822 1760.03 355.255C1759.05 356.689 1758.33 358.292 1757.88 360.064C1757.43 361.837 1757.2 363.591 1757.2 365.326L1757.2 394.972L1743.62 394.972L1743.62 362.158C1743.62 358.763 1742.81 355.953 1741.19 353.728C1739.57 351.503 1737.02 350.39 1733.55 350.39C1731.52 350.39 1729.74 350.824 1728.24 351.691C1726.73 352.559 1725.5 353.671 1724.56 355.029C1723.62 356.387 1722.9 357.952 1722.41 359.725C1721.92 361.498 1721.67 363.289 1721.67 365.1L1721.67 394.972L1708.1 394.972L1708.1 340.659L1720.99 340.659L1720.99 349.371L1721.22 349.371C1721.82 348.014 1722.64 346.731 1723.65 345.524C1724.67 344.317 1725.88 343.224 1727.27 342.243C1728.67 341.262 1730.27 340.489 1732.08 339.923C1733.89 339.358 1735.89 339.075 1738.08 339.075C1742.3 339.075 1745.81 340.018 1748.6 341.903C1751.39 343.789 1753.54 346.279 1755.05 349.371C1756.86 346.052 1759.28 343.506 1762.3 341.734C1765.31 339.961 1768.86 339.075 1772.93 339.075Z" fill="#0072bb" fill-rule="nonzero" opacity="1" stroke="none"/>
</g>
</g>
</g>
</svg>
