<?xml version="1.0" encoding="UTF-8" standalone="no"?>
<!DOCTYPE svg PUBLIC "-//W3C//DTD SVG 1.1//EN" "http://www.w3.org/Graphics/SVG/1.1/DTD/svg11.dtd">
<!-- Created with Vectornator (http://vectornator.io/) -->
<svg height="100%" stroke-miterlimit="10" style="fill-rule:nonzero;clip-rule:evenodd;stroke-linecap:round;stroke-linejoin:round;" version="1.1" viewBox="72.479 127.229 879.042 1025.54" width="100%" xml:space="preserve" xmlns="http://www.w3.org/2000/svg" xmlns:vectornator="http://vectornator.io" xmlns:xlink="http://www.w3.org/1999/xlink">
<defs>
<linearGradient gradientTransform="matrix(150.054 -209.075 186.589 168.137 585.75 557.09)" gradientUnits="userSpaceOnUse" id="LinearGradient" x1="0" x2="1" y1="0" y2="0">
<stop offset="0" stop-color="#0072bb"/>
<stop offset="1" stop-color="#00a651"/>
</linearGradient>
<linearGradient gradientTransform="matrix(650.434 -2.50156 2.50156 650.434 229.559 885.335)" gradientUnits="userSpaceOnUse" id="LinearGradient_2" x1="0" x2="1" y1="0" y2="0">
<stop offset="0" stop-color="#00a165"/>
<stop offset="1" stop-color="#0072bb"/>
</linearGradient>
</defs>
<g id="Layer">
<g opacity="1">
<g opacity="1">
<path d="M509.493 127.251C464.072 128.201 419.364 159.32 405.445 219.981C402.049 234.782 401.293 627.06 404.632 641.876C417.215 697.711 453.529 732.164 509.458 741.328C558.929 749.434 607.906 712.944 648.51 637.727C658.062 620.032 656.212 620.43 669.237 633.254C704.813 668.281 744.051 691.64 781.375 700.011C786.407 701.139 790.814 702.264 791.17 702.508C793.356 704.01 819.517 705.191 829.686 704.247C969.73 691.241 998.419 472.763 866.349 425.046C807.78 403.884 738.357 432.334 673.922 503.901C665.884 512.827 659.094 519.892 658.832 519.601C656.042 516.5 639.705 478.413 635.653 465.562C621.877 421.873 621.146 414.192 620.604 307.437C620.179 223.946 620.179 223.947 617.829 215.543C601.049 155.524 554.914 126.302 509.493 127.251ZM507.712 183.688C532.578 183.838 557.589 202.679 560.809 238.14C561.365 244.273 561.69 276.256 561.626 318.155C561.496 401.993 562.493 418.719 569.494 450.222C576.402 481.312 595.284 528.491 612.15 556.806C618.712 567.82 620.374 562.848 597.203 601.459C564.278 656.321 551.492 669.666 527.831 673.857C493.608 679.918 463.546 656.412 456.47 618.059C453.802 603.602 454.574 240.825 457.298 228.368C463.945 197.974 485.772 183.555 507.712 183.688ZM830.769 479.641C835.138 479.869 839.363 480.565 843.447 481.731C919.734 503.511 906.729 631.093 827.245 640.67C818.862 641.68 810.628 641.825 806.001 641.045C778.563 636.418 745.866 619.179 719.029 595.189C709.023 586.245 692.649 570.049 692.928 569.372C693.214 568.677 710.963 550.017 716.476 544.615C762.522 499.494 800.188 478.05 830.769 479.641Z" fill="url(#LinearGradient)" fill-rule="nonzero" opacity="1" stroke="none"/>
<path d="M664.936 479.074C644.691 440.662 639.37 380.133 651.569 327.035C676.316 219.32 779.93 137.31 902.863 128.139C920.321 126.837 918.325 124.635 923.487 150.892C943.541 252.892 925.668 344.055 874.91 398.656C869.378 404.608 870.163 404.509 857.779 400.81C814.696 387.939 763.238 401.123 712.313 438.079C704.272 443.914 704.219 443.776 707.689 426.049C719.502 365.693 743.105 315.086 785.656 258.885C799.344 240.805 799.282 240.597 784.387 254.691C732.77 303.537 701.677 356.119 680.468 430.431C678.186 438.427 669.668 477.052 669.66 479.44C669.647 483.563 667.202 483.374 664.936 479.074L664.936 479.074Z" fill="#00a651" fill-rule="nonzero" opacity="1" stroke="none"/>
<path d="M108.479 660.678C108.479 670.405 100.75 678.372 91.0271 678.669C81.304 678.965 73.1048 671.482 72.5129 661.773C71.9209 652.063 79.1505 643.64 88.8376 642.753C98.5247 641.866 107.164 648.836 108.346 658.491" fill="#0172bb" fill-rule="nonzero" opacity="1" stroke="none"/>
<path d="M174.479 660.678C174.479 670.405 166.75 678.372 157.027 678.669C147.304 678.965 139.105 671.482 138.513 661.773C137.921 652.063 145.15 643.64 154.838 642.753C164.525 641.866 173.164 648.836 174.346 658.491" fill="#0172bb" fill-rule="nonzero" opacity="1" stroke="none"/>
<path d="M174.479 608.678C174.479 618.405 166.75 626.372 157.027 626.669C147.304 626.965 139.105 619.482 138.513 609.773C137.921 600.063 145.15 591.64 154.838 590.753C164.525 589.866 173.164 596.836 174.346 606.491" fill="#0172bb" fill-rule="nonzero" opacity="1" stroke="none"/>
<path d="M372.479 556.678C372.479 566.405 364.75 574.372 355.027 574.669C345.304 574.965 337.105 567.482 336.513 557.773C335.921 548.063 343.15 539.64 352.838 538.753C362.525 537.866 371.164 544.836 372.346 554.491" fill="#0172bb" fill-rule="nonzero" opacity="1" stroke="none"/>
<path d="M108.479 660.678C108.479 670.405 100.75 678.372 91.0271 678.669C81.304 678.965 73.1048 671.482 72.5129 661.773C71.9209 652.063 79.1505 643.64 88.8376 642.753C98.5247 641.866 107.164 648.836 108.346 658.491" fill="#0172bb" fill-rule="nonzero" opacity="1" stroke="none"/>
<path d="M240.479 556.678C240.479 566.405 232.75 574.372 223.027 574.669C213.304 574.965 205.105 567.482 204.513 557.773C203.921 548.063 211.15 539.64 220.838 538.753C230.525 537.866 239.164 544.836 240.346 554.491" fill="#0172bb" fill-rule="nonzero" opacity="1" stroke="none"/>
<path d="M372.479 608.678C372.479 618.405 364.75 626.372 355.027 626.669C345.304 626.965 337.105 619.482 336.513 609.773C335.921 600.063 343.15 591.64 352.838 590.753C362.525 589.866 371.164 596.836 372.346 606.491" fill="#0172bb" fill-rule="nonzero" opacity="1" stroke="none"/>
<path d="M240.479 608.678C240.479 618.405 232.75 626.372 223.027 626.669C213.304 626.965 205.105 619.482 204.513 609.773C203.921 600.063 211.15 591.64 220.838 590.753C230.525 589.866 239.164 596.836 240.346 606.491" fill="#0172bb" fill-rule="nonzero" opacity="1" stroke="none"/>
<path d="M306.479 608.678C306.479 618.405 298.75 626.372 289.027 626.669C279.304 626.965 271.105 619.482 270.513 609.773C269.921 600.063 277.15 591.64 286.838 590.753C296.525 589.866 305.164 596.836 306.346 606.491" fill="#0172bb" fill-rule="nonzero" opacity="1" stroke="none"/>
<path d="M174.479 660.678C174.479 670.405 166.75 678.372 157.027 678.669C147.304 678.965 139.105 671.482 138.513 661.773C137.921 652.063 145.15 643.64 154.838 642.753C164.525 641.866 173.164 648.836 174.346 658.491" fill="#0172bb" fill-rule="nonzero" opacity="1" stroke="none"/>
<path d="M240.479 660.678C240.479 670.405 232.75 678.372 223.027 678.669C213.304 678.965 205.105 671.482 204.513 661.773C203.921 652.063 211.15 643.64 220.838 642.753C230.525 641.866 239.164 648.836 240.346 658.491" fill="#0172bb" fill-rule="nonzero" opacity="1" stroke="none"/>
<path d="M306.479 660.678C306.479 670.405 298.75 678.372 289.027 678.669C279.304 678.965 271.105 671.482 270.513 661.773C269.921 652.063 277.15 643.64 286.838 642.753C296.525 641.866 305.164 648.836 306.346 658.491" fill="#0172bb" fill-rule="nonzero" opacity="1" stroke="none"/>
<path d="M372.479 660.678C372.479 670.405 364.75 678.372 355.027 678.669C345.304 678.965 337.105 671.482 336.513 661.773C335.921 652.063 343.15 643.64 352.838 642.753C362.525 641.866 371.164 648.836 372.346 658.491" fill="#0172bb" fill-rule="nonzero" opacity="1" stroke="none"/>
<path d="M306.479 556.678C306.479 566.405 298.75 574.372 289.027 574.669C279.304 574.965 271.105 567.482 270.513 557.773C269.921 548.063 277.15 539.64 286.838 538.753C296.525 537.866 305.164 544.836 306.346 554.491" fill="#0172bb" fill-rule="nonzero" opacity="1" stroke="none"/>
<path d="M372.479 504.678C372.479 514.405 364.75 522.372 355.027 522.669C345.304 522.965 337.105 515.482 336.513 505.773C335.921 496.063 343.15 487.64 352.838 486.753C362.525 485.866 371.164 492.836 372.346 502.491" fill="#00a651" fill-rule="nonzero" opacity="1" stroke="none"/>
<path d="M306.479 504.678C306.479 514.405 298.75 522.372 289.027 522.669C279.304 522.965 271.105 515.482 270.513 505.773C269.921 496.063 277.15 487.64 286.838 486.753C296.525 485.866 305.164 492.836 306.346 502.491" fill="#00a651" fill-rule="nonzero" opacity="1" stroke="none"/>
<path d="M372.479 452.678C372.479 462.405 364.75 470.372 355.027 470.669C345.304 470.965 337.105 463.482 336.513 453.773C335.921 444.063 343.15 435.64 352.838 434.753C362.525 433.866 371.164 440.836 372.346 450.491" fill="#00a651" fill-rule="nonzero" opacity="1" stroke="none"/>
</g>
<path d="M546.241 794.671C542.197 803.434 527.022 821.174 528.137 830.093C528.67 834.357 542.324 838.741 546.241 836.391C549.869 834.214 548.5 826.632 552.539 825.37C556.045 824.275 559.886 825.37 563.559 825.37C563.559 831.668 563.559 831.668 563.559 837.965C545.454 837.965 545.454 837.965 527.35 837.965C527.35 847.017 527.35 847.017 527.35 856.07C541.518 856.07 541.518 856.07 555.687 856.07C550.36 862.462 550.113 863.312 541.518 869.451C536.062 873.348 527.651 873.935 524.201 879.684C522.464 882.58 529.693 900.787 535.221 898.576C545.359 894.521 556.338 887.783 564.346 880.471C568.068 877.073 571.913 868.3 576.153 871.026C584.151 876.167 592.254 881.706 598.194 889.13C578.487 889.13 545.796 883.178 544.667 899.363C543.261 919.518 543.717 939.793 544.667 959.974C544.775 962.269 548.232 968.566 551.751 968.633C591.627 969.395 631.517 968.89 671.399 968.633C674.263 968.615 679.16 963.023 679.271 960.761C680.242 940.844 679.751 920.873 679.271 900.938C679.225 899.028 678.756 897.017 677.697 895.427C676.812 894.101 670.348 889.199 668.251 889.13C645.96 888.395 623.645 889.13 601.342 889.13C615.659 864.792 610.388 871.022 585.599 856.857C598.981 856.463 598.981 856.463 612.363 856.07C612.363 847.017 612.363 847.017 612.363 837.965C598.587 837.965 598.587 837.965 584.812 837.965C584.812 831.668 584.812 831.668 584.812 825.37C597.8 825.37 597.8 825.37 610.788 825.37C610.788 816.318 610.788 816.318 610.788 807.266C587.961 807.266 587.961 807.266 565.133 807.266C567.075 800.469 566.333 803.629 567.495 797.82C560.442 796.575 553.367 795.384 546.241 794.671ZM812.3 794.671C803.603 794.671 795.552 795.71 787.111 797.82C787.111 805.199 786.602 802.081 787.898 807.266C768.744 807.266 749.577 806.548 730.436 807.266C727.663 807.37 721.722 811.491 720.203 813.563C718.468 815.929 716.444 818.507 716.267 821.435C714.855 844.746 716.421 868.157 715.48 891.492C714.742 909.793 711.16 926.364 705.247 943.444C704.94 944.332 696.56 959.511 699.737 962.336C702.415 964.717 716.658 972.141 720.203 970.207C722.06 969.194 722.504 966.635 723.352 964.697C732.469 943.857 737.827 921.385 739.095 898.576C739.502 891.241 739.095 883.882 739.095 876.536C766.252 876.536 766.252 876.536 793.409 876.536C793.409 880.865 793.409 880.865 793.409 885.194C771.368 885.194 771.368 885.194 749.328 885.194C749.328 893.066 749.328 893.066 749.328 900.938C770.975 900.938 770.975 900.938 792.621 900.938C792.228 911.958 792.228 911.958 791.834 922.978C791.172 922.316 790.519 921.855 789.866 921.527C789.72 921.454 789.57 921.437 789.424 921.379C788.922 921.179 788.423 921.027 787.923 920.985C787.532 920.944 787.135 921.001 786.742 921.035C786.597 921.053 786.446 921.031 786.3 921.059C782.544 921.62 778.744 925.108 775.304 926.914C762.095 933.849 748.393 939.92 734.372 945.018C734.372 985.716 777.877 947.112 793.409 936.36C792.988 942.254 790.26 947.068 790.26 951.316C781.995 951.316 781.995 951.316 773.73 951.316C773.73 957.922 774.874 964.501 776.091 970.995C812.537 970.995 815.418 971.327 818.598 936.36C830.789 946.265 842.294 954.505 856.381 961.549C858.681 962.699 869.331 969.394 872.124 966.272C877.822 959.903 878.602 954.349 879.996 947.38C872.079 944.552 846.148 936.21 846.148 930.062C850.64 930.062 848.105 930.332 855.594 925.339C870.042 915.707 876.043 915.583 861.104 902.512C855.803 897.874 834.438 921.206 828.831 917.468C822.185 913.038 820.297 907.485 817.023 900.938C830.143 900.938 843.264 901.19 856.381 900.938C866.788 900.737 865.04 881.641 865.04 877.323C872.124 877.323 872.124 877.323 879.209 877.323C879.209 869.058 879.209 869.058 879.209 860.793C872.124 860.793 872.124 860.793 865.04 860.793C865.04 854.833 867.816 837.045 855.594 836.391C842.493 835.689 829.355 836.391 816.236 836.391C816.236 832.061 816.236 832.061 816.236 827.732C846.148 827.732 846.148 827.732 876.06 827.732C876.06 817.499 876.06 817.499 876.06 807.266C845.755 806.872 845.755 806.872 815.449 806.479C813.875 800.575 813.875 800.575 812.3 794.671ZM435.252 797.033C435.05 804.707 434.959 808.542 434.859 812.382C434.96 816.222 435.05 820.057 435.252 827.732C412.031 827.732 412.031 827.732 388.81 827.732C388.81 838.752 388.81 838.752 388.81 849.772C406.521 849.772 406.521 849.772 424.232 849.772C417.084 873.6 403.834 895.662 389.597 915.894C384.92 922.54 373.885 929.716 379.364 937.934C378.452 938.39 377.77 938.575 377.249 938.475C382.385 941.232 391.951 952.46 395.894 948.954C412.622 934.085 428.355 903.336 433.678 882.046C434.465 882.046 434.465 882.046 435.252 882.046C435.252 926.127 435.252 926.127 435.252 970.207C447.453 970.207 447.453 970.207 459.654 970.207C459.916 942.657 459.676 915.097 460.441 887.556C460.467 886.61 461.491 885.982 462.016 885.194C471.579 906.235 481.76 932.065 499.012 948.167C503.968 952.792 519.238 935.742 517.904 930.85C515.74 922.915 501.34 908.444 497.438 902.512C486.366 885.684 477.902 868.207 469.887 849.772C489.172 849.772 489.172 849.772 508.458 849.772C508.458 838.359 508.458 838.359 508.458 826.945C484.056 826.945 484.056 826.945 459.654 826.945C459.654 811.989 459.654 811.989 459.654 797.033C447.453 797.033 447.453 797.033 435.252 797.033ZM358.357 797.451C357.218 797.36 356.085 797.47 354.962 797.82C348.12 799.953 340.42 813.406 346.303 817.499C351.74 821.281 357.394 824.742 362.834 828.519C367.565 831.805 373.949 841.471 377.79 837.178C381.818 832.676 384.979 827.44 388.023 822.222C391.348 816.522 385.334 815.759 380.938 812.776C374.534 808.43 366.328 798.09 358.357 797.451ZM249.434 797.771C244.118 797.038 229.111 804.304 227.443 804.904C227.443 811.716 230.868 818.098 232.953 824.583C238.567 842.05 243.729 859.662 248.696 877.323C256.417 877.323 264.759 872.504 272.311 870.238C272.311 857.072 258.469 810.465 251.057 798.607C250.761 798.133 250.193 797.876 249.434 797.771ZM650.54 804.88C642.265 804.837 633.986 805.067 625.744 805.692C620.629 806.079 617.229 810.329 617.085 815.925C616.608 834.548 616.595 853.19 617.085 871.813C617.138 873.815 620.563 879.551 622.596 879.684C641.185 880.907 659.861 880.181 678.484 879.684C682.611 879.574 687.756 872.783 687.93 869.451C688.869 851.371 688.184 833.24 687.93 815.137C687.921 814.551 687.495 814.033 687.142 813.563C683.91 809.254 681.644 806.037 675.335 805.692C667.082 805.239 658.814 804.923 650.54 804.88ZM195.169 815.137C195.169 858.956 194.918 902.775 195.169 946.593C195.185 949.407 196.007 953.498 197.531 956.039C200.927 961.699 204.719 968.078 212.487 968.633C231.331 969.979 250.276 969.111 269.162 968.633C292.39 968.045 292.318 933.993 293.564 919.042C285.475 916.731 277.552 915.894 269.162 915.894C268.511 920.778 268.73 942.979 261.291 943.444C248.718 944.23 235.728 945.712 223.507 942.657C223.507 940.659 221.195 939.144 221.146 937.147C220.129 896.489 220.621 855.807 220.358 815.137C207.764 815.137 207.764 815.137 195.169 815.137ZM640.7 826.158C653.295 826.158 653.295 826.158 665.889 826.158C665.889 842.294 665.889 842.294 665.889 858.431C653.295 858.431 653.295 858.431 640.7 858.431C640.7 842.294 640.7 842.294 640.7 826.158ZM739.882 827.732C766.252 827.732 766.252 827.732 792.621 827.732C792.621 831.668 792.621 831.668 792.621 835.604C770.975 835.997 770.975 835.997 749.328 836.391C748.934 844.262 748.934 844.262 748.541 852.134C770.975 852.134 770.975 852.134 793.409 852.134C793.409 856.463 793.409 856.463 793.409 860.793C766.645 860.793 766.645 860.793 739.882 860.793C739.882 844.262 739.882 844.262 739.882 827.732ZM302.1 839.884C296.814 839.905 283.057 846.575 281.757 847.411C278.113 849.753 284.874 862.733 285.692 865.515C292.466 888.544 299.548 911.493 305.371 934.785C314.094 933.539 322.108 929.514 330.56 926.914C330.56 909.976 317.509 879.304 311.669 862.367C309.602 856.373 308.506 844.447 303.797 840.326C303.449 840.022 302.855 839.881 302.1 839.884ZM347.091 841.114C333.713 860.674 337.881 859.741 351.814 869.451C357.724 873.571 363.229 878.583 369.918 881.259C373.794 875.445 379.376 870.521 381.726 863.941C383.037 860.269 352.879 841.941 347.091 841.114ZM174.433 845.763C168.349 845.592 162.088 845.837 161.322 845.837C157.963 876.067 150.567 904.464 144.004 933.998C152.012 937.201 159.846 940.013 168.406 941.083C180.457 916.981 187.904 874.679 186.511 848.198C186.422 846.518 180.516 845.933 174.433 845.763ZM816.236 852.134C829.618 852.134 829.618 852.134 842.999 852.134C842.999 856.463 842.999 856.463 842.999 860.793C829.618 860.793 829.618 860.793 816.236 860.793C816.236 856.463 816.236 856.463 816.236 852.134ZM817.023 876.536C830.011 876.536 830.011 876.536 842.999 876.536C842.999 880.865 842.999 880.865 842.999 885.194C830.011 885.194 830.011 885.194 817.023 885.194C817.023 880.865 817.023 880.865 817.023 876.536ZM361.259 890.705C356.938 904.287 350.749 924.01 346.303 936.36C338.449 958.177 328.381 963.285 360.472 968.633C367.503 951.055 374.095 933.308 379.364 915.106C381.067 909.222 387.939 899.844 382.513 897.002C373 892.019 369.61 891.897 361.259 890.705ZM757.199 901.725C757.199 902.512 757.199 902.512 757.199 903.299C756.675 903.299 756.028 902.963 755.625 903.299C744.162 912.852 744.778 913.386 755.625 921.404C758.79 923.743 761.253 927.533 765.071 928.488C768.844 929.431 780.595 920.485 781.601 917.468C773.785 911.606 765.928 906.089 757.199 901.725ZM569.069 908.022C612.363 908.022 612.363 908.022 655.656 908.022C655.656 914.319 655.656 914.319 655.656 920.616C612.363 920.616 612.363 920.616 569.069 920.616C569.069 914.319 569.069 914.319 569.069 908.022ZM376.215 936.36C376.215 937.147 376.215 937.147 376.215 937.934C376.395 937.994 376.635 938.163 376.83 938.254C376.458 937.954 376.215 937.406 376.215 936.36ZM568.282 937.147C611.969 937.147 611.969 937.147 655.656 937.147C655.656 943.05 655.656 943.05 655.656 948.954C611.969 948.954 611.969 948.954 568.282 948.954C568.282 943.05 568.282 943.05 568.282 937.147Z" fill="url(#LinearGradient_2)" fill-rule="nonzero" opacity="1" stroke="none"/>
<g opacity="1">
<path d="M229.289 1096.76L209.714 1071.3L226.008 1071.3L237.775 1088.16L249.883 1071.3L265.498 1071.3L246.035 1096.76L268.213 1125.61L251.693 1125.61L237.549 1105.81L223.292 1125.61L207.224 1125.61L229.289 1096.76Z" fill="#0072bb" fill-rule="nonzero" opacity="1" stroke="none"/>
<path d="M276.473 1071.3L290.052 1071.3L290.052 1125.61L276.473 1125.61L276.473 1071.3ZM274.55 1052.86C274.55 1050.67 275.361 1048.77 276.983 1047.14C278.604 1045.52 280.66 1044.71 283.149 1044.71C285.639 1044.71 287.732 1045.48 289.429 1047.03C291.127 1048.58 291.975 1050.52 291.975 1052.86C291.975 1055.2 291.127 1057.14 289.429 1058.68C287.732 1060.23 285.639 1061 283.149 1061C280.66 1061 278.604 1060.19 276.983 1058.57C275.361 1056.95 274.55 1055.05 274.55 1052.86Z" fill="#0072bb" fill-rule="nonzero" opacity="1" stroke="none"/>
<path d="M371.408 1069.72C374.954 1069.72 377.99 1070.34 380.517 1071.58C383.044 1072.83 385.119 1074.47 386.74 1076.51C388.362 1078.54 389.55 1080.88 390.305 1083.52C391.059 1086.16 391.436 1088.88 391.436 1091.67L391.436 1125.61L377.858 1125.61L377.858 1095.52C377.858 1093.93 377.745 1092.27 377.518 1090.54C377.292 1088.8 376.802 1087.24 376.047 1085.84C375.293 1084.45 374.256 1083.3 372.936 1082.39C371.616 1081.49 369.862 1081.03 367.674 1081.03C365.562 1081.03 363.752 1081.49 362.243 1082.39C360.734 1083.3 359.49 1084.46 358.509 1085.9C357.528 1087.33 356.812 1088.93 356.359 1090.71C355.906 1092.48 355.68 1094.23 355.68 1095.97L355.68 1125.61L342.102 1125.61L342.102 1092.8C342.102 1089.41 341.291 1086.6 339.669 1084.37C338.047 1082.15 335.501 1081.03 332.031 1081.03C329.994 1081.03 328.222 1081.47 326.713 1082.33C325.204 1083.2 323.979 1084.31 323.036 1085.67C322.093 1087.03 321.376 1088.59 320.886 1090.37C320.395 1092.14 320.15 1093.93 320.15 1095.74L320.15 1125.61L306.572 1125.61L306.572 1071.3L319.471 1071.3L319.471 1080.01L319.698 1080.01C320.301 1078.66 321.112 1077.37 322.13 1076.17C323.149 1074.96 324.356 1073.87 325.751 1072.89C327.147 1071.9 328.75 1071.13 330.56 1070.57C332.371 1070 334.37 1069.72 336.557 1069.72C340.782 1069.72 344.289 1070.66 347.08 1072.55C349.872 1074.43 352.021 1076.92 353.53 1080.01C355.341 1076.7 357.755 1074.15 360.772 1072.38C363.789 1070.6 367.335 1069.72 371.408 1069.72Z" fill="#0072bb" fill-rule="nonzero" opacity="1" stroke="none"/>
<path d="M404.109 1098.23C404.109 1093.93 404.882 1090.03 406.429 1086.52C407.975 1083.01 410.069 1080.01 412.709 1077.52C415.349 1075.04 418.48 1073.11 422.1 1071.75C425.721 1070.4 429.569 1069.72 433.642 1069.72C437.716 1069.72 441.563 1070.4 445.184 1071.75C448.804 1073.11 451.935 1075.04 454.575 1077.52C457.215 1080.01 459.309 1083.01 460.855 1086.52C462.402 1090.03 463.175 1093.93 463.175 1098.23C463.175 1102.53 462.402 1106.45 460.855 1110C459.309 1113.54 457.215 1116.58 454.575 1119.11C451.935 1121.64 448.804 1123.62 445.184 1125.05C441.563 1126.48 437.716 1127.2 433.642 1127.2C429.569 1127.2 425.721 1126.48 422.1 1125.05C418.48 1123.62 415.349 1121.64 412.709 1119.11C410.069 1116.58 407.975 1113.54 406.429 1110C404.882 1106.45 404.109 1102.53 404.109 1098.23ZM417.914 1098.23C417.914 1100.34 418.234 1102.46 418.876 1104.57C419.517 1106.68 420.479 1108.57 421.761 1110.23C423.043 1111.89 424.665 1113.24 426.627 1114.3C428.588 1115.36 430.926 1115.88 433.642 1115.88C436.358 1115.88 438.696 1115.36 440.657 1114.3C442.619 1113.24 444.241 1111.89 445.523 1110.23C446.805 1108.57 447.767 1106.68 448.408 1104.57C449.05 1102.46 449.37 1100.34 449.37 1098.23C449.37 1096.12 449.05 1094.03 448.408 1091.95C447.767 1089.88 446.805 1088.01 445.523 1086.35C444.241 1084.69 442.619 1083.35 440.657 1082.33C438.696 1081.32 436.358 1080.81 433.642 1080.81C430.926 1080.81 428.588 1081.32 426.627 1082.33C424.665 1083.35 423.043 1084.69 421.761 1086.35C420.479 1088.01 419.517 1089.88 418.876 1091.95C418.234 1094.03 417.914 1096.12 417.914 1098.23Z" fill="#0072bb" fill-rule="nonzero" opacity="1" stroke="none"/>
<path d="M476.3 1071.3L489.313 1071.3L489.313 1080.35L489.539 1080.35C491.048 1077.19 493.16 1074.62 495.876 1072.66C498.591 1070.7 501.76 1069.72 505.381 1069.72C505.909 1069.72 506.474 1069.74 507.078 1069.77C507.681 1069.81 508.209 1069.91 508.662 1070.06L508.662 1082.5C507.757 1082.28 506.984 1082.13 506.342 1082.05C505.701 1081.98 505.079 1081.94 504.475 1081.94C501.383 1081.94 498.893 1082.5 497.007 1083.64C495.121 1084.77 493.65 1086.12 492.594 1087.71C491.538 1089.29 490.822 1090.91 490.444 1092.57C490.067 1094.23 489.879 1095.55 489.879 1096.53L489.879 1125.61L476.3 1125.61L476.3 1071.3Z" fill="#0072bb" fill-rule="nonzero" opacity="1" stroke="none"/>
<path d="M516.13 1071.3L531.179 1071.3L546.342 1110.79L546.568 1110.79L560.033 1071.3L574.177 1071.3L548.492 1137.27C547.511 1139.76 546.455 1141.97 545.323 1143.89C544.192 1145.81 542.834 1147.43 541.25 1148.75C539.666 1150.07 537.799 1151.07 535.649 1151.75C533.499 1152.43 530.915 1152.77 527.898 1152.77C526.766 1152.77 525.616 1152.71 524.447 1152.6C523.278 1152.49 522.089 1152.28 520.882 1151.98L522.014 1140.21C522.919 1140.51 523.806 1140.72 524.673 1140.83C525.541 1140.95 526.351 1141 527.106 1141C528.539 1141 529.746 1140.83 530.727 1140.49C531.707 1140.15 532.537 1139.63 533.216 1138.91C533.895 1138.19 534.498 1137.31 535.026 1136.25C535.555 1135.19 536.12 1133.95 536.724 1132.52L539.439 1125.61L516.13 1071.3Z" fill="#0072bb" fill-rule="nonzero" opacity="1" stroke="none"/>
<path d="M575.761 1117.69C575.761 1115.28 576.648 1113.21 578.42 1111.47C580.193 1109.74 582.324 1108.87 584.814 1108.87C587.227 1108.87 589.34 1109.7 591.15 1111.36C592.96 1113.02 593.866 1115.05 593.866 1117.47C593.866 1119.88 592.979 1121.96 591.207 1123.69C589.434 1125.43 587.303 1126.29 584.814 1126.29C583.607 1126.29 582.456 1126.07 581.362 1125.61C580.269 1125.16 579.307 1124.56 578.477 1123.8C577.647 1123.05 576.987 1122.14 576.497 1121.09C576.006 1120.03 575.761 1118.9 575.761 1117.69Z" fill="#0072bb" fill-rule="nonzero" opacity="1" stroke="none"/>
<path d="M644.784 1086.35C643.728 1084.84 642.144 1083.58 640.032 1082.56C637.92 1081.54 635.77 1081.03 633.582 1081.03C631.093 1081.03 628.905 1081.54 627.019 1082.56C625.133 1083.58 623.568 1084.92 622.324 1086.58C621.079 1088.24 620.155 1090.1 619.551 1092.18C618.948 1094.25 618.646 1096.35 618.646 1098.46C618.646 1100.57 618.967 1102.66 619.608 1104.74C620.249 1106.81 621.211 1108.68 622.493 1110.34C623.776 1112 625.379 1113.34 627.302 1114.36C629.226 1115.37 631.47 1115.88 634.035 1115.88C636.147 1115.88 638.259 1115.47 640.371 1114.64C642.483 1113.81 644.181 1112.6 645.463 1111.02L653.95 1119.62C651.687 1122.03 648.801 1123.9 645.293 1125.22C641.786 1126.54 637.995 1127.2 633.922 1127.2C629.924 1127.2 626.133 1126.56 622.55 1125.28C618.967 1123.99 615.836 1122.11 613.158 1119.62C610.48 1117.13 608.368 1114.11 606.822 1110.57C605.275 1107.02 604.502 1102.98 604.502 1098.46C604.502 1094.08 605.275 1090.12 606.822 1086.58C608.368 1083.03 610.461 1080.01 613.102 1077.52C615.742 1075.04 618.816 1073.11 622.324 1071.75C625.831 1070.4 629.584 1069.72 633.582 1069.72C637.58 1069.72 641.446 1070.47 645.18 1071.98C648.914 1073.49 651.875 1075.56 654.063 1078.2L644.784 1086.35Z" fill="#0072bb" fill-rule="nonzero" opacity="1" stroke="none"/>
<path d="M659.72 1098.23C659.72 1093.93 660.494 1090.03 662.04 1086.52C663.586 1083.01 665.68 1080.01 668.32 1077.52C670.96 1075.04 674.091 1073.11 677.712 1071.75C681.332 1070.4 685.18 1069.72 689.253 1069.72C693.327 1069.72 697.174 1070.4 700.795 1071.75C704.416 1073.11 707.546 1075.04 710.186 1077.52C712.827 1080.01 714.92 1083.01 716.466 1086.52C718.013 1090.03 718.786 1093.93 718.786 1098.23C718.786 1102.53 718.013 1106.45 716.466 1110C714.92 1113.54 712.827 1116.58 710.186 1119.11C707.546 1121.64 704.416 1123.62 700.795 1125.05C697.174 1126.48 693.327 1127.2 689.253 1127.2C685.18 1127.2 681.332 1126.48 677.712 1125.05C674.091 1123.62 670.96 1121.64 668.32 1119.11C665.68 1116.58 663.586 1113.54 662.04 1110C660.494 1106.45 659.72 1102.53 659.72 1098.23ZM673.525 1098.23C673.525 1100.34 673.846 1102.46 674.487 1104.57C675.128 1106.68 676.09 1108.57 677.372 1110.23C678.655 1111.89 680.276 1113.24 682.238 1114.3C684.199 1115.36 686.537 1115.88 689.253 1115.88C691.969 1115.88 694.307 1115.36 696.269 1114.3C698.23 1113.24 699.852 1111.89 701.134 1110.23C702.416 1108.57 703.378 1106.68 704.019 1104.57C704.661 1102.46 704.981 1100.34 704.981 1098.23C704.981 1096.12 704.661 1094.03 704.019 1091.95C703.378 1089.88 702.416 1088.01 701.134 1086.35C699.852 1084.69 698.23 1083.35 696.269 1082.33C694.307 1081.32 691.969 1080.81 689.253 1080.81C686.537 1080.81 684.199 1081.32 682.238 1082.33C680.276 1083.35 678.655 1084.69 677.372 1086.35C676.09 1088.01 675.128 1089.88 674.487 1091.95C673.846 1094.03 673.525 1096.12 673.525 1098.23Z" fill="#0072bb" fill-rule="nonzero" opacity="1" stroke="none"/>
<path d="M796.748 1069.72C800.293 1069.72 803.33 1070.34 805.857 1071.58C808.384 1072.83 810.458 1074.47 812.08 1076.51C813.702 1078.54 814.89 1080.88 815.644 1083.52C816.399 1086.16 816.776 1088.88 816.776 1091.67L816.776 1125.61L803.197 1125.61L803.197 1095.52C803.197 1093.93 803.084 1092.27 802.858 1090.54C802.632 1088.8 802.141 1087.24 801.387 1085.84C800.633 1084.45 799.595 1083.3 798.275 1082.39C796.955 1081.49 795.201 1081.03 793.014 1081.03C790.902 1081.03 789.091 1081.49 787.582 1082.39C786.074 1083.3 784.829 1084.46 783.848 1085.9C782.868 1087.33 782.151 1088.93 781.699 1090.71C781.246 1092.48 781.02 1094.23 781.02 1095.97L781.02 1125.61L767.441 1125.61L767.441 1092.8C767.441 1089.41 766.63 1086.6 765.009 1084.37C763.387 1082.15 760.841 1081.03 757.371 1081.03C755.334 1081.03 753.561 1081.47 752.053 1082.33C750.544 1083.2 749.318 1084.31 748.375 1085.67C747.432 1087.03 746.716 1088.59 746.225 1090.37C745.735 1092.14 745.49 1093.93 745.49 1095.74L745.49 1125.61L731.912 1125.61L731.912 1071.3L744.811 1071.3L744.811 1080.01L745.037 1080.01C745.641 1078.66 746.452 1077.37 747.47 1076.17C748.488 1074.96 749.695 1073.87 751.091 1072.89C752.486 1071.9 754.089 1071.13 755.9 1070.57C757.71 1070 759.709 1069.72 761.897 1069.72C766.121 1069.72 769.629 1070.66 772.42 1072.55C775.211 1074.43 777.361 1076.92 778.87 1080.01C780.68 1076.7 783.094 1074.15 786.111 1072.38C789.129 1070.6 792.674 1069.72 796.748 1069.72Z" fill="#0072bb" fill-rule="nonzero" opacity="1" stroke="none"/>
</g>
</g>
</g>
</svg>
