<?xml version="1.0" encoding="UTF-8" standalone="no"?>
<!DOCTYPE svg PUBLIC "-//W3C//DTD SVG 1.1//EN" "http://www.w3.org/Graphics/SVG/1.1/DTD/svg11.dtd">
<!-- Created with Vectornator (http://vectornator.io/) -->
<svg height="960.0px" stroke-miterlimit="10" style="fill-rule:nonzero;clip-rule:evenodd;stroke-linecap:round;stroke-linejoin:round;" version="1.1" viewBox="0 0 3840 960" width="3840.0px" xml:space="preserve" xmlns="http://www.w3.org/2000/svg" xmlns:xlink="http://www.w3.org/1999/xlink">
<defs/>
<g id="图层-1">
<g opacity="1">
<g opacity="1">
<g opacity="1">
<path d="M828.306 21.6857C752.995 23.0904 678.867 69.1397 655.788 158.902C650.157 180.803 648.904 761.272 654.441 783.196C675.304 865.817 735.515 916.798 828.248 930.358C910.275 942.353 991.482 888.358 1058.81 777.057C1074.64 750.872 1071.58 751.461 1093.17 770.438C1152.16 822.269 1217.22 856.833 1279.11 869.22C1287.45 870.89 1294.75 872.554 1295.34 872.916C1298.97 875.138 1342.35 876.886 1359.21 875.488C1591.41 856.243 1638.98 532.953 1420 462.344C1322.88 431.031 1207.78 473.128 1100.94 579.028C1087.61 592.238 1076.35 602.691 1075.92 602.261C1071.29 597.673 1044.21 541.314 1037.49 522.297C1014.65 457.649 1013.43 446.282 1012.54 288.314C1011.83 164.768 1011.83 164.77 1007.93 152.334C980.112 63.5213 903.617 20.2809 828.306 21.6857ZM825.354 105.197C866.582 105.419 908.053 133.299 913.391 185.773C914.314 194.847 914.853 242.174 914.747 304.173C914.531 428.231 916.185 452.981 927.792 499.598C939.246 545.603 970.553 615.415 998.519 657.314C1009.4 673.613 1012.15 666.256 973.735 723.389C919.143 804.571 897.943 824.318 858.712 830.519C801.969 839.488 752.123 804.705 740.39 747.953C735.968 726.561 737.247 189.745 741.764 171.312C752.785 126.337 788.975 105.001 825.354 105.197ZM1361 543.131C1368.25 543.467 1375.25 544.498 1382.02 546.223C1508.51 578.452 1486.95 767.239 1355.16 781.412C1341.26 782.906 1327.61 783.12 1319.94 781.965C1274.44 775.12 1220.23 749.61 1175.73 714.111C1159.14 700.876 1131.99 676.911 1132.45 675.909C1132.93 674.881 1162.36 647.269 1171.5 639.275C1247.84 572.507 1310.3 540.775 1361 543.131Z" fill="#008ae2" fill-rule="nonzero" opacity="1" stroke="none"/>
<path d="M1086.04 542.292C1052.47 485.452 1043.65 395.885 1063.88 317.313C1104.91 157.923 1276.71 36.5705 1480.54 22.9998C1509.49 21.0726 1506.18 17.8149 1514.74 56.6676C1547.99 207.602 1518.35 342.499 1434.19 423.294C1425.02 432.101 1426.32 431.955 1405.79 426.481C1334.35 407.436 1249.03 426.944 1164.59 481.63C1151.26 490.264 1151.18 490.06 1156.93 463.828C1176.51 374.517 1215.65 299.632 1286.2 216.469C1308.9 189.715 1308.79 189.408 1284.1 210.264C1198.51 282.543 1146.96 360.35 1111.79 470.312C1108.01 482.144 1093.89 539.299 1093.87 542.833C1093.85 548.934 1089.8 548.654 1086.04 542.292L1086.04 542.292Z" fill="#4caf50" fill-rule="nonzero" opacity="1" stroke="none"/>
</g>
<path d="M118.743 476.826C118.743 490.099 108.197 500.971 94.9306 501.375C81.6639 501.779 70.4765 491.569 69.6688 478.321C68.8611 465.072 78.7255 453.579 91.943 452.369C105.161 451.158 116.949 460.668 118.561 473.843" fill="#4caf50" fill-rule="nonzero" opacity="1" stroke="none"/>
<path d="M462.456 303.296C461.004 303.248 459.55 303.269 458.103 303.358C442.096 304.356 429.849 313.437 429.849 324.307L429.832 324.307L429.832 324.465L429.832 629.344C429.832 629.771 429.85 630.198 429.888 630.624C430.911 641.973 445.082 650.718 461.888 650.372C478.693 650.026 492.051 640.714 492.05 629.344L492.05 324.307L491.817 321.753C489.978 311.587 477.581 303.795 462.454 303.296L462.456 303.296Z" fill="#008ae2" fill-rule="nonzero" opacity="1" stroke="none"/>
<path d="M390.537 399.872C390.537 415.8 377.883 428.845 361.963 429.33C346.042 429.815 332.618 417.564 331.648 401.666C330.679 385.768 342.516 371.976 358.377 370.523C374.239 369.071 388.384 380.483 390.319 396.292" fill="#4caf50" fill-rule="nonzero" opacity="1" stroke="none"/>
<path d="M362.495 438.398C361.12 438.341 359.742 438.366 358.372 438.472C344.553 439.548 333.492 448.632 331.811 460.287L331.594 460.287L331.594 558.234L331.594 560.126L331.731 560.126L331.811 561.263C333.554 573.316 345.304 582.555 359.64 583.146C361.014 583.202 362.392 583.178 363.763 583.071C378.084 581.955 389.363 572.258 390.453 560.125L390.537 560.125L390.537 558.234L390.537 460.286L390.32 460.286L390.32 460.28C388.577 448.229 376.829 438.99 362.495 438.398Z" fill="#008ae2" fill-rule="nonzero" opacity="1" stroke="none"/>
<path d="M270.726 410.542C269.428 410.49 268.126 410.513 266.832 410.61C253.781 411.596 243.334 419.915 241.746 430.589L241.541 430.589L241.541 520.295L241.541 522.027L241.671 522.027L241.746 523.069C243.393 534.108 254.49 542.569 268.029 543.11C269.327 543.162 270.629 543.14 271.923 543.043C285.449 542.02 296.101 533.139 297.131 522.028L297.21 522.028L297.21 520.295L297.21 430.589L297.005 430.589L297.005 430.584C295.359 419.546 284.264 411.085 270.726 410.542L270.726 410.542Z" fill="#008ae2" fill-rule="nonzero" opacity="1" stroke="none"/>
<path d="M570.51 196.057C568.981 195.999 567.448 196.024 565.923 196.131C549.896 197.265 537.32 207.146 536.258 219.441L536.258 219.441L536.258 221.093C536.258 221.094 536.258 221.095 536.258 221.096L536.258 732.553L536.258 732.896L536.258 732.896L536.506 735.598C538.44 747.713 551.491 757.001 567.416 757.596C568.946 757.653 570.478 757.628 572.003 757.521C588.685 756.343 601.516 745.719 601.743 732.896L601.749 732.896L601.749 732.556L601.749 219.441L601.584 219.441L601.501 218.051C599.565 205.938 586.514 196.651 570.59 196.056L570.51 196.057Z" fill="#008ae2" fill-rule="nonzero" opacity="1" stroke="none"/>
<path d="M178.954 435.92C177.732 435.869 176.507 435.891 175.288 435.985C162.107 437.004 151.901 446.115 151.5 457.222L151.489 457.222L151.489 457.873C151.489 457.879 151.489 457.885 151.489 457.891L151.489 495.759L151.489 496.845L151.567 496.845L151.682 498.431C153.23 509.061 163.673 517.21 176.415 517.733C177.637 517.783 178.862 517.761 180.08 517.668C193.074 516.663 203.207 507.786 203.849 496.845L203.883 496.845L203.883 495.763L203.883 457.224L203.836 457.224L203.69 455.221C202.141 444.591 191.697 436.442 178.954 435.921L178.954 435.92Z" fill="#008ae2" fill-rule="nonzero" opacity="1" stroke="none"/>
</g>
<g opacity="1">
<path d="M3553.86 74.9557C3561.85 79.1629 3565.9 81.652 3570.09 89.1328C3570.09 92.3876 3570.09 95.6421 3570.09 98.9954C3572.42 98.987 3572.42 98.987 3574.79 98.9786C3591.16 98.9237 3607.53 98.8868 3623.9 98.86C3629.98 98.8475 3636.07 98.831 3642.15 98.8094C3737.66 98.4803 3737.66 98.4803 3754.72 106.392C3761.73 115.227 3763.35 122.06 3762.58 132.744C3761.37 139.731 3760.62 142.749 3755.72 148.308C3737.51 155.372 3716.55 153.56 3697.2 153.48C3692.43 153.474 3692.43 153.474 3687.56 153.469C3677.45 153.455 3667.33 153.424 3657.22 153.393C3650.34 153.381 3643.47 153.369 3636.59 153.359C3619.77 153.332 3602.96 153.289 3586.14 153.239C3586.14 161.375 3586.14 169.512 3586.14 177.895C3588.92 177.882 3591.7 177.869 3594.56 177.856C3604.98 177.811 3615.41 177.783 3625.83 177.759C3630.32 177.747 3634.81 177.73 3639.3 177.709C3710.24 177.378 3710.24 177.378 3725.29 190.223C3732.83 203.385 3734.38 213.554 3733.81 228.286C3733.78 230.09 3733.74 231.893 3733.7 233.752C3733.61 238.146 3733.47 242.539 3733.31 246.932C3734.96 246.875 3736.6 246.818 3738.3 246.759C3740.46 246.714 3742.62 246.67 3744.85 246.624C3748.06 246.538 3748.06 246.538 3751.34 246.451C3757.39 246.932 3757.39 246.932 3765.42 251.863C3766.58 259.01 3766.58 259.01 3766.59 267.583C3766.64 270.397 3766.7 273.213 3766.75 276.114C3765.42 283.916 3765.42 283.916 3761.34 289.868C3751.67 295.581 3744.66 294.476 3733.31 293.778C3733.4 296.633 3733.5 299.488 3733.59 302.427C3733.67 306.221 3733.74 310.018 3733.81 313.813C3733.88 315.687 3733.95 317.562 3734.02 319.494C3734.19 331.853 3732.16 339.55 3725.29 350.488C3724.68 355.764 3724.68 355.764 3729.48 359.609C3731.24 361.227 3733 362.845 3734.82 364.511C3741.73 371.715 3743.88 373.961 3745.02 383.774C3735.93 405.089 3717.65 415.97 3697.12 427.751C3690.27 431.268 3690.27 431.268 3687.82 436.783C3691.02 437.649 3694.22 438.514 3697.52 439.403C3709.15 443.011 3720.25 447.455 3731.3 452.348C3734.41 453.712 3737.51 455.076 3740.71 456.48C3751 462.38 3755.95 467.006 3762.74 476.235C3765.09 485.523 3764.7 494 3762.74 503.355C3756.09 511.163 3751.15 512.694 3741.01 515.684C3685.73 515.684 3631.41 463.537 3595.04 430.213C3593.87 429.127 3592.7 428.041 3591.49 426.922C3591.41 429.456 3591.41 429.456 3591.33 432.042C3591.07 439.787 3590.78 447.532 3590.49 455.277C3590.41 457.933 3590.32 460.591 3590.24 463.329C3588.6 504.671 3588.6 504.671 3570.09 520.614C3551.75 528.803 3535.23 529.134 3515.07 528.937C3512.13 528.966 3509.19 528.995 3506.17 529.023C3489.82 528.968 3477.35 528.189 3463.05 520.614C3458.95 513.059 3459.76 506.766 3460.38 498.425C3463.22 491.49 3463.22 491.49 3468.41 486.096C3483 480.607 3498.27 479.802 3513.89 478.699C3516.47 471.594 3516.85 467.116 3516.74 459.745C3516.71 457.753 3516.69 455.759 3516.66 453.707C3516.63 452.19 3516.6 450.675 3516.57 449.112C3514.97 451.197 3513.37 453.283 3511.72 455.43C3485.88 483.675 3431.68 503.95 3393.48 513.219C3379.14 514.205 3372.7 511.657 3361.37 503.355C3355.82 495.687 3355.29 493.762 3355.35 485.018C3355.33 482.201 3355.33 482.201 3355.31 479.325C3356.16 472.682 3357.03 469.329 3361.37 463.907C3367.64 460.678 3373.5 458.077 3380.1 455.584C3381.97 454.855 3383.83 454.124 3385.75 453.374C3404.5 446.199 3423.72 440.393 3443.06 434.724C3451.79 432.732 3451.79 432.732 3455.03 429.388C3452.61 427.9 3450.19 426.414 3447.7 424.88C3444.51 422.89 3441.32 420.9 3438.14 418.908C3436.54 417.933 3434.95 416.957 3433.31 415.953C3424.7 410.545 3417.48 405.717 3412.21 397.335C3410.73 386.62 3410.9 381.849 3417.56 372.832C3419.33 371.154 3421.1 369.476 3422.92 367.747C3421.33 367.534 3419.75 367.321 3418.12 367.103C3403.45 364.698 3394.61 362.088 3385.46 350.488C3382.06 341.291 3382.4 336.844 3385.46 327.527C3390.81 320.901 3390.81 320.901 3398.39 319.321C3413.3 317.835 3428.34 317.742 3443.32 317.356C3482.26 317.639 3482.26 317.639 3519.25 308.573C3518.36 306.133 3517.48 303.69 3516.57 301.175C3490.63 295.104 3464.23 294.631 3437.65 293.521C3431.64 293.265 3425.63 292.982 3419.62 292.699C3417.81 292.632 3416.01 292.565 3414.14 292.498C3401.95 291.918 3391.57 290.039 3380.1 286.383C3374.92 280.57 3374.76 276.622 3373.92 269.122C3374.85 260.861 3376.46 257.682 3382.78 251.863C3410.74 243.274 3443.76 246.645 3472.92 246.778C3477.69 246.791 3482.45 246.802 3487.21 246.812C3498.78 246.839 3510.35 246.881 3521.92 246.932C3521.92 239.609 3521.92 232.286 3521.92 224.742C3518.59 224.768 3515.25 224.793 3511.82 224.82C3499.42 224.909 3487.03 224.966 3474.64 225.012C3469.28 225.037 3463.92 225.071 3458.56 225.114C3450.85 225.174 3443.14 225.201 3435.43 225.223C3433.04 225.249 3430.65 225.274 3428.19 225.3C3416.46 225.302 3406.64 225.302 3396.16 219.81C3391.48 211.195 3392 202.089 3393.48 192.689C3398.5 185.292 3398.5 185.292 3406.86 180.36C3430.24 175.668 3455.62 177.616 3479.44 177.741C3483.58 177.753 3487.71 177.764 3491.84 177.775C3501.87 177.801 3511.89 177.844 3521.92 177.895C3521.02 171.823 3521.02 171.823 3519.25 165.567C3501.98 156.21 3479.56 157.827 3460.14 157.929C3457.61 157.933 3455.08 157.936 3452.48 157.94C3444.46 157.953 3436.45 157.984 3428.43 158.016C3422.98 158.028 3417.52 158.04 3412.06 158.05C3398.73 158.077 3385.4 158.119 3372.07 158.17C3369.97 178.341 3368.95 198.339 3368.74 218.597C3368.65 224.501 3368.57 230.405 3368.47 236.309C3368.35 245.416 3368.23 254.522 3368.12 263.63C3367.24 335.705 3363.83 407.496 3342.81 477.313C3342.2 479.368 3341.59 481.424 3340.96 483.543C3335.66 500.093 3329.25 518.16 3313.21 528.012C3300.27 529.433 3287.92 529.524 3275.75 525.085C3266.44 517.314 3262.68 511.731 3261.61 500.043C3261.88 484.802 3266.96 470.359 3271.23 455.74C3289.95 388.636 3293.33 322.294 3295.8 253.298C3295.92 250.183 3296.03 247.068 3296.15 243.858C3296.71 228.189 3297.24 212.52 3297.73 196.848C3297.93 190.977 3298.12 185.105 3298.32 179.234C3298.4 176.591 3298.47 173.948 3298.54 171.225C3300.29 121.707 3300.29 121.707 3310.26 110.591C3337.6 90.1727 3397.05 98.3015 3431.11 97.8196C3437.77 97.7216 3444.43 97.5948 3451.1 97.4639C3453.1 97.4433 3455.1 97.4224 3457.16 97.4011C3469.81 97.1286 3480.56 95.6395 3492.49 91.5985C3495.29 87.5639 3497.97 83.4501 3500.52 79.2705C3516.24 69.0251 3536.13 68.6538 3553.86 74.9557ZM3586.14 224.742C3586.14 232.064 3586.14 239.387 3586.14 246.932C3614.4 246.932 3642.66 246.932 3671.77 246.932C3671.77 239.609 3671.77 232.286 3671.77 224.742C3643.51 224.742 3615.25 224.742 3586.14 224.742ZM3586.14 293.778C3586.14 301.916 3586.14 310.052 3586.14 318.434C3614.4 318.434 3642.66 318.434 3671.77 318.434C3671.77 310.299 3671.77 302.163 3671.77 293.778C3643.51 293.778 3615.25 293.778 3586.14 293.778ZM3599.52 362.817C3614.89 383.031 3614.89 383.031 3636.14 395.177C3655.92 394.489 3673.7 379.73 3687.82 367.747C3687.82 366.932 3687.82 366.12 3687.82 365.281C3658.68 364.468 3629.54 363.653 3599.52 362.817ZM3449.68 365.281C3455.9 371.015 3461.31 375.185 3468.41 379.766C3477 385.675 3483.06 390.409 3487.14 399.801C3487.88 408.349 3487.41 413.839 3484.46 421.991C3486.3 422.082 3488.14 422.176 3490.03 422.269C3492.44 422.432 3494.85 422.595 3497.34 422.76C3499.73 422.904 3502.12 423.048 3504.58 423.194C3512.04 424.611 3514.54 426.481 3519.25 431.853C3522.68 429.24 3522.68 429.24 3522.23 423.223C3522.2 419.213 3522.2 419.213 3522.18 415.123C3522.18 412.527 3522.17 409.929 3522.16 407.254C3522.14 403.929 3522.11 400.607 3522.09 397.181C3522.03 386.653 3521.98 376.128 3521.92 365.281C3498.08 365.281 3474.24 365.281 3449.68 365.281Z" fill="#008ae2" fill-opacity="0.933333" fill-rule="nonzero" opacity="1" stroke="none"/>
<path d="M2527 71.8736C2540.57 77.7862 2545.41 83.9602 2551.08 96.5298C2552.38 104.924 2553.22 113.143 2553.75 121.595C2554.65 130.866 2556.18 135.677 2562.48 143.058C2574.46 151.628 2584.64 153.832 2599.65 154.539C2602.78 154.712 2605.91 154.885 2609.14 155.064C2615.68 155.387 2622.22 155.702 2628.77 156.008C2665.45 158.069 2665.45 158.069 2679.19 169.882C2685.34 181.225 2685.8 189.84 2681.86 201.935C2675.6 211.945 2669.19 215.675 2657.3 219.146C2628.39 223.883 2599.08 222.721 2569.81 222.276C2599.25 281.385 2629.61 338.577 2667.53 393.569C2702.68 444.644 2702.68 444.644 2700.93 461.44C2696.94 469.6 2693.51 474.621 2684.81 478.893C2671.68 483.436 2661.17 484.821 2647.41 481.166C2636.48 474.18 2628.88 465.851 2621.32 455.893C2620.18 454.39 2619.03 452.885 2617.85 451.336C2588.13 411.66 2568.37 368.661 2551.08 323.365C2551.09 325.168 2551.1 326.97 2551.1 328.828C2551.16 345.977 2551.2 363.128 2551.22 380.279C2551.24 389.093 2551.25 397.907 2551.29 406.719C2551.32 415.258 2551.33 423.794 2551.34 432.33C2551.35 437.102 2551.37 441.875 2551.39 446.647C2551.39 462.382 2551.04 478.064 2550.07 493.772C2549.88 496.732 2549.7 499.693 2549.51 502.742C2548.03 513.5 2545.41 520.576 2537.71 528.781C2524.13 535.819 2509.82 534.7 2495.06 530.939C2485.86 526.058 2482.22 522.575 2478.84 513.219C2474.4 474.773 2475.86 435.774 2475.99 397.181C2476.01 390.481 2476.02 383.784 2476.03 377.084C2476.06 360.822 2476.1 344.56 2476.16 328.298C2475.42 329.96 2474.68 331.621 2473.92 333.332C2470.49 341.001 2467.06 348.662 2463.62 356.325C2462.45 358.938 2461.29 361.551 2460.09 364.243C2412.66 469.739 2412.66 469.739 2377.16 486.096C2363.75 487.453 2353.35 487.482 2341.2 481.782C2333.43 475.492 2327.39 470.405 2324.87 460.968C2324.1 441.391 2332.78 430.002 2345.04 414.594C2392.2 354.899 2420.39 289.005 2446.73 219.81C2444.87 219.849 2443 219.888 2441.09 219.928C2432.6 220.082 2424.11 220.178 2415.62 220.273C2412.69 220.335 2409.76 220.397 2406.75 220.46C2379.48 220.689 2379.48 220.689 2366.45 212.414C2358.59 204.424 2356.02 197.78 2354.91 186.987C2355.91 176.106 2358.77 171.33 2366.45 163.101C2376.07 158.703 2384.45 157.415 2395.11 156.87C2398 156.697 2400.89 156.523 2403.87 156.345C2409.9 156.022 2415.93 155.707 2421.96 155.401C2448.4 154.285 2448.4 154.285 2469.83 141.359C2473.86 135.421 2474.81 131.587 2475.55 124.663C2475.83 122.525 2476.11 120.388 2476.39 118.186C2476.91 113.725 2477.4 109.263 2477.87 104.798C2479.34 93.6902 2480.32 88.0223 2488.14 79.1068C2500.65 70.2723 2511.58 70.3238 2527 71.8736Z" fill="#008ae2" fill-opacity="0.933333" fill-rule="nonzero" opacity="1" stroke="none"/>
<path d="M1834.15 185.446C1843.62 191.599 1846.99 197.341 1849.53 207.482C1852.69 230.863 1852.69 254.488 1852.9 278.012C1852.96 284.276 1853.03 290.54 1853.11 296.803C1853.29 312.329 1853.45 327.857 1853.62 343.386C1853.75 356.579 1853.9 369.77 1854.06 382.964C1854.13 389.108 1854.19 395.254 1854.24 401.398C1854.28 405.18 1854.33 408.965 1854.37 412.748C1854.39 415.277 1854.39 415.277 1854.41 417.856C1854.56 428.458 1855.39 438.692 1857.56 449.112C1874.38 461.744 1906.82 457.37 1926.87 455.574C1936.82 454.472 1946.7 453.247 1956.57 451.578C1959.48 451.104 1962.41 450.631 1965.42 450.142C1973.59 447.098 1973.59 447.098 1976.25 438.123C1977.06 434.557 1977.8 430.975 1978.47 427.384C1978.89 425.515 1979.3 423.645 1979.73 421.72C1980.98 416.065 1982.15 410.401 1983.32 404.732C1984.68 398.663 1986.07 392.6 1987.5 386.548C1988.06 384.036 1988.61 381.526 1989.19 378.939C1991.53 372.17 1993.11 369.353 1999.38 365.281C2011.74 362.133 2024.55 361.397 2036.67 365.59C2045.72 370.696 2048.9 373.553 2052.89 382.54C2060.16 413.577 2058.55 457.751 2040.99 485.73C2028.2 502.054 2013.62 515.662 1991.53 519.521C1977.26 521.262 1962.91 521.015 1948.55 521.029C1943.94 521.041 1943.94 521.041 1939.24 521.053C1932.77 521.067 1926.29 521.072 1919.82 521.072C1909.95 521.077 1900.08 521.123 1890.21 521.168C1883.9 521.175 1877.59 521.18 1871.28 521.183C1868.35 521.202 1865.42 521.218 1862.4 521.238C1835.68 521.163 1816.12 517.97 1796.01 500.891C1761.03 464.295 1774.18 389.872 1774.26 343.937C1774.27 334.751 1774.27 325.566 1774.25 316.383C1774.24 309.179 1774.24 301.978 1774.25 294.778C1774.25 289.782 1774.24 284.787 1774.24 279.789C1774.42 211.528 1774.42 211.528 1787.99 192.689C1801.13 180.947 1817.2 180.342 1834.15 185.446Z" fill="#008ae2" fill-opacity="0.933333" fill-rule="nonzero" opacity="1" stroke="none"/>
<path d="M3048.95 96.1716C3051.3 96.1558 3053.65 96.14 3056.08 96.1239C3058.63 96.1211 3061.19 96.1184 3063.82 96.1155C3066.46 96.1074 3069.11 96.0992 3071.83 96.0906C3077.45 96.0782 3083.06 96.0724 3088.68 96.0729C3097.16 96.0676 3105.65 96.023 3114.14 95.976C3192.72 95.7704 3192.72 95.7704 3211.53 111.323C3227.06 126.02 3225.33 143.062 3225.35 162.389C3225.37 165.817 3225.37 165.817 3225.38 169.314C3225.39 174.135 3225.4 178.955 3225.4 183.775C3225.41 191.106 3225.46 198.437 3225.51 205.768C3225.51 210.468 3225.52 215.168 3225.52 219.868C3225.54 222.039 3225.56 224.21 3225.58 226.447C3225.51 242.973 3224.72 260.71 3212.36 273.746C3211.14 275.112 3209.91 276.478 3208.65 277.888C3192.4 289.125 3170.68 287.176 3151.4 287.21C3146.61 287.234 3146.61 287.234 3141.72 287.26C3134.98 287.284 3128.24 287.296 3121.5 287.296C3111.22 287.306 3100.93 287.397 3090.64 287.49C3084.08 287.505 3077.52 287.514 3070.96 287.519C3066.37 287.572 3066.37 287.572 3061.68 287.625C3044.37 287.534 3032.48 286.867 3018.87 276.519C3008.92 255.495 3012.69 225.66 3012.82 202.861C3012.85 196.56 3012.82 190.26 3012.78 183.958C3012.72 119.164 3012.72 119.164 3025.56 104.389C3034.09 97.5099 3037.94 96.2215 3048.95 96.1716ZM3085.76 153.239C3079.57 161.794 3079.75 165.123 3079.79 175.208C3079.8 178.054 3079.8 180.9 3079.81 183.833C3079.84 186.806 3079.87 189.779 3079.91 192.843C3079.91 195.826 3079.91 198.808 3079.92 201.882C3079.19 216.214 3079.19 216.214 3083.09 229.673C3106.05 229.673 3129 229.673 3152.66 229.673C3158.44 219.021 3155.83 204.697 3155.84 192.997C3155.88 188.568 3155.88 188.568 3155.93 184.049C3155.94 181.211 3155.95 178.373 3155.95 175.449C3155.96 172.846 3155.97 170.243 3155.98 167.562C3155.33 160.615 3154.1 156.57 3149.98 150.773C3131.86 143.647 3103.62 146.291 3085.76 153.239Z" fill="#008ae2" fill-opacity="0.933333" fill-rule="nonzero" opacity="1" stroke="none"/>
<path d="M1734.47 222.276C1743.14 228.601 1747.04 232.352 1750.53 242.001C1755.97 301.521 1742.54 386.308 1705.04 436.783C1694.3 445.435 1684.71 447.52 1670.42 447.35C1659.15 445.914 1651.98 439.387 1643.83 432.625C1634.93 415.763 1642.81 395.036 1648.01 378.072C1649.49 373.016 1650.98 367.961 1652.46 362.903C1653.21 360.393 1653.95 357.881 1654.72 355.294C1657.83 344.778 1660.82 334.238 1663.73 323.674C1664.27 321.73 1664.81 319.784 1665.37 317.78C1668.54 306.037 1671.21 294.272 1673.59 282.365C1674.15 279.58 1674.71 276.792 1675.29 273.923C1676.37 268.477 1677.4 263.023 1678.38 257.561C1681.32 242.651 1683.64 233.983 1697.01 224.742C1708.88 218.059 1721.42 218.855 1734.47 222.276Z" fill="#008ae2" fill-opacity="0.933333" fill-rule="nonzero" opacity="1" stroke="none"/>
<path d="M2075.81 208.715C2121.52 234.637 2141.11 318.832 2154.19 363.181C2158.06 378.75 2158.43 392.018 2151.06 406.889C2145.99 412.774 2143.65 414.922 2135.84 417.06C2120.32 418.232 2109.4 417.278 2095.71 409.663C2081.46 392.55 2075.19 372.618 2067.82 352.411C2056.65 321.788 2045.3 291.465 2030.26 262.23C2024.59 250.909 2022.01 242.43 2023.46 229.673C2034.72 208.928 2051.98 204.432 2075.81 208.715Z" fill="#008ae2" fill-opacity="0.933333" fill-rule="nonzero" opacity="1" stroke="none"/>
<path d="M1852.21 84.2018C1874.29 89.0067 1893.07 104.071 1911.08 116.255C1912.54 117.242 1914 118.228 1915.51 119.245C1977.07 161.006 1977.07 161.006 1983.32 177.895C1985.21 192.87 1985.43 207.363 1975.3 219.81C1963.67 227.117 1954.38 229.511 1940.51 227.207C1923.55 218.305 1909.44 206.234 1895.36 193.922C1879.8 180.336 1862.75 170.495 1844.18 160.636C1806.24 140.026 1806.24 140.026 1796.01 121.186C1794.55 107.133 1797.06 100.067 1806.72 89.1328C1820.41 80.7219 1836.23 82.9577 1852.21 84.2018Z" fill="#008ae2" fill-opacity="0.933333" fill-rule="nonzero" opacity="1" stroke="none"/>
<path d="M2307.1 343.091C2317.96 350.879 2323.32 357.739 2325.83 370.214C2325.56 389.379 2320.91 405.921 2313.45 423.686C2312.49 426.028 2311.54 428.37 2310.55 430.781C2307.67 437.735 2304.73 444.66 2301.75 451.578C2300.91 453.532 2300.07 455.488 2299.21 457.501C2275.93 511.072 2275.93 511.072 2253.58 523.081C2245.98 524.064 2245.98 524.064 2237.69 524.006C2234.97 524.025 2232.24 524.045 2229.43 524.064C2217.69 522.614 2210.62 518.575 2203.24 510.137C2198.11 499.194 2198.3 491.08 2202.32 479.711C2209.06 464.086 2217.53 449.526 2226.39 434.863C2235.63 419.067 2242.28 402.469 2248.79 385.579C2255.77 367.74 2262.89 354.221 2280.34 343.091C2290.63 339.932 2296.57 340.751 2307.1 343.091Z" fill="#008ae2" fill-opacity="0.933333" fill-rule="nonzero" opacity="1" stroke="none"/>
<path d="M2283.68 92.0513C2303.81 105.333 2335.48 133.266 2340.37 156.224C2340.39 170.449 2337.93 178.798 2328.5 190.223C2317.77 196.888 2309.26 199.349 2296.39 197.62C2284.71 191.11 2274.46 183.476 2264.45 174.967C2263.06 173.784 2261.66 172.601 2260.23 171.382C2243.07 156.53 2223.44 138.463 2220.47 116.101C2221.68 107.321 2223.28 103.329 2229.5 96.5298C2246.23 84.8432 2264.92 82.9577 2283.68 92.0513Z" fill="#008ae2" fill-opacity="0.933333" fill-rule="nonzero" opacity="1" stroke="none"/>
<path d="M2261.61 212.414C2271.55 218.91 2279.85 226.605 2288.37 234.604C2290.34 236.308 2292.31 238.011 2294.35 239.766C2309.9 253.341 2323.56 266.173 2324.83 286.69C2324.32 295.07 2322.96 300.6 2317.47 307.341C2306.22 316.349 2298.59 318.207 2283.85 318.897C2256.52 314.724 2232.42 285.472 2216.12 266.657C2207.34 254.724 2203.59 244.228 2205.42 229.673C2207.9 221.439 2210.31 220.058 2218.46 215.65C2233.28 209.913 2246.03 207.672 2261.61 212.414Z" fill="#4caf50" fill-opacity="0.933333" fill-rule="nonzero" opacity="1" stroke="none"/>
<path d="M2807.03 68.6355C2789.23 69.4596 2776.66 79.3023 2768.6 98.0747C2762.47 112.857 2756.25 125.275 2744.93 137.402C2735.83 147.052 2732 152.672 2732.57 165.568C2737.92 172.965 2737.9 172.984 2744.26 178.377C2755.92 185.383 2755.91 185.333 2786.06 182.797C2791.93 180.091 2791.92 180.096 2799.09 171.86C2807.34 162.327 2813.76 158.931 2826.81 156.579C2830 156.166 2833.14 155.781 2836.24 155.38C2841.82 154.645 2847.37 153.906 2852.95 153.208C2852.95 163.267 2852.95 173.033 2852.95 182.797C2822.24 182.382 2790.68 180.58 2760.36 185.943C2750.62 188.768 2745.83 192.043 2740.59 200.101C2739.22 209.071 2739.22 214.656 2743.43 222.873C2757.15 234.288 2772.13 235.534 2789.88 236.132C2792.61 236.189 2795.31 236.226 2797.97 236.282C2805.68 236.521 2813.39 236.771 2821.11 236.956C2822.85 236.993 2824.52 237.07 2826.21 237.106C2815.77 251.529 2801.6 261.043 2785.08 269.092C2770.36 276.233 2755.52 283.274 2743.28 293.812C2739.77 302.751 2739.75 302.721 2740.59 311.041C2745.42 322.307 2753.05 327.777 2764.63 333.214C2780.36 334.904 2792.74 331.931 2807.7 327.446C2809.44 326.895 2811.11 326.333 2812.8 325.798C2795.85 346.705 2795.87 346.732 2796.17 408.572C2796.22 413.841 2796.24 419.109 2796.24 424.378C2796.24 455.6 2793.58 488.665 2815.2 514.494C2828.99 523.365 2847.69 523.631 2864.04 523.708C2866.39 523.693 2868.64 523.722 2870.93 523.708C2878.78 523.722 2886.68 523.732 2894.52 523.708C2900.13 523.688 2905.69 523.635 2911.3 523.633C2923.08 523.635 2934.89 523.661 2946.66 523.633C2961.88 523.59 2977.06 523.558 2992.28 523.558C3004.19 523.56 3016.1 523.497 3028.01 523.483C3033.72 523.473 3039.45 523.49 3045.17 523.483C3082.41 523.471 3143.82 531.707 3175.43 510.299C3188.04 497.228 3187.98 497.235 3188.09 465.428C3188.07 462.741 3188.11 460.096 3188.09 457.488C3188.09 451.891 3188.02 446.303 3188.02 440.708C3187.97 431.942 3187.95 423.182 3187.94 414.415C3187.94 408.672 3187.95 402.93 3187.94 397.186C3187.93 394.379 3187.88 391.672 3187.87 388.946C3187.84 365.87 3190.47 340.501 3171.91 322.727C3158.24 313.038 3158.21 313.031 3068.69 313.213C3062.36 313.228 3056.06 313.286 3049.74 313.288C3033.1 313.295 3016.41 313.262 2999.77 313.288C2982.55 313.317 2965.38 313.349 2948.16 313.363C2912.55 313.387 2876.95 313.458 2841.34 313.513C2839.84 313.515 2838.38 313.511 2836.92 313.513C2840.99 310.565 2845.08 307.628 2849.2 304.749C2850.95 303.536 2852.61 302.33 2854.3 301.153C2860.74 296.44 2866.94 292.154 2874.37 288.868C2884.35 287.367 2892.97 287.551 2902.16 291.789C2912.92 298.631 2923.6 304.508 2935.95 308.569C2950.66 310.07 2967.81 311.632 2980.37 303.176C2985.75 296.639 2986.56 292.108 2986.74 283.924C2979.9 272.133 2971.19 264.736 2959.92 256.432C2957.91 254.985 2955.96 253.567 2954 252.163C2948.35 248.02 2942.68 243.912 2937 239.803C2935.72 238.882 2934.49 237.999 2933.25 237.106C2939.74 236.619 2946.25 236.055 2952.73 235.533C2955.44 235.313 2958.04 235.146 2960.67 234.933C2963.34 234.734 2965.94 234.528 2968.53 234.334C2971.11 234.121 2973.6 233.941 2976.1 233.735C2985.36 233.006 2992.16 231.702 3000.15 227.218C3004 221.922 3005.41 218.117 3006.21 211.787C3006.19 208.912 3006.16 208.911 3006.14 206.093C3006.2 197.349 3005.69 195.409 3000.15 187.741C2985.6 182.261 2969.4 182.322 2953.93 182.422C2950.13 182.486 2950.15 182.435 2946.44 182.497C2939.16 182.56 2931.91 182.618 2924.64 182.722C2922.23 182.761 2922.21 182.758 2919.84 182.797C2920.56 174.439 2920.59 174.469 2922.54 165.568C2927.03 159.007 2929.88 158.357 2938.12 156.579C2942.59 156.078 2942.58 156.021 2946.96 155.53C2950.15 155.127 2953.23 154.722 2956.32 154.331C2965.85 153.141 2975.22 151.942 2984.56 149.837C2992.49 147.398 2995.88 145.114 3000.15 138.451C3001.91 126.774 3001.95 118.809 2994.75 108.862C2978.26 98.468 2978.28 98.4786 2900.74 98.8238C2896.03 98.8454 2891.3 98.8113 2886.58 98.8238C2875.63 98.8468 2864.73 98.9285 2853.77 98.9736C2849.32 98.9935 2849.3 98.9542 2844.93 98.9736C2845.27 92.0391 2845.27 92.0756 2844.93 84.2165C2839.43 76.6074 2835.65 74.1673 2826.58 70.8078C2819.45 69.0735 2812.96 68.3607 2807.03 68.6355ZM3068.01 360.481C3087.7 360.445 3106.67 362.351 3115.21 370.219C3115.21 375.873 3115.21 381.335 3115.21 386.849L3115.21 397.336L3115.21 441.682C3115.21 443.867 3115.21 445.972 3115.21 448.124C3115.21 453.406 3115.21 458.728 3115.21 463.93C3106.66 471.8 3094.68 471.915 3083.29 472.02C3081.19 472.013 3079.19 471.953 3077.15 471.946C3070.23 471.986 3063.25 472.023 3056.33 472.02C3051.38 472.018 3046.44 472.086 3041.5 472.095C3031.18 472.119 3020.88 472.105 3010.56 472.095C2997.14 472.079 2983.68 472.04 2970.26 472.095C2959.78 472.141 2949.35 472.17 2938.87 472.17C2933.87 472.165 2928.88 472.17 2923.89 472.17C2916.7 472.206 2909.5 472.264 2902.31 472.245C2900.08 472.236 2897.89 472.252 2895.72 472.245C2892.58 472.274 2892.58 472.219 2889.5 472.245C2877.63 472.137 2875.17 472.049 2866.36 463.93C2866.36 458.569 2866.36 453.339 2866.36 448.124L2865.91 448.124L2865.91 389.995C2864.75 375.921 2865 371.989 2869.05 365.275C2901.25 362.406 2901.21 362.441 2933.63 362.503C2936.84 362.508 2939.95 362.499 2943.06 362.503C2949.93 362.499 2956.8 362.506 2963.66 362.503C2974.28 362.52 2984.88 362.515 2995.5 362.503C3002.48 362.492 3009.5 362.506 3016.48 362.503C3027.92 362.518 3048.33 360.517 3068.01 360.481Z" fill="#008ae2" fill-opacity="0.933333" fill-rule="nonzero" opacity="1" stroke="none"/>
<path d="M2865.9 397.495L3116.4 397.495L3116.4 437.459L2865.9 437.459L2865.9 397.495Z" fill="#58b45c" fill-rule="nonzero" opacity="1" stroke="none"/>
</g>
<g opacity="1">
<path d="M1734.52 713.676L1658.49 616.577L1716.71 616.577L1763.85 678.268L1811.85 616.577L1871.81 616.577L1793.61 713.676L1884.19 828.153L1825.97 828.153L1763.85 749.083L1700.2 828.153L1640.47 828.153L1734.52 713.676Z" fill="#008ae2" fill-rule="nonzero" opacity="1" stroke="none"/>
<path d="M1945.1 616.577L1945.1 828.153L1896.22 828.153L1896.22 616.577L1945.1 616.577Z" fill="#008ae2" fill-rule="nonzero" opacity="1" stroke="none"/>
<path d="M1888.84 565.416C1888.84 556.872 1891.95 549.487 1898.18 543.26C1904.4 537.033 1911.86 533.919 1920.55 533.919C1929.38 533.919 1936.91 537.033 1943.14 543.26C1949.37 549.342 1952.48 556.8 1952.48 565.634C1952.48 574.467 1949.37 581.998 1943.14 588.225C1937.06 594.452 1929.6 597.565 1920.77 597.565C1911.93 597.565 1904.4 594.452 1898.18 588.225C1891.95 581.998 1888.84 574.395 1888.84 565.416Z" fill="#008ae2" fill-rule="nonzero" opacity="1" stroke="none"/>
<path d="M1986.02 616.577L2034.89 616.577L2034.89 636.127C2044.31 626.28 2052.34 619.618 2059.01 616.143C2066.1 612.522 2075.01 610.712 2085.72 610.712C2109.62 610.712 2128.52 621.139 2142.42 641.992C2157.77 621.139 2178.55 610.712 2204.76 610.712C2252.41 610.712 2276.23 639.603 2276.23 697.384L2276.23 828.153L2227.14 828.153L2227.14 710.635C2227.14 690.361 2224.67 676.024 2219.75 667.625C2214.68 659.08 2206.36 654.808 2194.77 654.808C2181.3 654.808 2171.49 659.877 2165.34 670.014C2159.18 680.151 2156.1 696.443 2156.1 718.889L2156.1 828.153L2107.01 828.153L2107.01 711.286C2107.01 673.634 2096.15 654.808 2074.43 654.808C2060.67 654.808 2050.64 659.949 2044.34 670.231C2038.04 680.513 2034.89 696.732 2034.89 718.889L2034.89 828.153L1986.02 828.153L1986.02 616.577Z" fill="#008ae2" fill-rule="nonzero" opacity="1" stroke="none"/>
<path d="M2306.94 720.844C2306.94 690.288 2317.87 664.294 2339.74 642.861C2361.61 621.428 2388.25 610.712 2419.68 610.712C2451.25 610.712 2478.04 621.501 2500.05 643.078C2521.77 664.656 2532.64 691.157 2532.64 722.582C2532.64 754.297 2521.7 780.87 2499.84 802.303C2477.82 823.591 2450.82 834.235 2418.81 834.235C2387.1 834.235 2360.52 823.374 2339.09 801.651C2317.66 780.219 2306.94 753.283 2306.94 720.844ZM2356.9 721.713C2356.9 742.856 2362.55 759.582 2373.85 771.892C2385.43 784.346 2400.71 790.573 2419.68 790.573C2438.8 790.573 2454.07 784.418 2465.51 772.109C2476.95 759.8 2482.67 743.363 2482.67 722.799C2482.67 702.235 2476.95 685.799 2465.51 673.49C2453.93 661.035 2438.65 654.808 2419.68 654.808C2401 654.808 2385.87 661.035 2374.28 673.49C2362.69 685.944 2356.9 702.018 2356.9 721.713Z" fill="#008ae2" fill-rule="nonzero" opacity="1" stroke="none"/>
<path d="M2563.35 616.577L2612.22 616.577L2612.22 635.475C2621.2 626.062 2629.17 619.618 2636.12 616.143C2643.21 612.522 2651.61 610.712 2661.32 610.712C2674.2 610.712 2687.67 614.912 2701.72 623.311L2679.35 668.059C2670.08 661.397 2661.03 658.067 2652.19 658.067C2625.55 658.067 2612.22 678.196 2612.22 718.455L2612.22 828.153L2563.35 828.153L2563.35 616.577Z" fill="#008ae2" fill-rule="nonzero" opacity="1" stroke="none"/>
<path d="M2930.41 803.824C2930.41 795.714 2933.37 788.69 2939.31 782.753C2945.25 776.816 2952.35 773.847 2960.6 773.847C2968.85 773.847 2975.95 776.816 2981.89 782.753C2987.83 788.69 2990.79 795.786 2990.79 804.041C2990.79 812.44 2987.83 819.609 2981.89 825.546C2976.1 831.339 2969 834.235 2960.6 834.235C2952.06 834.235 2944.89 831.339 2939.09 825.546C2933.3 819.753 2930.41 812.513 2930.41 803.824Z" fill="#008ae2" fill-rule="nonzero" opacity="1" stroke="none"/>
<path d="M3203.76 625.7L3203.76 690.65C3192.61 677.038 3182.61 667.697 3173.78 662.628C3165.09 657.415 3154.88 654.808 3143.15 654.808C3124.76 654.808 3109.48 661.253 3097.32 674.141C3085.15 687.03 3079.07 703.177 3079.07 722.582C3079.07 742.422 3084.94 758.714 3096.67 771.457C3108.54 784.201 3123.67 790.573 3142.07 790.573C3153.8 790.573 3164.15 788.039 3173.13 782.97C3181.82 778.046 3192.03 768.489 3203.76 754.297L3203.76 818.812C3183.92 829.094 3164.08 834.235 3144.24 834.235C3111.51 834.235 3084.14 823.663 3062.13 802.52C3040.12 781.232 3029.11 754.804 3029.11 723.234C3029.11 691.664 3040.26 665.018 3062.56 643.295C3084.86 621.573 3112.23 610.712 3144.67 610.712C3165.53 610.712 3185.22 615.708 3203.76 625.7Z" fill="#008ae2" fill-rule="nonzero" opacity="1" stroke="none"/>
<path d="M3220.13 720.844C3220.13 690.288 3231.07 664.294 3252.93 642.861C3274.8 621.428 3301.45 610.712 3332.87 610.712C3364.44 610.712 3391.23 621.501 3413.24 643.078C3434.97 664.656 3445.83 691.157 3445.83 722.582C3445.83 754.297 3434.89 780.87 3413.03 802.303C3391.01 823.591 3364.01 834.235 3332 834.235C3300.29 834.235 3273.71 823.374 3252.28 801.651C3230.85 780.219 3220.13 753.283 3220.13 720.844ZM3270.09 721.713C3270.09 742.856 3275.74 759.582 3287.04 771.892C3298.62 784.346 3313.9 790.573 3332.87 790.573C3351.99 790.573 3367.26 784.418 3378.71 772.109C3390.15 759.8 3395.87 743.363 3395.87 722.799C3395.87 702.235 3390.15 685.799 3378.71 673.49C3367.12 661.035 3351.84 654.808 3332.87 654.808C3314.19 654.808 3299.06 661.035 3287.47 673.49C3275.89 685.944 3270.09 702.018 3270.09 721.713Z" fill="#008ae2" fill-rule="nonzero" opacity="1" stroke="none"/>
<path d="M3476.54 616.577L3525.41 616.577L3525.41 636.127C3534.83 626.28 3542.87 619.618 3549.53 616.143C3556.62 612.522 3565.53 610.712 3576.25 610.712C3600.14 610.712 3619.04 621.139 3632.94 641.992C3648.29 621.139 3669.07 610.712 3695.28 610.712C3742.93 610.712 3766.75 639.603 3766.75 697.384L3766.75 828.153L3717.66 828.153L3717.66 710.635C3717.66 690.361 3715.2 676.024 3710.27 667.625C3705.2 659.08 3696.88 654.808 3685.29 654.808C3671.82 654.808 3662.01 659.877 3655.86 670.014C3649.7 680.151 3646.63 696.443 3646.63 718.889L3646.63 828.153L3597.53 828.153L3597.53 711.286C3597.53 673.634 3586.67 654.808 3564.95 654.808C3551.19 654.808 3541.16 659.949 3534.86 670.231C3528.56 680.513 3525.41 696.732 3525.41 718.889L3525.41 828.153L3476.54 828.153L3476.54 616.577Z" fill="#008ae2" fill-rule="nonzero" opacity="1" stroke="none"/>
<path d="M2719.47 616.59L2814.65 829.963L2785.05 898.607L2838.96 898.607L2956.46 616.59L2901.32 616.59L2840.88 767.301L2776.15 616.59L2719.47 616.59Z" fill="#008ae2" fill-rule="nonzero" opacity="1" stroke="none"/>
</g>
</g>
</g>
</svg>
