<?xml version="1.0" encoding="UTF-8" standalone="no"?>
<!DOCTYPE svg PUBLIC "-//W3C//DTD SVG 1.1//EN" "http://www.w3.org/Graphics/SVG/1.1/DTD/svg11.dtd">
<!-- Created with Vectornator (http://vectornator.io/) -->
<svg height="1280.0pt" stroke-miterlimit="10" style="fill-rule:nonzero;clip-rule:evenodd;stroke-linecap:round;stroke-linejoin:round;" version="1.1" viewBox="0 0 1024 1280" width="1024.0pt" xml:space="preserve" xmlns="http://www.w3.org/2000/svg" xmlns:xlink="http://www.w3.org/1999/xlink">
<defs>
<linearGradient gradientTransform="matrix(150.054 -209.075 186.589 168.137 585.75 577.488)" gradientUnits="userSpaceOnUse" id="LinearGradient" x1="0" x2="1" y1="0" y2="0">
<stop offset="0" stop-color="#0072bb"/>
<stop offset="1" stop-color="#00a651"/>
</linearGradient>
<linearGradient gradientTransform="matrix(834.75 0 0 834.75 94.6248 876.44)" gradientUnits="userSpaceOnUse" id="LinearGradient_2" x1="0" x2="1" y1="0" y2="0">
<stop offset="0" stop-color="#00a165"/>
<stop offset="1" stop-color="#0072bb"/>
</linearGradient>
</defs>
<g id="图层-1">
<g opacity="1">
<path d="M509.493 147.649C464.072 148.598 419.364 179.718 405.445 240.379C402.049 255.179 401.293 647.457 404.632 662.274C417.215 718.108 453.529 752.561 509.458 761.725C558.929 769.831 607.906 733.341 648.51 658.125C658.062 640.429 656.212 640.827 669.237 653.651C704.813 688.679 744.051 712.037 781.375 720.408C786.407 721.537 790.814 722.661 791.17 722.906C793.356 724.408 819.517 725.589 829.686 724.644C969.73 711.638 998.419 493.161 866.349 445.443C807.78 424.282 738.357 452.731 673.922 524.298C665.884 533.225 659.094 540.289 658.832 539.999C656.042 536.898 639.705 498.811 635.653 485.959C621.877 442.271 621.146 434.589 620.604 327.835C620.179 244.343 620.179 244.344 617.829 235.94C601.049 175.921 554.914 146.699 509.493 147.649ZM507.712 204.085C532.578 204.236 557.589 223.076 560.809 258.538C561.365 264.67 561.69 296.654 561.626 338.553C561.496 422.39 562.493 439.116 569.494 470.619C576.402 501.71 595.284 548.888 612.15 577.203C618.712 588.218 620.374 583.246 597.203 621.856C564.278 676.719 551.492 690.064 527.831 694.254C493.608 700.315 463.546 676.81 456.47 638.456C453.802 624 454.574 261.223 457.298 248.766C463.945 218.372 485.772 203.953 507.712 204.085ZM830.769 500.039C835.138 500.266 839.363 500.963 843.447 502.129C919.734 523.909 906.729 651.49 827.245 661.068C818.862 662.078 810.628 662.222 806.001 661.442C778.563 656.816 745.866 639.576 719.029 615.587C709.023 606.642 692.649 590.447 692.928 589.77C693.214 589.075 710.963 570.414 716.476 565.013C762.522 519.891 800.188 498.447 830.769 500.039Z" fill="url(#LinearGradient)" fill-rule="nonzero" opacity="1" stroke="none"/>
<path d="M664.936 499.472C644.691 461.06 639.37 400.531 651.569 347.432C676.316 239.717 779.93 157.708 902.863 148.537C920.321 147.234 918.325 145.033 923.487 171.289C943.541 273.29 925.668 364.453 874.91 419.054C869.378 425.006 870.163 424.907 857.779 421.207C814.696 408.337 763.238 421.521 712.313 458.477C704.272 464.312 704.219 464.174 707.689 446.446C719.502 386.09 743.105 335.484 785.656 279.283C799.344 261.202 799.282 260.995 784.387 275.089C732.77 323.935 701.677 376.516 680.468 450.828C678.186 458.824 669.668 497.449 669.66 499.837C669.647 503.96 667.202 503.771 664.936 499.472L664.936 499.472Z" fill="#00a651" fill-rule="nonzero" opacity="1" stroke="none"/>
<path d="M108.479 681.075C108.479 690.802 100.75 698.77 91.0271 699.066C81.304 699.362 73.1048 691.88 72.5129 682.17C71.9209 672.461 79.1505 664.038 88.8376 663.151C98.5247 662.263 107.164 669.233 108.346 678.889" fill="#0172bb" fill-rule="nonzero" opacity="1" stroke="none"/>
<path d="M174.479 681.075C174.479 690.802 166.75 698.77 157.027 699.066C147.304 699.362 139.105 691.88 138.513 682.17C137.921 672.461 145.15 664.038 154.838 663.151C164.525 662.263 173.164 669.233 174.346 678.889" fill="#0172bb" fill-rule="nonzero" opacity="1" stroke="none"/>
<path d="M174.479 629.075C174.479 638.802 166.75 646.77 157.027 647.066C147.304 647.362 139.105 639.88 138.513 630.17C137.921 620.461 145.15 612.038 154.838 611.151C164.525 610.263 173.164 617.233 174.346 626.889" fill="#0172bb" fill-rule="nonzero" opacity="1" stroke="none"/>
<path d="M372.479 577.075C372.479 586.802 364.75 594.77 355.027 595.066C345.304 595.362 337.105 587.88 336.513 578.17C335.921 568.461 343.15 560.038 352.838 559.151C362.525 558.263 371.164 565.233 372.346 574.889" fill="#0172bb" fill-rule="nonzero" opacity="1" stroke="none"/>
<path d="M108.479 681.075C108.479 690.802 100.75 698.77 91.0271 699.066C81.304 699.362 73.1048 691.88 72.5129 682.17C71.9209 672.461 79.1505 664.038 88.8376 663.151C98.5247 662.263 107.164 669.233 108.346 678.889" fill="#0172bb" fill-rule="nonzero" opacity="1" stroke="none"/>
<path d="M240.479 577.075C240.479 586.802 232.75 594.77 223.027 595.066C213.304 595.362 205.105 587.88 204.513 578.17C203.921 568.461 211.15 560.038 220.838 559.151C230.525 558.263 239.164 565.233 240.346 574.889" fill="#0172bb" fill-rule="nonzero" opacity="1" stroke="none"/>
<path d="M372.479 629.075C372.479 638.802 364.75 646.77 355.027 647.066C345.304 647.362 337.105 639.88 336.513 630.17C335.921 620.461 343.15 612.038 352.838 611.151C362.525 610.263 371.164 617.233 372.346 626.889" fill="#0172bb" fill-rule="nonzero" opacity="1" stroke="none"/>
<path d="M240.479 629.075C240.479 638.802 232.75 646.77 223.027 647.066C213.304 647.362 205.105 639.88 204.513 630.17C203.921 620.461 211.15 612.038 220.838 611.151C230.525 610.263 239.164 617.233 240.346 626.889" fill="#0172bb" fill-rule="nonzero" opacity="1" stroke="none"/>
<path d="M306.479 629.075C306.479 638.802 298.75 646.77 289.027 647.066C279.304 647.362 271.105 639.88 270.513 630.17C269.921 620.461 277.15 612.038 286.838 611.151C296.525 610.263 305.164 617.233 306.346 626.889" fill="#0172bb" fill-rule="nonzero" opacity="1" stroke="none"/>
<path d="M174.479 681.075C174.479 690.802 166.75 698.77 157.027 699.066C147.304 699.362 139.105 691.88 138.513 682.17C137.921 672.461 145.15 664.038 154.838 663.151C164.525 662.263 173.164 669.233 174.346 678.889" fill="#0172bb" fill-rule="nonzero" opacity="1" stroke="none"/>
<path d="M240.479 681.075C240.479 690.802 232.75 698.77 223.027 699.066C213.304 699.362 205.105 691.88 204.513 682.17C203.921 672.461 211.15 664.038 220.838 663.151C230.525 662.263 239.164 669.233 240.346 678.889" fill="#0172bb" fill-rule="nonzero" opacity="1" stroke="none"/>
<path d="M306.479 681.075C306.479 690.802 298.75 698.77 289.027 699.066C279.304 699.362 271.105 691.88 270.513 682.17C269.921 672.461 277.15 664.038 286.838 663.151C296.525 662.263 305.164 669.233 306.346 678.889" fill="#0172bb" fill-rule="nonzero" opacity="1" stroke="none"/>
<path d="M372.479 681.075C372.479 690.802 364.75 698.77 355.027 699.066C345.304 699.362 337.105 691.88 336.513 682.17C335.921 672.461 343.15 664.038 352.838 663.151C362.525 662.263 371.164 669.233 372.346 678.889" fill="#0172bb" fill-rule="nonzero" opacity="1" stroke="none"/>
<path d="M306.479 577.075C306.479 586.802 298.75 594.77 289.027 595.066C279.304 595.362 271.105 587.88 270.513 578.17C269.921 568.461 277.15 560.038 286.838 559.151C296.525 558.263 305.164 565.233 306.346 574.889" fill="#0172bb" fill-rule="nonzero" opacity="1" stroke="none"/>
<path d="M372.479 525.075C372.479 534.802 364.75 542.77 355.027 543.066C345.304 543.362 337.105 535.88 336.513 526.17C335.921 516.461 343.15 508.038 352.838 507.151C362.525 506.263 371.164 513.233 372.346 522.889" fill="#00a651" fill-rule="nonzero" opacity="1" stroke="none"/>
<path d="M306.479 525.075C306.479 534.802 298.75 542.77 289.027 543.066C279.304 543.362 271.105 535.88 270.513 526.17C269.921 516.461 277.15 508.038 286.838 507.151C296.525 506.263 305.164 513.233 306.346 522.889" fill="#00a651" fill-rule="nonzero" opacity="1" stroke="none"/>
<path d="M372.479 473.075C372.479 482.802 364.75 490.77 355.027 491.066C345.304 491.362 337.105 483.88 336.513 474.17C335.921 464.461 343.15 456.038 352.838 455.151C362.525 454.263 371.164 461.233 372.346 470.889" fill="#00a651" fill-rule="nonzero" opacity="1" stroke="none"/>
</g>
<g opacity="1">
<path d="M229.289 1076.36L209.714 1050.9L226.008 1050.9L237.775 1067.76L249.883 1050.9L265.498 1050.9L246.035 1076.36L268.213 1105.22L251.693 1105.22L237.549 1085.42L223.292 1105.22L207.224 1105.22L229.289 1076.36Z" fill="#0072bb" fill-rule="nonzero" opacity="1" stroke="none"/>
<path d="M276.473 1050.9L290.052 1050.9L290.052 1105.22L276.473 1105.22L276.473 1050.9ZM274.55 1032.46C274.55 1030.27 275.361 1028.37 276.983 1026.75C278.604 1025.12 280.66 1024.31 283.149 1024.31C285.639 1024.31 287.732 1025.09 289.429 1026.63C291.127 1028.18 291.975 1030.12 291.975 1032.46C291.975 1034.8 291.127 1036.74 289.429 1038.29C287.732 1039.83 285.639 1040.61 283.149 1040.61C280.66 1040.61 278.604 1039.8 276.983 1038.17C275.361 1036.55 274.55 1034.65 274.55 1032.46Z" fill="#0072bb" fill-rule="nonzero" opacity="1" stroke="none"/>
<path d="M371.408 1049.32C374.954 1049.32 377.99 1049.94 380.517 1051.19C383.044 1052.43 385.119 1054.07 386.74 1056.11C388.362 1058.15 389.55 1060.48 390.305 1063.12C391.059 1065.76 391.436 1068.48 391.436 1071.27L391.436 1105.22L377.858 1105.22L377.858 1075.12C377.858 1073.53 377.745 1071.87 377.518 1070.14C377.292 1068.4 376.802 1066.84 376.047 1065.44C375.293 1064.05 374.256 1062.9 372.936 1061.99C371.616 1061.09 369.862 1060.64 367.674 1060.64C365.562 1060.64 363.752 1061.09 362.243 1061.99C360.734 1062.9 359.49 1064.07 358.509 1065.5C357.528 1066.93 356.812 1068.54 356.359 1070.31C355.906 1072.08 355.68 1073.84 355.68 1075.57L355.68 1105.22L342.102 1105.22L342.102 1072.4C342.102 1069.01 341.291 1066.2 339.669 1063.97C338.047 1061.75 335.501 1060.64 332.031 1060.64C329.994 1060.64 328.222 1061.07 326.713 1061.94C325.204 1062.8 323.979 1063.92 323.036 1065.27C322.093 1066.63 321.376 1068.2 320.886 1069.97C320.395 1071.74 320.15 1073.53 320.15 1075.34L320.15 1105.22L306.572 1105.22L306.572 1050.9L319.471 1050.9L319.471 1059.62L319.698 1059.62C320.301 1058.26 321.112 1056.98 322.13 1055.77C323.149 1054.56 324.356 1053.47 325.751 1052.49C327.147 1051.51 328.75 1050.73 330.56 1050.17C332.371 1049.6 334.37 1049.32 336.557 1049.32C340.782 1049.32 344.289 1050.26 347.08 1052.15C349.872 1054.03 352.021 1056.52 353.53 1059.62C355.341 1056.3 357.755 1053.75 360.772 1051.98C363.789 1050.21 367.335 1049.32 371.408 1049.32Z" fill="#0072bb" fill-rule="nonzero" opacity="1" stroke="none"/>
<path d="M404.109 1077.83C404.109 1073.53 404.882 1069.63 406.429 1066.12C407.975 1062.62 410.069 1059.62 412.709 1057.13C415.349 1054.64 418.48 1052.71 422.1 1051.36C425.721 1050 429.569 1049.32 433.642 1049.32C437.716 1049.32 441.563 1050 445.184 1051.36C448.804 1052.71 451.935 1054.64 454.575 1057.13C457.215 1059.62 459.309 1062.62 460.855 1066.12C462.402 1069.63 463.175 1073.53 463.175 1077.83C463.175 1082.13 462.402 1086.06 460.855 1089.6C459.309 1093.15 457.215 1096.18 454.575 1098.71C451.935 1101.24 448.804 1103.22 445.184 1104.65C441.563 1106.08 437.716 1106.8 433.642 1106.8C429.569 1106.8 425.721 1106.08 422.1 1104.65C418.48 1103.22 415.349 1101.24 412.709 1098.71C410.069 1096.18 407.975 1093.15 406.429 1089.6C404.882 1086.06 404.109 1082.13 404.109 1077.83ZM417.914 1077.83C417.914 1079.95 418.234 1082.06 418.876 1084.17C419.517 1086.28 420.479 1088.17 421.761 1089.83C423.043 1091.49 424.665 1092.85 426.627 1093.9C428.588 1094.96 430.926 1095.49 433.642 1095.49C436.358 1095.49 438.696 1094.96 440.657 1093.9C442.619 1092.85 444.241 1091.49 445.523 1089.83C446.805 1088.17 447.767 1086.28 448.408 1084.17C449.05 1082.06 449.37 1079.95 449.37 1077.83C449.37 1075.72 449.05 1073.63 448.408 1071.55C447.767 1069.48 446.805 1067.61 445.523 1065.95C444.241 1064.29 442.619 1062.95 440.657 1061.94C438.696 1060.92 436.358 1060.41 433.642 1060.41C430.926 1060.41 428.588 1060.92 426.627 1061.94C424.665 1062.95 423.043 1064.29 421.761 1065.95C420.479 1067.61 419.517 1069.48 418.876 1071.55C418.234 1073.63 417.914 1075.72 417.914 1077.83Z" fill="#0072bb" fill-rule="nonzero" opacity="1" stroke="none"/>
<path d="M476.3 1050.9L489.313 1050.9L489.313 1059.96L489.539 1059.96C491.048 1056.79 493.16 1054.22 495.876 1052.26C498.591 1050.3 501.76 1049.32 505.381 1049.32C505.909 1049.32 506.474 1049.34 507.078 1049.38C507.681 1049.41 508.209 1049.51 508.662 1049.66L508.662 1062.11C507.757 1061.88 506.984 1061.73 506.342 1061.65C505.701 1061.58 505.079 1061.54 504.475 1061.54C501.383 1061.54 498.893 1062.11 497.007 1063.24C495.121 1064.37 493.65 1065.73 492.594 1067.31C491.538 1068.9 490.822 1070.52 490.444 1072.18C490.067 1073.84 489.879 1075.16 489.879 1076.14L489.879 1105.22L476.3 1105.22L476.3 1050.9Z" fill="#0072bb" fill-rule="nonzero" opacity="1" stroke="none"/>
<path d="M516.13 1050.9L531.179 1050.9L546.342 1090.39L546.568 1090.39L560.033 1050.9L574.177 1050.9L548.492 1116.87C547.511 1119.36 546.455 1121.57 545.323 1123.49C544.192 1125.41 542.834 1127.04 541.25 1128.36C539.666 1129.68 537.799 1130.68 535.649 1131.36C533.499 1132.03 530.915 1132.37 527.898 1132.37C526.766 1132.37 525.616 1132.32 524.447 1132.2C523.278 1132.09 522.089 1131.88 520.882 1131.58L522.014 1119.81C522.919 1120.12 523.806 1120.32 524.673 1120.44C525.541 1120.55 526.351 1120.61 527.106 1120.61C528.539 1120.61 529.746 1120.44 530.727 1120.1C531.707 1119.76 532.537 1119.23 533.216 1118.51C533.895 1117.8 534.498 1116.91 535.026 1115.85C535.555 1114.8 536.12 1113.55 536.724 1112.12L539.439 1105.22L516.13 1050.9Z" fill="#0072bb" fill-rule="nonzero" opacity="1" stroke="none"/>
<path d="M575.761 1097.3C575.761 1094.88 576.648 1092.81 578.42 1091.07C580.193 1089.34 582.324 1088.47 584.814 1088.47C587.227 1088.47 589.34 1089.3 591.15 1090.96C592.96 1092.62 593.866 1094.66 593.866 1097.07C593.866 1099.48 592.979 1101.56 591.207 1103.29C589.434 1105.03 587.303 1105.9 584.814 1105.9C583.607 1105.9 582.456 1105.67 581.362 1105.22C580.269 1104.76 579.307 1104.16 578.477 1103.41C577.647 1102.65 576.987 1101.75 576.497 1100.69C576.006 1099.63 575.761 1098.5 575.761 1097.3Z" fill="#0072bb" fill-rule="nonzero" opacity="1" stroke="none"/>
<path d="M644.784 1065.95C643.728 1064.44 642.144 1063.18 640.032 1062.16C637.92 1061.14 635.77 1060.64 633.582 1060.64C631.093 1060.64 628.905 1061.14 627.019 1062.16C625.133 1063.18 623.568 1064.52 622.324 1066.18C621.079 1067.84 620.155 1069.71 619.551 1071.78C618.948 1073.86 618.646 1075.95 618.646 1078.06C618.646 1080.17 618.967 1082.27 619.608 1084.34C620.249 1086.41 621.211 1088.28 622.493 1089.94C623.776 1091.6 625.379 1092.94 627.302 1093.96C629.226 1094.98 631.47 1095.49 634.035 1095.49C636.147 1095.49 638.259 1095.07 640.371 1094.24C642.483 1093.41 644.181 1092.2 645.463 1090.62L653.95 1099.22C651.687 1101.63 648.801 1103.5 645.293 1104.82C641.786 1106.14 637.995 1106.8 633.922 1106.8C629.924 1106.8 626.133 1106.16 622.55 1104.88C618.967 1103.6 615.836 1101.71 613.158 1099.22C610.48 1096.73 608.368 1093.71 606.822 1090.17C605.275 1086.62 604.502 1082.59 604.502 1078.06C604.502 1073.69 605.275 1069.72 606.822 1066.18C608.368 1062.63 610.461 1059.62 613.102 1057.13C615.742 1054.64 618.816 1052.71 622.324 1051.36C625.831 1050 629.584 1049.32 633.582 1049.32C637.58 1049.32 641.446 1050.07 645.18 1051.58C648.914 1053.09 651.875 1055.17 654.063 1057.81L644.784 1065.95Z" fill="#0072bb" fill-rule="nonzero" opacity="1" stroke="none"/>
<path d="M659.72 1077.83C659.72 1073.53 660.494 1069.63 662.04 1066.12C663.586 1062.62 665.68 1059.62 668.32 1057.13C670.96 1054.64 674.091 1052.71 677.712 1051.36C681.332 1050 685.18 1049.32 689.253 1049.32C693.327 1049.32 697.174 1050 700.795 1051.36C704.416 1052.71 707.546 1054.64 710.186 1057.13C712.827 1059.62 714.92 1062.62 716.466 1066.12C718.013 1069.63 718.786 1073.53 718.786 1077.83C718.786 1082.13 718.013 1086.06 716.466 1089.6C714.92 1093.15 712.827 1096.18 710.186 1098.71C707.546 1101.24 704.416 1103.22 700.795 1104.65C697.174 1106.08 693.327 1106.8 689.253 1106.8C685.18 1106.8 681.332 1106.08 677.712 1104.65C674.091 1103.22 670.96 1101.24 668.32 1098.71C665.68 1096.18 663.586 1093.15 662.04 1089.6C660.494 1086.06 659.72 1082.13 659.72 1077.83ZM673.525 1077.83C673.525 1079.95 673.846 1082.06 674.487 1084.17C675.128 1086.28 676.09 1088.17 677.372 1089.83C678.655 1091.49 680.276 1092.85 682.238 1093.9C684.199 1094.96 686.537 1095.49 689.253 1095.49C691.969 1095.49 694.307 1094.96 696.269 1093.9C698.23 1092.85 699.852 1091.49 701.134 1089.83C702.416 1088.17 703.378 1086.28 704.019 1084.17C704.661 1082.06 704.981 1079.95 704.981 1077.83C704.981 1075.72 704.661 1073.63 704.019 1071.55C703.378 1069.48 702.416 1067.61 701.134 1065.95C699.852 1064.29 698.23 1062.95 696.269 1061.94C694.307 1060.92 691.969 1060.41 689.253 1060.41C686.537 1060.41 684.199 1060.92 682.238 1061.94C680.276 1062.95 678.655 1064.29 677.372 1065.95C676.09 1067.61 675.128 1069.48 674.487 1071.55C673.846 1073.63 673.525 1075.72 673.525 1077.83Z" fill="#0072bb" fill-rule="nonzero" opacity="1" stroke="none"/>
<path d="M796.748 1049.32C800.293 1049.32 803.33 1049.94 805.857 1051.19C808.384 1052.43 810.458 1054.07 812.08 1056.11C813.702 1058.15 814.89 1060.48 815.644 1063.12C816.399 1065.76 816.776 1068.48 816.776 1071.27L816.776 1105.22L803.197 1105.22L803.197 1075.12C803.197 1073.53 803.084 1071.87 802.858 1070.14C802.632 1068.4 802.141 1066.84 801.387 1065.44C800.633 1064.05 799.595 1062.9 798.275 1061.99C796.955 1061.09 795.201 1060.64 793.014 1060.64C790.902 1060.64 789.091 1061.09 787.582 1061.99C786.074 1062.9 784.829 1064.07 783.848 1065.5C782.868 1066.93 782.151 1068.54 781.699 1070.31C781.246 1072.08 781.02 1073.84 781.02 1075.57L781.02 1105.22L767.441 1105.22L767.441 1072.4C767.441 1069.01 766.63 1066.2 765.009 1063.97C763.387 1061.75 760.841 1060.64 757.371 1060.64C755.334 1060.64 753.561 1061.07 752.053 1061.94C750.544 1062.8 749.318 1063.92 748.375 1065.27C747.432 1066.63 746.716 1068.2 746.225 1069.97C745.735 1071.74 745.49 1073.53 745.49 1075.34L745.49 1105.22L731.912 1105.22L731.912 1050.9L744.811 1050.9L744.811 1059.62L745.037 1059.62C745.641 1058.26 746.452 1056.98 747.47 1055.77C748.488 1054.56 749.695 1053.47 751.091 1052.49C752.486 1051.51 754.089 1050.73 755.9 1050.17C757.71 1049.6 759.709 1049.32 761.897 1049.32C766.121 1049.32 769.629 1050.26 772.42 1052.15C775.211 1054.03 777.361 1056.52 778.87 1059.62C780.68 1056.3 783.094 1053.75 786.111 1051.98C789.129 1050.21 792.674 1049.32 796.748 1049.32Z" fill="#0072bb" fill-rule="nonzero" opacity="1" stroke="none"/>
</g>
<path d="M896.553 813.66L860.503 864.702L825.456 813.827L793.022 813.827L846.123 890.904L846.929 938.636L875.413 938.163L874.634 891.405L929.375 813.91L896.553 813.66ZM97.9349 814.299L146.724 873.881L94.6248 937.69L130.424 937.69L164.665 895.772L199.017 937.69L234.649 937.69L182.495 873.992L231.228 814.299L195.401 814.299L164.526 852.073L133.595 814.299L97.9349 814.299ZM258.515 814.299L258.515 937.69L287.221 937.69L287.221 814.299L258.515 814.299ZM484.101 814.299L446.577 814.55L410.695 889.096L371.141 815.078L333.812 815.356L320.989 938.858L349.473 938.636L359.013 846.788L396.481 916.856L425.632 917.079L458.455 848.874L465.659 937.801L494.059 937.607L484.101 814.299ZM579.759 814.299C543.17 814.299 513.502 842.249 513.502 876.746C513.502 911.242 543.17 939.22 579.759 939.22C616.348 939.22 645.988 911.242 645.988 876.746C645.988 842.249 616.348 814.299 579.759 814.299ZM671.078 814.299L671.078 892.072L671.078 937.69L699.784 937.69L699.784 892.072L735.75 892.072L766.931 937.69L796.472 937.69L764.456 890.876C779.464 886.725 790.658 871.451 790.658 853.158C790.658 831.684 775.297 814.299 756.361 814.299C755.878 814.299 755.422 814.416 754.943 814.438L754.943 814.299L699.784 814.299L671.078 814.299ZM699.784 838.61L743.733 838.61L743.733 838.666C743.987 838.657 744.227 838.61 744.484 838.61C754.53 838.61 762.675 845.305 762.675 853.575C762.675 860.595 756.795 866.469 748.879 868.095L748.267 867.205L746.515 868.401C745.84 868.464 745.178 868.568 744.484 868.568C744.227 868.568 743.987 868.521 743.733 868.512L743.733 868.568L699.784 868.568L699.784 838.61ZM579.592 840.697C600.319 840.697 617.144 857.018 617.144 877.163C617.144 897.308 600.319 913.657 579.592 913.657C558.865 913.657 542.069 897.308 542.069 877.163C542.069 857.018 558.865 840.697 579.592 840.697Z" fill="url(#LinearGradient_2)" fill-rule="nonzero" opacity="1" stroke="none"/>
</g>
</svg>
