<?xml version="1.0" encoding="UTF-8" standalone="no"?>
<!DOCTYPE svg PUBLIC "-//W3C//DTD SVG 1.1//EN" "http://www.w3.org/Graphics/SVG/1.1/DTD/svg11.dtd">
<!-- Created with Vectornator (http://vectornator.io/) -->
<svg height="1024.0pt" stroke-miterlimit="10" style="fill-rule:nonzero;clip-rule:evenodd;stroke-linecap:round;stroke-linejoin:round;" version="1.1" viewBox="0 0 1024 1024" width="1024.0pt" xml:space="preserve" xmlns="http://www.w3.org/2000/svg" xmlns:xlink="http://www.w3.org/1999/xlink">
<defs>
<linearGradient gradientTransform="matrix(150.054 -209.075 186.589 168.137 583.271 639.413)" gradientUnits="userSpaceOnUse" id="LinearGradient" x1="0" x2="1" y1="0" y2="0">
<stop offset="0" stop-color="#0072bb"/>
<stop offset="1" stop-color="#00a651"/>
</linearGradient>
</defs>
<g id="图层-1">
<g opacity="1">
<path d="M507.014 209.574C461.593 210.524 416.885 241.643 402.966 302.304C399.57 317.105 398.814 709.383 402.153 724.199C414.736 780.034 451.05 814.487 506.979 823.651C556.45 831.756 605.427 795.267 646.031 720.05C655.583 702.354 653.733 702.753 666.758 715.577C702.334 750.604 741.572 773.963 778.896 782.334C783.928 783.462 788.335 784.586 788.691 784.831C790.877 786.333 817.038 787.514 827.207 786.57C967.251 773.564 995.94 555.086 863.87 507.369C805.301 486.207 735.878 514.657 671.443 586.224C663.405 595.15 656.615 602.215 656.353 601.924C653.563 598.823 637.226 560.736 633.174 547.885C619.399 504.196 618.667 496.514 618.125 389.76C617.701 306.269 617.7 306.27 615.35 297.866C598.57 237.846 552.435 208.625 507.014 209.574ZM505.233 266.011C530.099 266.161 555.11 285.002 558.33 320.463C558.886 326.596 559.211 358.579 559.148 400.478C559.017 484.316 560.015 501.042 567.015 532.545C573.923 563.635 592.805 610.814 609.672 639.129C616.233 650.143 617.895 645.171 594.724 683.782C561.799 738.644 549.013 751.989 525.352 756.18C491.129 762.241 461.067 738.735 453.991 700.382C451.323 685.925 452.095 323.148 454.819 310.691C461.466 280.297 483.293 265.878 505.233 266.011ZM828.29 561.964C832.659 562.192 836.884 562.888 840.968 564.054C917.255 585.834 904.25 713.416 824.766 722.993C816.383 724.003 808.149 724.148 803.522 723.367C776.084 718.741 743.387 701.502 716.55 677.512C706.544 668.567 690.17 652.372 690.449 651.695C690.735 651 708.484 632.34 713.997 626.938C760.043 581.817 797.709 560.372 828.29 561.964Z" fill="url(#LinearGradient)" fill-rule="nonzero" opacity="1" stroke="none"/>
<path d="M662.457 561.397C642.212 522.985 636.891 462.456 649.09 409.358C673.837 301.643 777.451 219.633 900.384 210.462C917.842 209.16 915.846 206.958 921.008 233.215C941.062 335.215 923.189 426.378 872.431 480.979C866.899 486.931 867.684 486.832 855.3 483.133C812.217 470.262 760.759 483.446 709.834 520.402C701.793 526.237 701.74 526.099 705.21 508.372C717.023 448.016 740.626 397.409 783.177 341.208C796.866 323.128 796.803 322.92 781.908 337.014C730.291 385.86 699.198 438.442 677.989 512.754C675.707 520.749 667.189 559.375 667.182 561.763C667.168 565.886 664.723 565.697 662.457 561.397L662.457 561.397Z" fill="#00a651" fill-rule="nonzero" opacity="1" stroke="none"/>
</g>
<path d="M106 743C106 752.728 98.2713 760.695 88.5482 760.992C78.825 761.288 70.6258 753.805 70.0339 744.096C69.442 734.386 76.6715 725.963 86.3586 725.076C96.0457 724.189 104.685 731.159 105.867 740.814" fill="#0172bb" fill-rule="nonzero" opacity="1" stroke="none"/>
<path d="M172 743C172 752.728 164.271 760.695 154.548 760.992C144.825 761.288 136.626 753.805 136.034 744.096C135.442 734.386 142.671 725.963 152.359 725.076C162.046 724.189 170.685 731.159 171.867 740.814" fill="#0172bb" fill-rule="nonzero" opacity="1" stroke="none"/>
<path d="M172 691C172 700.728 164.271 708.695 154.548 708.992C144.825 709.288 136.626 701.805 136.034 692.096C135.442 682.386 142.671 673.963 152.359 673.076C162.046 672.189 170.685 679.159 171.867 688.814" fill="#0172bb" fill-rule="nonzero" opacity="1" stroke="none"/>
<path d="M370 639C370 648.728 362.271 656.695 352.548 656.992C342.825 657.288 334.626 649.805 334.034 640.096C333.442 630.386 340.671 621.963 350.359 621.076C360.046 620.189 368.685 627.159 369.867 636.814" fill="#0172bb" fill-rule="nonzero" opacity="1" stroke="none"/>
<path d="M106 743C106 752.728 98.2713 760.695 88.5482 760.992C78.825 761.288 70.6258 753.805 70.0339 744.096C69.442 734.386 76.6715 725.963 86.3586 725.076C96.0457 724.189 104.685 731.159 105.867 740.814" fill="#0172bb" fill-rule="nonzero" opacity="1" stroke="none"/>
<path d="M238 639C238 648.728 230.271 656.695 220.548 656.992C210.825 657.288 202.626 649.805 202.034 640.096C201.442 630.386 208.671 621.963 218.359 621.076C228.046 620.189 236.685 627.159 237.867 636.814" fill="#0172bb" fill-rule="nonzero" opacity="1" stroke="none"/>
<path d="M370 691C370 700.728 362.271 708.695 352.548 708.992C342.825 709.288 334.626 701.805 334.034 692.096C333.442 682.386 340.671 673.963 350.359 673.076C360.046 672.189 368.685 679.159 369.867 688.814" fill="#0172bb" fill-rule="nonzero" opacity="1" stroke="none"/>
<path d="M238 691C238 700.728 230.271 708.695 220.548 708.992C210.825 709.288 202.626 701.805 202.034 692.096C201.442 682.386 208.671 673.963 218.359 673.076C228.046 672.189 236.685 679.159 237.867 688.814" fill="#0172bb" fill-rule="nonzero" opacity="1" stroke="none"/>
<path d="M304 691C304 700.728 296.271 708.695 286.548 708.992C276.825 709.288 268.626 701.805 268.034 692.096C267.442 682.386 274.671 673.963 284.359 673.076C294.046 672.189 302.685 679.159 303.867 688.814" fill="#0172bb" fill-rule="nonzero" opacity="1" stroke="none"/>
<path d="M172 743C172 752.728 164.271 760.695 154.548 760.992C144.825 761.288 136.626 753.805 136.034 744.096C135.442 734.386 142.671 725.963 152.359 725.076C162.046 724.189 170.685 731.159 171.867 740.814" fill="#0172bb" fill-rule="nonzero" opacity="1" stroke="none"/>
<path d="M238 743C238 752.728 230.271 760.695 220.548 760.992C210.825 761.288 202.626 753.805 202.034 744.096C201.442 734.386 208.671 725.963 218.359 725.076C228.046 724.189 236.685 731.159 237.867 740.814" fill="#0172bb" fill-rule="nonzero" opacity="1" stroke="none"/>
<path d="M304 743C304 752.728 296.271 760.695 286.548 760.992C276.825 761.288 268.626 753.805 268.034 744.096C267.442 734.386 274.671 725.963 284.359 725.076C294.046 724.189 302.685 731.159 303.867 740.814" fill="#0172bb" fill-rule="nonzero" opacity="1" stroke="none"/>
<path d="M370 743C370 752.728 362.271 760.695 352.548 760.992C342.825 761.288 334.626 753.805 334.034 744.096C333.442 734.386 340.671 725.963 350.359 725.076C360.046 724.189 368.685 731.159 369.867 740.814" fill="#0172bb" fill-rule="nonzero" opacity="1" stroke="none"/>
<path d="M304 639C304 648.728 296.271 656.695 286.548 656.992C276.825 657.288 268.626 649.805 268.034 640.096C267.442 630.386 274.671 621.963 284.359 621.076C294.046 620.189 302.685 627.159 303.867 636.814" fill="#0172bb" fill-rule="nonzero" opacity="1" stroke="none"/>
<path d="M370 587C370 596.728 362.271 604.695 352.548 604.992C342.825 605.288 334.626 597.805 334.034 588.096C333.442 578.386 340.671 569.963 350.359 569.076C360.046 568.189 368.685 575.159 369.867 584.814" fill="#00a651" fill-rule="nonzero" opacity="1" stroke="none"/>
<path d="M304 587C304 596.728 296.271 604.695 286.548 604.992C276.825 605.288 268.626 597.805 268.034 588.096C267.442 578.386 274.671 569.963 284.359 569.076C294.046 568.189 302.685 575.159 303.867 584.814" fill="#00a651" fill-rule="nonzero" opacity="1" stroke="none"/>
<path d="M370 535C370 544.728 362.271 552.695 352.548 552.992C342.825 553.288 334.626 545.805 334.034 536.096C333.442 526.386 340.671 517.963 350.359 517.076C360.046 516.189 368.685 523.159 369.867 532.814" fill="#00a651" fill-rule="nonzero" opacity="1" stroke="none"/>
</g>
</svg>
